%TF.GenerationSoftware,KiCad,Pcbnew,8.0.5*%
%TF.CreationDate,2024-11-06T13:54:45-05:00*%
%TF.ProjectId,BadgeKittyv2,42616467-654b-4697-9474-7976322e6b69,rev?*%
%TF.SameCoordinates,Original*%
%TF.FileFunction,Copper,L3,Inr*%
%TF.FilePolarity,Positive*%
%FSLAX46Y46*%
G04 Gerber Fmt 4.6, Leading zero omitted, Abs format (unit mm)*
G04 Created by KiCad (PCBNEW 8.0.5) date 2024-11-06 13:54:45*
%MOMM*%
%LPD*%
G01*
G04 APERTURE LIST*
G04 Aperture macros list*
%AMHorizOval*
0 Thick line with rounded ends*
0 $1 width*
0 $2 $3 position (X,Y) of the first rounded end (center of the circle)*
0 $4 $5 position (X,Y) of the second rounded end (center of the circle)*
0 Add line between two ends*
20,1,$1,$2,$3,$4,$5,0*
0 Add two circle primitives to create the rounded ends*
1,1,$1,$2,$3*
1,1,$1,$4,$5*%
%AMRotRect*
0 Rectangle, with rotation*
0 The origin of the aperture is its center*
0 $1 length*
0 $2 width*
0 $3 Rotation angle, in degrees counterclockwise*
0 Add horizontal line*
21,1,$1,$2,0,0,$3*%
G04 Aperture macros list end*
%TA.AperFunction,ComponentPad*%
%ADD10O,1.600000X1.000000*%
%TD*%
%TA.AperFunction,ComponentPad*%
%ADD11RotRect,1.700000X1.700000X338.000000*%
%TD*%
%TA.AperFunction,ComponentPad*%
%ADD12HorizOval,1.700000X0.000000X0.000000X0.000000X0.000000X0*%
%TD*%
%TA.AperFunction,ViaPad*%
%ADD13C,0.800000*%
%TD*%
%TA.AperFunction,ViaPad*%
%ADD14C,0.600000*%
%TD*%
%TA.AperFunction,ViaPad*%
%ADD15C,0.700000*%
%TD*%
%TA.AperFunction,ViaPad*%
%ADD16C,0.550000*%
%TD*%
G04 APERTURE END LIST*
D10*
%TO.N,GND*%
%TO.C,J1*%
X132534032Y-131576843D03*
X136334032Y-131576843D03*
X132534032Y-122936843D03*
X136334032Y-122936843D03*
%TD*%
D11*
%TO.N,+5V*%
%TO.C,PROG1*%
X97738012Y-85108593D03*
D12*
%TO.N,/RST{slash}UPDI*%
X96786511Y-87463640D03*
%TO.N,GND*%
X95835011Y-89818687D03*
%TO.N,/PIN_2*%
X94883510Y-92173734D03*
%TD*%
D13*
%TO.N,GND*%
X134249666Y-130291576D03*
X138381108Y-117735428D03*
D14*
X96780056Y-129145675D03*
D13*
X110332994Y-127308665D03*
X121179530Y-85034291D03*
X126393327Y-125458379D03*
X117405569Y-118665945D03*
X125708589Y-130355449D03*
X134310797Y-124138607D03*
D14*
X101505246Y-98944873D03*
X108900621Y-93910133D03*
X104435973Y-129856249D03*
X103221773Y-126787150D03*
X119292542Y-99156044D03*
X94477385Y-129162728D03*
X104297197Y-127114156D03*
X103810624Y-130646736D03*
D13*
X101014466Y-118538056D03*
D15*
X117476905Y-102901215D03*
D13*
X126251544Y-129302441D03*
D14*
X104289017Y-128290870D03*
D13*
X114938467Y-123864283D03*
D14*
X103277433Y-128095176D03*
D15*
X102987548Y-102889241D03*
D14*
X110150406Y-93696010D03*
D16*
%TO.N,+5V*%
X115598787Y-100419504D03*
D14*
X107105925Y-126639541D03*
X99874627Y-100274462D03*
X107468462Y-128628264D03*
X113493906Y-130484962D03*
D13*
X126553378Y-119615194D03*
X125113941Y-119585566D03*
D14*
X106112615Y-125672956D03*
X106097414Y-127588302D03*
%TO.N,Net-(D1-DO)*%
X102959521Y-100927344D03*
X115813460Y-99390545D03*
D13*
%TO.N,+BATT*%
X99055888Y-127830474D03*
D14*
%TO.N,/PIN_6*%
X99398252Y-99146265D03*
D13*
X123734353Y-119056480D03*
%TO.N,/PIN_7*%
X125541965Y-118088833D03*
D14*
X109480121Y-92724221D03*
D13*
%TO.N,/PIN_2*%
X116906299Y-128331968D03*
D14*
%TO.N,/RST{slash}UPDI*%
X99838443Y-101468548D03*
X98769633Y-101056104D03*
D13*
X118080184Y-127482774D03*
%TO.N,VBUS*%
X134249666Y-125649879D03*
D14*
X114069370Y-128776256D03*
D13*
X134347180Y-128516810D03*
%TO.N,/PIN_3*%
X130566327Y-127294241D03*
%TD*%
%TA.AperFunction,Conductor*%
%TO.N,+5V*%
G36*
X101186372Y-79605342D02*
G01*
X101219944Y-79605959D01*
X101224499Y-79606127D01*
X101228563Y-79606351D01*
X101256705Y-79607906D01*
X101261210Y-79608238D01*
X101293193Y-79611184D01*
X101297657Y-79611677D01*
X101329399Y-79615775D01*
X101333772Y-79616420D01*
X101365217Y-79621651D01*
X101369554Y-79622454D01*
X101400702Y-79628806D01*
X101405017Y-79629768D01*
X101435783Y-79637212D01*
X101440045Y-79638325D01*
X101451553Y-79641554D01*
X101470425Y-79646849D01*
X101474693Y-79648130D01*
X101488992Y-79652702D01*
X101504613Y-79657697D01*
X101504617Y-79657698D01*
X101508836Y-79659131D01*
X101538347Y-79669750D01*
X101542495Y-79671327D01*
X101571567Y-79682979D01*
X101575614Y-79684685D01*
X101604271Y-79697376D01*
X101608240Y-79699220D01*
X101620632Y-79705245D01*
X101636354Y-79712891D01*
X101640285Y-79714890D01*
X101649657Y-79719866D01*
X101667898Y-79729554D01*
X101671662Y-79731639D01*
X101698752Y-79747287D01*
X101702490Y-79749536D01*
X101728950Y-79766100D01*
X101732644Y-79768505D01*
X101758476Y-79785984D01*
X101762078Y-79788515D01*
X101787281Y-79806906D01*
X101787294Y-79806915D01*
X101790808Y-79809577D01*
X101815340Y-79828852D01*
X101818746Y-79831628D01*
X101842633Y-79851813D01*
X101845942Y-79854711D01*
X101869148Y-79875783D01*
X101872324Y-79878773D01*
X101894744Y-79900643D01*
X101894748Y-79900647D01*
X101897870Y-79903804D01*
X101919543Y-79926516D01*
X101922557Y-79929790D01*
X101943409Y-79953274D01*
X101946308Y-79956659D01*
X101966388Y-79980982D01*
X101969153Y-79984458D01*
X101988379Y-80009540D01*
X101991044Y-80013151D01*
X102009395Y-80038976D01*
X102011929Y-80042682D01*
X102015095Y-80047499D01*
X102029407Y-80069273D01*
X102031822Y-80073098D01*
X102048379Y-80100409D01*
X102050642Y-80104299D01*
X102066282Y-80132361D01*
X102068399Y-80136330D01*
X102083066Y-80165078D01*
X102085062Y-80169174D01*
X102099210Y-80199619D01*
X102100152Y-80201696D01*
X106847370Y-90929175D01*
X106879672Y-90995474D01*
X106879690Y-90995507D01*
X106916405Y-91058645D01*
X106916413Y-91058658D01*
X106957308Y-91118484D01*
X106957314Y-91118493D01*
X106957316Y-91118495D01*
X107002163Y-91174865D01*
X107050716Y-91227608D01*
X107050721Y-91227612D01*
X107050722Y-91227614D01*
X107079091Y-91254315D01*
X107102737Y-91276571D01*
X107157992Y-91321600D01*
X107216243Y-91362542D01*
X107277256Y-91399243D01*
X107277270Y-91399250D01*
X107277273Y-91399252D01*
X107291859Y-91406668D01*
X107340793Y-91431549D01*
X107406620Y-91459306D01*
X107474500Y-91482362D01*
X107544196Y-91500561D01*
X107615473Y-91513751D01*
X107688095Y-91521778D01*
X107712672Y-91522681D01*
X107761816Y-91524487D01*
X110945360Y-91524487D01*
X110945365Y-91524487D01*
X110948007Y-91524436D01*
X110984007Y-91523745D01*
X111022372Y-91521533D01*
X111022386Y-91521531D01*
X111022397Y-91521531D01*
X111060412Y-91517875D01*
X111060417Y-91517874D01*
X111060420Y-91517874D01*
X111098120Y-91512791D01*
X111135437Y-91506306D01*
X111172341Y-91498441D01*
X111208797Y-91489220D01*
X111244772Y-91478665D01*
X111280234Y-91466799D01*
X111315150Y-91453643D01*
X111323734Y-91450037D01*
X111349461Y-91439233D01*
X111349475Y-91439226D01*
X111349488Y-91439221D01*
X111383213Y-91423555D01*
X111416293Y-91406668D01*
X111448696Y-91388583D01*
X111480388Y-91369321D01*
X111511337Y-91348906D01*
X111541509Y-91327360D01*
X111570872Y-91304706D01*
X111599393Y-91280966D01*
X111627039Y-91256163D01*
X111653777Y-91230319D01*
X111679574Y-91203457D01*
X111704398Y-91175600D01*
X111728215Y-91146771D01*
X111750992Y-91116991D01*
X111772698Y-91086283D01*
X111793297Y-91054670D01*
X111812759Y-91022175D01*
X111831050Y-90988820D01*
X111848137Y-90954627D01*
X111863986Y-90919620D01*
X111878567Y-90883820D01*
X114130972Y-85034291D01*
X120274070Y-85034291D01*
X120293856Y-85222547D01*
X120293857Y-85222550D01*
X120352348Y-85402568D01*
X120352351Y-85402575D01*
X120446997Y-85566507D01*
X120573659Y-85707179D01*
X120726795Y-85818439D01*
X120726800Y-85818442D01*
X120899722Y-85895433D01*
X120899727Y-85895435D01*
X121084884Y-85934791D01*
X121084885Y-85934791D01*
X121274174Y-85934791D01*
X121274176Y-85934791D01*
X121459333Y-85895435D01*
X121632260Y-85818442D01*
X121785401Y-85707179D01*
X121912063Y-85566507D01*
X122006709Y-85402575D01*
X122065204Y-85222547D01*
X122084990Y-85034291D01*
X122065204Y-84846035D01*
X122006709Y-84666007D01*
X121912063Y-84502075D01*
X121785401Y-84361403D01*
X121726382Y-84318523D01*
X121632264Y-84250142D01*
X121632259Y-84250139D01*
X121459337Y-84173148D01*
X121459332Y-84173146D01*
X121313531Y-84142156D01*
X121274176Y-84133791D01*
X121084884Y-84133791D01*
X121052427Y-84140689D01*
X120899727Y-84173146D01*
X120899722Y-84173148D01*
X120726800Y-84250139D01*
X120726795Y-84250142D01*
X120573659Y-84361402D01*
X120446996Y-84502076D01*
X120352351Y-84666006D01*
X120352348Y-84666013D01*
X120293857Y-84846031D01*
X120293856Y-84846035D01*
X120274070Y-85034291D01*
X114130972Y-85034291D01*
X115973917Y-80248134D01*
X115975668Y-80243836D01*
X116003306Y-80179526D01*
X116007368Y-80170989D01*
X116038379Y-80111781D01*
X116043042Y-80103647D01*
X116078143Y-80047479D01*
X116083389Y-80039752D01*
X116122341Y-79986784D01*
X116128120Y-79979513D01*
X116170731Y-79929853D01*
X116177008Y-79923069D01*
X116180029Y-79920039D01*
X116223029Y-79876900D01*
X116229742Y-79870647D01*
X116278987Y-79828086D01*
X116286120Y-79822369D01*
X116338313Y-79783620D01*
X116345829Y-79778460D01*
X116400753Y-79743672D01*
X116408666Y-79739063D01*
X116466047Y-79708419D01*
X116474309Y-79704392D01*
X116533949Y-79678027D01*
X116542488Y-79674627D01*
X116604187Y-79652691D01*
X116613014Y-79649921D01*
X116676486Y-79632592D01*
X116685543Y-79630483D01*
X116750592Y-79617906D01*
X116759831Y-79616481D01*
X116826248Y-79608816D01*
X116835675Y-79608093D01*
X116892084Y-79605929D01*
X116905582Y-79605412D01*
X116910334Y-79605321D01*
X120295852Y-79605321D01*
X120298130Y-79605342D01*
X120301869Y-79605410D01*
X120331715Y-79605959D01*
X120336253Y-79606126D01*
X120368453Y-79607904D01*
X120372978Y-79608238D01*
X120378186Y-79608717D01*
X120404956Y-79611183D01*
X120409397Y-79611674D01*
X120441129Y-79615771D01*
X120445531Y-79616421D01*
X120476976Y-79621651D01*
X120481333Y-79622458D01*
X120512467Y-79628807D01*
X120516776Y-79629768D01*
X120547546Y-79637213D01*
X120551796Y-79638323D01*
X120582187Y-79646848D01*
X120586408Y-79648114D01*
X120616401Y-79657705D01*
X120620587Y-79659127D01*
X120629858Y-79662462D01*
X120650107Y-79669749D01*
X120654255Y-79671326D01*
X120683327Y-79682978D01*
X120687374Y-79684684D01*
X120716031Y-79697375D01*
X120720000Y-79699219D01*
X120730155Y-79704157D01*
X120748114Y-79712890D01*
X120752039Y-79714885D01*
X120779634Y-79729540D01*
X120783471Y-79731667D01*
X120810501Y-79747278D01*
X120814249Y-79749533D01*
X120840733Y-79766112D01*
X120844378Y-79768485D01*
X120870241Y-79785984D01*
X120873818Y-79788497D01*
X120899044Y-79806906D01*
X120902555Y-79809565D01*
X120918844Y-79822364D01*
X120927117Y-79828864D01*
X120930509Y-79831628D01*
X120954396Y-79851813D01*
X120957715Y-79854721D01*
X120980867Y-79875743D01*
X120984095Y-79878781D01*
X121006507Y-79900643D01*
X121009631Y-79903802D01*
X121031304Y-79926514D01*
X121034316Y-79929786D01*
X121055169Y-79953270D01*
X121058054Y-79956639D01*
X121070930Y-79972235D01*
X121078128Y-79980955D01*
X121080914Y-79984457D01*
X121100139Y-80009537D01*
X121102806Y-80013149D01*
X121121164Y-80038984D01*
X121123706Y-80042703D01*
X121141165Y-80069266D01*
X121143576Y-80073085D01*
X121160133Y-80100393D01*
X121162415Y-80104317D01*
X121178025Y-80132327D01*
X121180165Y-80136337D01*
X121194828Y-80165077D01*
X121196824Y-80169174D01*
X121210972Y-80199619D01*
X121211914Y-80201696D01*
X126197814Y-91468530D01*
X126197840Y-91468587D01*
X126204090Y-91482427D01*
X126204111Y-91482471D01*
X126210542Y-91496155D01*
X126217215Y-91509809D01*
X126218729Y-91512791D01*
X126221310Y-91517875D01*
X126224095Y-91523359D01*
X126231141Y-91536734D01*
X126238466Y-91550139D01*
X126245928Y-91563314D01*
X126253521Y-91576262D01*
X126332528Y-91710078D01*
X126439360Y-91891024D01*
X126462954Y-91930985D01*
X126463534Y-91931978D01*
X126467202Y-91938330D01*
X126666907Y-92284162D01*
X126667509Y-92285216D01*
X126671498Y-92292283D01*
X126865126Y-92635306D01*
X126865684Y-92636305D01*
X127000449Y-92880705D01*
X127057640Y-92984421D01*
X127058224Y-92985494D01*
X127180273Y-93212227D01*
X127244439Y-93331428D01*
X127245020Y-93332521D01*
X127284590Y-93407870D01*
X127425656Y-93676494D01*
X127426251Y-93677643D01*
X127601122Y-94019253D01*
X127601717Y-94020430D01*
X127770978Y-94359936D01*
X127771574Y-94361147D01*
X127935194Y-94698483D01*
X127935793Y-94699736D01*
X128093713Y-95034827D01*
X128094317Y-95036129D01*
X128246490Y-95368960D01*
X128247065Y-95370238D01*
X128314924Y-95523517D01*
X128393465Y-95700926D01*
X128394088Y-95702359D01*
X128534589Y-96030845D01*
X128535228Y-96032366D01*
X128669731Y-96358774D01*
X128670385Y-96360395D01*
X128798782Y-96684900D01*
X128799457Y-96686644D01*
X128921486Y-97009185D01*
X128922180Y-97011065D01*
X129037711Y-97332016D01*
X129038426Y-97334058D01*
X129147180Y-97653568D01*
X129147914Y-97655792D01*
X129249625Y-97974198D01*
X129250373Y-97976626D01*
X129344679Y-98294150D01*
X129345436Y-98296805D01*
X129431998Y-98613965D01*
X129432752Y-98616866D01*
X129511125Y-98934010D01*
X129511864Y-98937180D01*
X129581571Y-99254839D01*
X129582277Y-99258288D01*
X129642810Y-99577118D01*
X129643461Y-99580860D01*
X129694210Y-99901469D01*
X129694781Y-99905504D01*
X129735105Y-100228695D01*
X129735568Y-100233020D01*
X129764734Y-100559700D01*
X129765057Y-100564282D01*
X129782286Y-100895325D01*
X129782443Y-100900106D01*
X129786960Y-101236641D01*
X129786929Y-101241526D01*
X129778018Y-101584445D01*
X129777795Y-101589329D01*
X129754853Y-101939590D01*
X129754448Y-101944354D01*
X129717068Y-102302577D01*
X129716509Y-102307120D01*
X129664506Y-102673792D01*
X129663829Y-102678040D01*
X129597230Y-103053443D01*
X129596472Y-103057349D01*
X129515550Y-103441402D01*
X129514749Y-103444946D01*
X129419931Y-103837551D01*
X129419119Y-103840727D01*
X129311038Y-104241516D01*
X129310243Y-104244331D01*
X129189656Y-104652900D01*
X129188901Y-104655364D01*
X129056721Y-105071179D01*
X129056023Y-105073309D01*
X128913271Y-105495777D01*
X128912645Y-105497583D01*
X128760524Y-105925890D01*
X128759981Y-105927389D01*
X128599798Y-106360652D01*
X128599171Y-106362310D01*
X128259828Y-107241315D01*
X128259328Y-107242589D01*
X127550567Y-109019894D01*
X127209313Y-109901957D01*
X127048440Y-110337992D01*
X126896587Y-110769399D01*
X126755488Y-111195573D01*
X126626982Y-111615602D01*
X126512837Y-112028789D01*
X126414803Y-112434599D01*
X126334651Y-112832610D01*
X126274167Y-113222539D01*
X126235100Y-113604342D01*
X126224121Y-113792223D01*
X126219100Y-113978096D01*
X126220211Y-114161979D01*
X126227607Y-114343910D01*
X126241424Y-114523860D01*
X126261764Y-114701853D01*
X126287163Y-114867797D01*
X126288718Y-114877953D01*
X126322329Y-115052096D01*
X126345257Y-115150085D01*
X126362618Y-115224285D01*
X126409597Y-115394553D01*
X126418582Y-115422747D01*
X126463217Y-115562812D01*
X126523432Y-115729079D01*
X126523433Y-115729081D01*
X126590163Y-115893320D01*
X126663297Y-116055471D01*
X126742697Y-116215482D01*
X126828213Y-116373294D01*
X126828219Y-116373305D01*
X126828226Y-116373317D01*
X126919698Y-116528891D01*
X126919707Y-116528905D01*
X127016904Y-116682118D01*
X127016912Y-116682130D01*
X127206566Y-116951279D01*
X127227701Y-116981272D01*
X127405241Y-117203213D01*
X127458648Y-117269977D01*
X127545848Y-117367143D01*
X127707592Y-117547373D01*
X127972254Y-117812542D01*
X128250250Y-118064484D01*
X128539196Y-118302168D01*
X128836712Y-118524543D01*
X129140467Y-118730539D01*
X129448196Y-118919092D01*
X129448208Y-118919098D01*
X129448212Y-118919101D01*
X129757709Y-119089146D01*
X129757717Y-119089150D01*
X129757728Y-119089156D01*
X129757751Y-119089167D01*
X130067014Y-119239704D01*
X130067020Y-119239706D01*
X130067023Y-119239708D01*
X130374249Y-119369756D01*
X130374252Y-119369757D01*
X130374259Y-119369760D01*
X130677872Y-119478345D01*
X130677875Y-119478346D01*
X130817223Y-119518548D01*
X130976782Y-119564581D01*
X130976784Y-119564581D01*
X130976786Y-119564582D01*
X131124252Y-119599043D01*
X131270346Y-119627596D01*
X131415090Y-119650145D01*
X131558517Y-119666601D01*
X131700710Y-119676877D01*
X131841763Y-119680901D01*
X131956641Y-119679019D01*
X131981810Y-119678608D01*
X132065609Y-119673389D01*
X132120942Y-119669944D01*
X132120983Y-119669939D01*
X132120989Y-119669939D01*
X132142045Y-119667646D01*
X132259335Y-119654876D01*
X132397126Y-119633385D01*
X132534460Y-119605461D01*
X132671479Y-119571129D01*
X132808317Y-119530416D01*
X132945098Y-119483386D01*
X133081941Y-119430114D01*
X133218955Y-119370690D01*
X133493842Y-119233871D01*
X133770393Y-119074045D01*
X134049047Y-118892583D01*
X134186220Y-118794225D01*
X134330033Y-118691109D01*
X134362494Y-118665945D01*
X134613394Y-118471447D01*
X134898962Y-118235646D01*
X135186452Y-117985903D01*
X135463432Y-117735428D01*
X137475648Y-117735428D01*
X137495434Y-117923684D01*
X137495435Y-117923687D01*
X137553926Y-118103705D01*
X137553929Y-118103712D01*
X137648575Y-118267644D01*
X137752975Y-118383592D01*
X137775237Y-118408316D01*
X137928373Y-118519576D01*
X137928378Y-118519579D01*
X138101300Y-118596570D01*
X138101305Y-118596572D01*
X138286462Y-118635928D01*
X138286463Y-118635928D01*
X138475752Y-118635928D01*
X138475754Y-118635928D01*
X138660911Y-118596572D01*
X138833838Y-118519579D01*
X138986979Y-118408316D01*
X139113641Y-118267644D01*
X139208287Y-118103712D01*
X139266782Y-117923684D01*
X139286568Y-117735428D01*
X139266782Y-117547172D01*
X139208287Y-117367144D01*
X139113641Y-117203212D01*
X138986979Y-117062540D01*
X138986978Y-117062539D01*
X138833842Y-116951279D01*
X138833837Y-116951276D01*
X138660915Y-116874285D01*
X138660910Y-116874283D01*
X138515109Y-116843293D01*
X138475754Y-116834928D01*
X138286462Y-116834928D01*
X138254005Y-116841826D01*
X138101305Y-116874283D01*
X138101300Y-116874285D01*
X137928378Y-116951276D01*
X137928373Y-116951279D01*
X137775237Y-117062539D01*
X137648574Y-117203213D01*
X137553929Y-117367143D01*
X137553926Y-117367150D01*
X137495435Y-117547168D01*
X137495434Y-117547172D01*
X137475648Y-117735428D01*
X135463432Y-117735428D01*
X135475430Y-117724578D01*
X135765366Y-117454146D01*
X136055645Y-117177188D01*
X136634406Y-116614407D01*
X137205199Y-116058344D01*
X137205746Y-116057816D01*
X137485431Y-115789735D01*
X137486329Y-115788884D01*
X137517185Y-115759919D01*
X137761086Y-115530963D01*
X137762219Y-115529914D01*
X138030996Y-115284913D01*
X138032662Y-115283424D01*
X138294314Y-115054095D01*
X138296655Y-115052096D01*
X138550093Y-114841023D01*
X138553167Y-114838546D01*
X138797929Y-114647687D01*
X138800778Y-114645532D01*
X138918679Y-114559080D01*
X138920913Y-114557480D01*
X139036587Y-114476674D01*
X139039081Y-114474980D01*
X139151885Y-114400446D01*
X139154781Y-114398592D01*
X139264567Y-114330575D01*
X139267968Y-114328546D01*
X139374446Y-114267344D01*
X139378409Y-114265163D01*
X139481530Y-114210908D01*
X139486139Y-114208607D01*
X139585643Y-114161523D01*
X139591052Y-114159119D01*
X139686832Y-114119303D01*
X139693051Y-114116915D01*
X139784858Y-114084490D01*
X139792114Y-114082177D01*
X139879748Y-114057191D01*
X139888138Y-114055114D01*
X139935020Y-114045223D01*
X139971455Y-114037536D01*
X139981034Y-114035905D01*
X140059944Y-114025644D01*
X140070759Y-114024719D01*
X140145169Y-114021631D01*
X140157155Y-114021713D01*
X140227208Y-114025599D01*
X140240147Y-114027002D01*
X140306051Y-114037679D01*
X140319576Y-114040654D01*
X140381785Y-114058041D01*
X140395348Y-114062694D01*
X140454357Y-114086851D01*
X140467438Y-114093125D01*
X140523759Y-114124313D01*
X140535794Y-114131911D01*
X140589899Y-114170583D01*
X140600497Y-114179071D01*
X140652626Y-114225741D01*
X140661622Y-114234666D01*
X140711823Y-114289840D01*
X140719232Y-114298792D01*
X140767409Y-114362896D01*
X140773340Y-114371524D01*
X140819326Y-114444903D01*
X140823998Y-114453026D01*
X140867528Y-114535811D01*
X140871167Y-114543336D01*
X140912041Y-114635690D01*
X140914835Y-114642551D01*
X140952836Y-114744462D01*
X140954971Y-114750687D01*
X140989934Y-114862196D01*
X140991547Y-114867797D01*
X141023350Y-114988890D01*
X141024563Y-114993939D01*
X141053067Y-115124500D01*
X141053971Y-115129043D01*
X141079116Y-115269138D01*
X141079779Y-115273223D01*
X141101494Y-115422747D01*
X141101973Y-115426437D01*
X141120198Y-115585317D01*
X141120535Y-115588652D01*
X141135239Y-115756897D01*
X141135466Y-115759919D01*
X141146620Y-115937483D01*
X141146762Y-115940231D01*
X141154342Y-116127080D01*
X141154418Y-116129583D01*
X141158406Y-116325526D01*
X141158432Y-116328049D01*
X141158432Y-116547305D01*
X141142251Y-116608552D01*
X137817515Y-122461407D01*
X137815646Y-122554247D01*
X137794616Y-122620877D01*
X137740901Y-122665560D01*
X137671556Y-122674109D01*
X137608598Y-122643810D01*
X137577110Y-122599203D01*
X137520667Y-122462935D01*
X137520660Y-122462922D01*
X137411171Y-122299061D01*
X137411168Y-122299057D01*
X137271817Y-122159706D01*
X137271813Y-122159703D01*
X137107952Y-122050214D01*
X137107939Y-122050207D01*
X136925871Y-121974793D01*
X136925861Y-121974790D01*
X136732575Y-121936343D01*
X136732573Y-121936343D01*
X135935491Y-121936343D01*
X135935489Y-121936343D01*
X135742202Y-121974790D01*
X135742192Y-121974793D01*
X135560124Y-122050207D01*
X135560111Y-122050214D01*
X135396250Y-122159703D01*
X135396246Y-122159706D01*
X135256895Y-122299057D01*
X135256892Y-122299061D01*
X135147403Y-122462922D01*
X135147396Y-122462935D01*
X135071982Y-122645003D01*
X135071979Y-122645013D01*
X135033532Y-122838299D01*
X135033532Y-122838302D01*
X135033532Y-123035384D01*
X135033532Y-123035386D01*
X135033531Y-123035386D01*
X135071979Y-123228672D01*
X135071982Y-123228682D01*
X135111234Y-123323445D01*
X135118703Y-123392914D01*
X135087428Y-123455393D01*
X135027338Y-123491045D01*
X134957513Y-123488551D01*
X134922793Y-123468344D01*
X134921926Y-123469539D01*
X134763531Y-123354458D01*
X134763526Y-123354455D01*
X134590604Y-123277464D01*
X134590599Y-123277462D01*
X134444798Y-123246472D01*
X134405443Y-123238107D01*
X134216151Y-123238107D01*
X134183694Y-123245005D01*
X134030994Y-123277462D01*
X134030989Y-123277464D01*
X133981381Y-123299551D01*
X133912131Y-123308835D01*
X133848855Y-123279206D01*
X133811642Y-123220071D01*
X133809330Y-123162081D01*
X133825631Y-123080131D01*
X133834532Y-123035386D01*
X133834532Y-122838299D01*
X133796084Y-122645013D01*
X133796083Y-122645012D01*
X133796083Y-122645008D01*
X133758489Y-122554247D01*
X133720667Y-122462935D01*
X133720660Y-122462922D01*
X133611171Y-122299061D01*
X133611168Y-122299057D01*
X133471817Y-122159706D01*
X133471813Y-122159703D01*
X133307952Y-122050214D01*
X133307939Y-122050207D01*
X133125871Y-121974793D01*
X133125861Y-121974790D01*
X132932575Y-121936343D01*
X132932573Y-121936343D01*
X132135491Y-121936343D01*
X132135489Y-121936343D01*
X131942202Y-121974790D01*
X131942192Y-121974793D01*
X131760124Y-122050207D01*
X131760111Y-122050214D01*
X131596250Y-122159703D01*
X131596246Y-122159706D01*
X131456895Y-122299057D01*
X131456892Y-122299061D01*
X131347403Y-122462922D01*
X131347396Y-122462935D01*
X131271982Y-122645003D01*
X131271979Y-122645013D01*
X131233532Y-122838299D01*
X131233532Y-122838302D01*
X131233532Y-123035384D01*
X131233532Y-123035386D01*
X131233531Y-123035386D01*
X131271979Y-123228672D01*
X131271982Y-123228682D01*
X131347396Y-123410750D01*
X131347403Y-123410763D01*
X131456892Y-123574624D01*
X131456895Y-123574628D01*
X131596246Y-123713979D01*
X131596250Y-123713982D01*
X131760111Y-123823471D01*
X131760124Y-123823478D01*
X131942192Y-123898892D01*
X131942197Y-123898894D01*
X131942201Y-123898894D01*
X131942202Y-123898895D01*
X132135488Y-123937343D01*
X132135491Y-123937343D01*
X132932575Y-123937343D01*
X133062614Y-123911475D01*
X133125867Y-123898894D01*
X133209426Y-123864283D01*
X133251840Y-123846715D01*
X133321309Y-123839246D01*
X133383788Y-123870521D01*
X133419440Y-123930610D01*
X133422612Y-123974234D01*
X133405337Y-124138607D01*
X133425123Y-124326863D01*
X133425124Y-124326866D01*
X133483615Y-124506884D01*
X133483618Y-124506891D01*
X133578264Y-124670823D01*
X133678683Y-124782349D01*
X133708913Y-124845340D01*
X133700288Y-124914675D01*
X133659422Y-124965637D01*
X133643792Y-124976993D01*
X133643789Y-124976995D01*
X133517132Y-125117664D01*
X133422487Y-125281594D01*
X133422484Y-125281601D01*
X133365046Y-125458379D01*
X133363992Y-125461623D01*
X133344206Y-125649879D01*
X133363992Y-125838135D01*
X133363993Y-125838138D01*
X133422484Y-126018156D01*
X133422487Y-126018163D01*
X133517133Y-126182095D01*
X133631031Y-126308591D01*
X133643795Y-126322767D01*
X133796931Y-126434027D01*
X133796936Y-126434030D01*
X133969858Y-126511021D01*
X133969863Y-126511023D01*
X134155020Y-126550379D01*
X134155021Y-126550379D01*
X134344310Y-126550379D01*
X134344312Y-126550379D01*
X134529469Y-126511023D01*
X134702396Y-126434030D01*
X134855537Y-126322767D01*
X134982199Y-126182095D01*
X135076845Y-126018163D01*
X135135340Y-125838135D01*
X135155126Y-125649879D01*
X135135340Y-125461623D01*
X135076845Y-125281595D01*
X134982199Y-125117663D01*
X134881778Y-125006135D01*
X134851549Y-124943145D01*
X134860174Y-124873810D01*
X134901047Y-124822843D01*
X134916668Y-124811495D01*
X135043330Y-124670823D01*
X135137976Y-124506891D01*
X135196471Y-124326863D01*
X135216257Y-124138607D01*
X135196471Y-123950351D01*
X135146157Y-123795501D01*
X135144162Y-123725660D01*
X135180242Y-123665827D01*
X135242943Y-123634999D01*
X135312357Y-123642964D01*
X135351769Y-123669502D01*
X135396246Y-123713979D01*
X135396250Y-123713982D01*
X135560111Y-123823471D01*
X135560124Y-123823478D01*
X135742192Y-123898892D01*
X135742197Y-123898894D01*
X135742201Y-123898894D01*
X135742202Y-123898895D01*
X135935488Y-123937343D01*
X135935491Y-123937343D01*
X136732575Y-123937343D01*
X136862614Y-123911475D01*
X136925867Y-123898894D01*
X137081682Y-123834354D01*
X137107939Y-123823478D01*
X137107939Y-123823477D01*
X137107946Y-123823475D01*
X137271814Y-123713982D01*
X137411171Y-123574625D01*
X137520664Y-123410757D01*
X137560815Y-123313821D01*
X137604654Y-123259421D01*
X137670948Y-123237355D01*
X137738647Y-123254633D01*
X137786258Y-123305770D01*
X137799350Y-123363771D01*
X137791742Y-123741724D01*
X137775994Y-130646739D01*
X137775029Y-131069630D01*
X137775095Y-131093450D01*
X137755597Y-131160542D01*
X137702920Y-131206443D01*
X137633790Y-131216578D01*
X137570154Y-131187730D01*
X137536535Y-131141244D01*
X137520667Y-131102935D01*
X137520660Y-131102922D01*
X137411171Y-130939061D01*
X137411168Y-130939057D01*
X137271817Y-130799706D01*
X137271813Y-130799703D01*
X137107952Y-130690214D01*
X137107939Y-130690207D01*
X136925871Y-130614793D01*
X136925861Y-130614790D01*
X136732575Y-130576343D01*
X136732573Y-130576343D01*
X135935491Y-130576343D01*
X135935489Y-130576343D01*
X135742202Y-130614790D01*
X135742192Y-130614793D01*
X135560124Y-130690207D01*
X135560111Y-130690214D01*
X135396250Y-130799703D01*
X135396246Y-130799706D01*
X135256895Y-130939057D01*
X135256892Y-130939061D01*
X135147403Y-131102922D01*
X135147396Y-131102935D01*
X135071982Y-131285003D01*
X135071979Y-131285013D01*
X135033532Y-131478299D01*
X135033532Y-131478302D01*
X135033532Y-131675384D01*
X135033532Y-131675386D01*
X135033531Y-131675386D01*
X135071979Y-131868672D01*
X135071982Y-131868682D01*
X135147396Y-132050750D01*
X135147403Y-132050763D01*
X135256892Y-132214624D01*
X135256895Y-132214628D01*
X135396246Y-132353979D01*
X135396250Y-132353982D01*
X135560111Y-132463471D01*
X135560124Y-132463478D01*
X135742192Y-132538892D01*
X135742197Y-132538894D01*
X135742201Y-132538894D01*
X135742202Y-132538895D01*
X135935488Y-132577343D01*
X135935491Y-132577343D01*
X136732575Y-132577343D01*
X136862614Y-132551475D01*
X136925867Y-132538894D01*
X137107946Y-132463475D01*
X137271814Y-132353982D01*
X137411171Y-132214625D01*
X137520664Y-132050757D01*
X137573949Y-131922113D01*
X137617787Y-131867715D01*
X137684081Y-131845649D01*
X137751780Y-131862928D01*
X137799391Y-131914064D01*
X137800410Y-131916148D01*
X137835270Y-131989188D01*
X137844702Y-132017054D01*
X137863510Y-132106397D01*
X137866129Y-132135118D01*
X137863613Y-132233280D01*
X137862026Y-132250128D01*
X137838047Y-132396665D01*
X137828826Y-132427363D01*
X137759049Y-132583019D01*
X137748675Y-132601670D01*
X137677458Y-132707177D01*
X137662363Y-132725484D01*
X137571384Y-132816463D01*
X137500460Y-132886934D01*
X137439030Y-132920222D01*
X137413014Y-132922972D01*
X135469397Y-132922245D01*
X135469395Y-132922244D01*
X135469391Y-132922245D01*
X134462825Y-132921813D01*
X134462799Y-132921813D01*
X133384041Y-132921813D01*
X133383880Y-132921813D01*
X133152478Y-132922416D01*
X133062247Y-132922651D01*
X133061603Y-132922651D01*
X132968412Y-132922409D01*
X132738299Y-132921813D01*
X132738149Y-132921813D01*
X132738144Y-132921813D01*
X97350855Y-132924980D01*
X97346586Y-132924907D01*
X97009792Y-132913334D01*
X97001306Y-132912750D01*
X96668964Y-132878411D01*
X96660550Y-132877250D01*
X96331625Y-132820291D01*
X96323315Y-132818557D01*
X95999001Y-132739212D01*
X95990820Y-132736910D01*
X95672294Y-132635408D01*
X95664280Y-132632548D01*
X95352757Y-132509159D01*
X95344950Y-132505752D01*
X95043001Y-132361444D01*
X95035460Y-132357517D01*
X94744544Y-132193100D01*
X94737293Y-132188668D01*
X94697717Y-132162571D01*
X94458379Y-132004750D01*
X94451464Y-131999842D01*
X94185603Y-131797095D01*
X94179017Y-131791706D01*
X94046439Y-131675386D01*
X131233531Y-131675386D01*
X131271979Y-131868672D01*
X131271982Y-131868682D01*
X131347396Y-132050750D01*
X131347403Y-132050763D01*
X131456892Y-132214624D01*
X131456895Y-132214628D01*
X131596246Y-132353979D01*
X131596250Y-132353982D01*
X131760111Y-132463471D01*
X131760124Y-132463478D01*
X131942192Y-132538892D01*
X131942197Y-132538894D01*
X131942201Y-132538894D01*
X131942202Y-132538895D01*
X132135488Y-132577343D01*
X132135491Y-132577343D01*
X132932575Y-132577343D01*
X133062614Y-132551475D01*
X133125867Y-132538894D01*
X133307946Y-132463475D01*
X133471814Y-132353982D01*
X133611171Y-132214625D01*
X133720664Y-132050757D01*
X133796083Y-131868678D01*
X133834532Y-131675384D01*
X133834532Y-131478302D01*
X133834532Y-131478299D01*
X133804510Y-131327373D01*
X133797046Y-131289849D01*
X133803273Y-131220259D01*
X133846136Y-131165082D01*
X133912025Y-131141837D01*
X133963473Y-131151342D01*
X133963679Y-131150711D01*
X133968455Y-131152262D01*
X133969106Y-131152383D01*
X133969863Y-131152720D01*
X134155020Y-131192076D01*
X134155021Y-131192076D01*
X134344310Y-131192076D01*
X134344312Y-131192076D01*
X134529469Y-131152720D01*
X134702396Y-131075727D01*
X134855537Y-130964464D01*
X134982199Y-130823792D01*
X135076845Y-130659860D01*
X135135340Y-130479832D01*
X135155126Y-130291576D01*
X135135340Y-130103320D01*
X135076845Y-129923292D01*
X134982199Y-129759360D01*
X134855537Y-129618688D01*
X134737004Y-129532569D01*
X134694339Y-129477241D01*
X134688360Y-129407627D01*
X134720965Y-129345832D01*
X134759451Y-129318974D01*
X134799910Y-129300961D01*
X134953051Y-129189698D01*
X135079713Y-129049026D01*
X135174359Y-128885094D01*
X135232854Y-128705066D01*
X135252640Y-128516810D01*
X135232854Y-128328554D01*
X135174359Y-128148526D01*
X135079713Y-127984594D01*
X134953051Y-127843922D01*
X134953050Y-127843921D01*
X134799914Y-127732661D01*
X134799909Y-127732658D01*
X134626987Y-127655667D01*
X134626982Y-127655665D01*
X134481181Y-127624675D01*
X134441826Y-127616310D01*
X134252534Y-127616310D01*
X134220077Y-127623208D01*
X134067377Y-127655665D01*
X134067372Y-127655667D01*
X133894450Y-127732658D01*
X133894445Y-127732661D01*
X133741309Y-127843921D01*
X133614646Y-127984595D01*
X133520001Y-128148525D01*
X133519998Y-128148532D01*
X133473750Y-128290870D01*
X133461506Y-128328554D01*
X133441720Y-128516810D01*
X133461506Y-128705066D01*
X133461507Y-128705069D01*
X133519998Y-128885087D01*
X133520001Y-128885094D01*
X133614647Y-129049026D01*
X133741309Y-129189698D01*
X133859840Y-129275816D01*
X133902506Y-129331144D01*
X133908485Y-129400758D01*
X133875880Y-129462553D01*
X133837393Y-129489411D01*
X133796938Y-129507423D01*
X133796931Y-129507427D01*
X133643795Y-129618687D01*
X133517132Y-129759361D01*
X133422487Y-129923291D01*
X133422484Y-129923298D01*
X133369427Y-130086592D01*
X133363992Y-130103320D01*
X133344206Y-130291576D01*
X133363992Y-130479832D01*
X133363993Y-130479835D01*
X133368577Y-130493945D01*
X133370570Y-130563786D01*
X133334488Y-130623618D01*
X133271786Y-130654444D01*
X133203193Y-130646821D01*
X133125871Y-130614793D01*
X133125861Y-130614790D01*
X132932575Y-130576343D01*
X132932573Y-130576343D01*
X132135491Y-130576343D01*
X132135489Y-130576343D01*
X131942202Y-130614790D01*
X131942192Y-130614793D01*
X131760124Y-130690207D01*
X131760111Y-130690214D01*
X131596250Y-130799703D01*
X131596246Y-130799706D01*
X131456895Y-130939057D01*
X131456892Y-130939061D01*
X131347403Y-131102922D01*
X131347396Y-131102935D01*
X131271982Y-131285003D01*
X131271979Y-131285013D01*
X131233532Y-131478299D01*
X131233532Y-131478302D01*
X131233532Y-131675384D01*
X131233532Y-131675386D01*
X131233531Y-131675386D01*
X94046439Y-131675386D01*
X93927173Y-131570745D01*
X93920967Y-131564910D01*
X93685078Y-131327373D01*
X93679296Y-131321137D01*
X93648029Y-131285003D01*
X93460593Y-131068391D01*
X93455260Y-131061783D01*
X93405987Y-130996259D01*
X93254487Y-130794792D01*
X93249619Y-130787836D01*
X93067464Y-130507509D01*
X93063088Y-130500239D01*
X92899249Y-130205660D01*
X92897262Y-130201937D01*
X92879469Y-130167189D01*
X92670643Y-129759361D01*
X92365138Y-129162724D01*
X93671820Y-129162724D01*
X93671820Y-129162731D01*
X93692015Y-129341977D01*
X93692016Y-129341982D01*
X93751596Y-129512251D01*
X93782620Y-129561625D01*
X93847569Y-129664990D01*
X93975123Y-129792544D01*
X94064842Y-129848918D01*
X94126500Y-129887661D01*
X94127863Y-129888517D01*
X94249398Y-129931044D01*
X94298130Y-129948096D01*
X94298135Y-129948097D01*
X94477381Y-129968293D01*
X94477385Y-129968293D01*
X94477389Y-129968293D01*
X94656634Y-129948097D01*
X94656637Y-129948096D01*
X94656640Y-129948096D01*
X94826907Y-129888517D01*
X94979647Y-129792544D01*
X95107201Y-129664990D01*
X95203174Y-129512250D01*
X95262753Y-129341983D01*
X95262754Y-129341977D01*
X95282950Y-129162731D01*
X95282950Y-129162724D01*
X95281029Y-129145671D01*
X95974491Y-129145671D01*
X95974491Y-129145678D01*
X95994686Y-129324924D01*
X95994687Y-129324929D01*
X96054267Y-129495198D01*
X96150240Y-129647937D01*
X96277794Y-129775491D01*
X96368136Y-129832257D01*
X96414671Y-129861497D01*
X96430534Y-129871464D01*
X96571948Y-129920947D01*
X96600801Y-129931043D01*
X96600806Y-129931044D01*
X96780052Y-129951240D01*
X96780056Y-129951240D01*
X96780060Y-129951240D01*
X96959305Y-129931044D01*
X96959308Y-129931043D01*
X96959311Y-129931043D01*
X97129578Y-129871464D01*
X97282318Y-129775491D01*
X97409872Y-129647937D01*
X97505845Y-129495197D01*
X97565424Y-129324930D01*
X97565425Y-129324924D01*
X97585621Y-129145678D01*
X97585621Y-129145671D01*
X97565425Y-128966425D01*
X97565424Y-128966420D01*
X97516835Y-128827562D01*
X97505845Y-128796153D01*
X97493340Y-128776252D01*
X97464890Y-128730974D01*
X97409872Y-128643413D01*
X97282318Y-128515859D01*
X97209533Y-128470125D01*
X97129579Y-128419886D01*
X96959310Y-128360306D01*
X96959305Y-128360305D01*
X96780060Y-128340110D01*
X96780052Y-128340110D01*
X96600806Y-128360305D01*
X96600801Y-128360306D01*
X96430532Y-128419886D01*
X96277793Y-128515859D01*
X96150240Y-128643412D01*
X96054267Y-128796151D01*
X95994687Y-128966420D01*
X95994686Y-128966425D01*
X95974491Y-129145671D01*
X95281029Y-129145671D01*
X95262754Y-128983478D01*
X95262753Y-128983473D01*
X95245499Y-128934163D01*
X95203174Y-128813206D01*
X95107201Y-128660466D01*
X94979647Y-128532912D01*
X94959454Y-128520224D01*
X94826908Y-128436939D01*
X94656639Y-128377359D01*
X94656634Y-128377358D01*
X94477389Y-128357163D01*
X94477381Y-128357163D01*
X94298135Y-128377358D01*
X94298130Y-128377359D01*
X94127861Y-128436939D01*
X93975122Y-128532912D01*
X93847569Y-128660465D01*
X93751596Y-128813204D01*
X93692016Y-128983473D01*
X93692015Y-128983478D01*
X93671820Y-129162724D01*
X92365138Y-129162724D01*
X92192544Y-128825656D01*
X92192542Y-128825654D01*
X92186167Y-128813204D01*
X91840560Y-128138244D01*
X91840559Y-128138235D01*
X91840557Y-128138237D01*
X91757805Y-127976594D01*
X91757813Y-127976589D01*
X91757789Y-127976563D01*
X91683050Y-127830474D01*
X98150428Y-127830474D01*
X98170214Y-128018730D01*
X98170215Y-128018733D01*
X98228706Y-128198751D01*
X98228709Y-128198758D01*
X98323355Y-128362690D01*
X98420085Y-128470119D01*
X98450017Y-128503362D01*
X98603153Y-128614622D01*
X98603158Y-128614625D01*
X98776080Y-128691616D01*
X98776085Y-128691618D01*
X98961242Y-128730974D01*
X98961243Y-128730974D01*
X99150532Y-128730974D01*
X99150534Y-128730974D01*
X99335691Y-128691618D01*
X99508618Y-128614625D01*
X99661759Y-128503362D01*
X99788421Y-128362690D01*
X99883067Y-128198758D01*
X99941562Y-128018730D01*
X99961348Y-127830474D01*
X99941562Y-127642218D01*
X99883551Y-127463679D01*
X99883069Y-127462196D01*
X99883068Y-127462195D01*
X99883067Y-127462190D01*
X99788421Y-127298258D01*
X99661759Y-127157586D01*
X99632975Y-127136673D01*
X99508622Y-127046325D01*
X99508617Y-127046322D01*
X99335695Y-126969331D01*
X99335690Y-126969329D01*
X99173737Y-126934906D01*
X99150534Y-126929974D01*
X98961242Y-126929974D01*
X98938062Y-126934901D01*
X98776085Y-126969329D01*
X98776080Y-126969331D01*
X98603158Y-127046322D01*
X98603153Y-127046325D01*
X98450017Y-127157585D01*
X98323354Y-127298259D01*
X98228709Y-127462189D01*
X98228706Y-127462196D01*
X98178597Y-127616418D01*
X98170214Y-127642218D01*
X98150428Y-127830474D01*
X91683050Y-127830474D01*
X91679905Y-127824326D01*
X91679880Y-127824278D01*
X91661651Y-127788607D01*
X91606649Y-127680979D01*
X91606633Y-127680897D01*
X91606613Y-127680908D01*
X91537693Y-127545824D01*
X91537638Y-127545716D01*
X91472916Y-127418552D01*
X91472844Y-127418410D01*
X91412048Y-127298580D01*
X91411958Y-127298402D01*
X91407415Y-127289412D01*
X91354847Y-127185383D01*
X91301079Y-127078448D01*
X91250511Y-126977253D01*
X91203008Y-126881490D01*
X91202753Y-126880972D01*
X91167974Y-126809885D01*
X91156849Y-126787146D01*
X102416208Y-126787146D01*
X102416208Y-126787153D01*
X102436403Y-126966399D01*
X102436404Y-126966404D01*
X102495984Y-127136673D01*
X102591957Y-127289412D01*
X102683856Y-127381311D01*
X102717341Y-127442634D01*
X102712357Y-127512326D01*
X102683858Y-127556671D01*
X102647618Y-127592911D01*
X102647617Y-127592913D01*
X102551644Y-127745652D01*
X102492064Y-127915921D01*
X102492063Y-127915926D01*
X102471868Y-128095172D01*
X102471868Y-128095179D01*
X102492063Y-128274425D01*
X102492064Y-128274430D01*
X102551644Y-128444699D01*
X102647342Y-128597001D01*
X102647617Y-128597438D01*
X102775171Y-128724992D01*
X102856751Y-128776252D01*
X102915562Y-128813206D01*
X102927911Y-128820965D01*
X102956947Y-128831125D01*
X103098178Y-128880544D01*
X103098183Y-128880545D01*
X103277429Y-128900741D01*
X103277433Y-128900741D01*
X103277437Y-128900741D01*
X103456682Y-128880545D01*
X103456685Y-128880544D01*
X103456688Y-128880544D01*
X103456689Y-128880543D01*
X103456692Y-128880543D01*
X103514013Y-128860485D01*
X103597919Y-128831124D01*
X103667696Y-128827562D01*
X103726554Y-128860485D01*
X103786754Y-128920685D01*
X103786760Y-128920690D01*
X103936432Y-129014736D01*
X103982723Y-129067070D01*
X103993371Y-129136124D01*
X103964996Y-129199972D01*
X103936437Y-129224720D01*
X103933711Y-129226432D01*
X103806157Y-129353986D01*
X103710184Y-129506725D01*
X103650604Y-129676994D01*
X103650603Y-129676998D01*
X103638491Y-129784504D01*
X103611425Y-129848918D01*
X103556226Y-129887661D01*
X103461103Y-129920946D01*
X103461099Y-129920948D01*
X103308361Y-130016920D01*
X103180808Y-130144473D01*
X103084835Y-130297212D01*
X103025255Y-130467481D01*
X103025254Y-130467486D01*
X103005059Y-130646732D01*
X103005059Y-130646739D01*
X103025254Y-130825985D01*
X103025255Y-130825990D01*
X103084835Y-130996259D01*
X103174901Y-131139597D01*
X103180808Y-131148998D01*
X103308362Y-131276552D01*
X103461102Y-131372525D01*
X103631369Y-131432104D01*
X103631374Y-131432105D01*
X103810620Y-131452301D01*
X103810624Y-131452301D01*
X103810628Y-131452301D01*
X103989873Y-131432105D01*
X103989876Y-131432104D01*
X103989879Y-131432104D01*
X104160146Y-131372525D01*
X104312886Y-131276552D01*
X104440440Y-131148998D01*
X104536413Y-130996258D01*
X104595992Y-130825991D01*
X104608105Y-130718481D01*
X104635171Y-130654067D01*
X104690370Y-130615322D01*
X104785495Y-130582038D01*
X104938235Y-130486065D01*
X105065789Y-130358511D01*
X105067713Y-130355449D01*
X124803129Y-130355449D01*
X124822915Y-130543705D01*
X124822916Y-130543708D01*
X124881407Y-130723726D01*
X124881410Y-130723733D01*
X124976056Y-130887665D01*
X125073834Y-130996258D01*
X125102718Y-131028337D01*
X125255854Y-131139597D01*
X125255859Y-131139600D01*
X125428781Y-131216591D01*
X125428786Y-131216593D01*
X125613943Y-131255949D01*
X125613944Y-131255949D01*
X125803233Y-131255949D01*
X125803235Y-131255949D01*
X125988392Y-131216593D01*
X126161319Y-131139600D01*
X126314460Y-131028337D01*
X126441122Y-130887665D01*
X126535768Y-130723733D01*
X126594263Y-130543705D01*
X126614049Y-130355449D01*
X126600504Y-130226580D01*
X126613073Y-130157854D01*
X126660805Y-130106830D01*
X126673385Y-130100344D01*
X126704274Y-130086592D01*
X126857415Y-129975329D01*
X126984077Y-129834657D01*
X127078723Y-129670725D01*
X127137218Y-129490697D01*
X127157004Y-129302441D01*
X127137218Y-129114185D01*
X127078723Y-128934157D01*
X126984077Y-128770225D01*
X126857415Y-128629553D01*
X126857414Y-128629552D01*
X126704278Y-128518292D01*
X126704273Y-128518289D01*
X126531351Y-128441298D01*
X126531346Y-128441296D01*
X126385545Y-128410306D01*
X126346190Y-128401941D01*
X126156898Y-128401941D01*
X126124441Y-128408839D01*
X125971741Y-128441296D01*
X125971736Y-128441298D01*
X125798814Y-128518289D01*
X125798809Y-128518292D01*
X125645673Y-128629552D01*
X125519010Y-128770226D01*
X125424365Y-128934156D01*
X125424362Y-128934163D01*
X125374554Y-129087458D01*
X125365870Y-129114185D01*
X125348598Y-129278518D01*
X125346084Y-129302441D01*
X125359627Y-129431308D01*
X125347057Y-129500038D01*
X125299324Y-129551061D01*
X125286743Y-129557547D01*
X125255856Y-129571298D01*
X125102718Y-129682560D01*
X124976055Y-129823234D01*
X124881410Y-129987164D01*
X124881407Y-129987171D01*
X124842528Y-130106830D01*
X124822915Y-130167193D01*
X124803129Y-130355449D01*
X105067713Y-130355449D01*
X105161762Y-130205771D01*
X105221341Y-130035504D01*
X105226787Y-129987171D01*
X105241538Y-129856252D01*
X105241538Y-129856245D01*
X105221342Y-129676999D01*
X105221341Y-129676994D01*
X105217141Y-129664990D01*
X105161762Y-129506727D01*
X105158819Y-129502044D01*
X105098516Y-129406072D01*
X105065789Y-129353987D01*
X104938235Y-129226433D01*
X104938233Y-129226431D01*
X104788556Y-129132382D01*
X104742266Y-129080048D01*
X104731618Y-129010994D01*
X104759993Y-128947146D01*
X104788558Y-128922395D01*
X104791279Y-128920686D01*
X104918833Y-128793132D01*
X104929439Y-128776252D01*
X113263805Y-128776252D01*
X113263805Y-128776259D01*
X113284000Y-128955505D01*
X113284001Y-128955510D01*
X113343581Y-129125779D01*
X113406826Y-129226432D01*
X113439554Y-129278518D01*
X113567108Y-129406072D01*
X113605877Y-129430432D01*
X113716653Y-129500038D01*
X113719848Y-129502045D01*
X113859928Y-129551061D01*
X113890115Y-129561624D01*
X113890120Y-129561625D01*
X114069366Y-129581821D01*
X114069370Y-129581821D01*
X114069374Y-129581821D01*
X114248619Y-129561625D01*
X114248622Y-129561624D01*
X114248625Y-129561624D01*
X114418892Y-129502045D01*
X114571632Y-129406072D01*
X114699186Y-129278518D01*
X114795159Y-129125778D01*
X114854738Y-128955511D01*
X114855681Y-128947146D01*
X114874935Y-128776259D01*
X114874935Y-128776252D01*
X114854739Y-128597006D01*
X114854738Y-128597001D01*
X114832312Y-128532912D01*
X114795159Y-128426734D01*
X114735614Y-128331968D01*
X116000839Y-128331968D01*
X116020625Y-128520224D01*
X116020626Y-128520227D01*
X116079117Y-128700245D01*
X116079120Y-128700252D01*
X116173766Y-128864184D01*
X116281175Y-128983473D01*
X116300428Y-129004856D01*
X116453564Y-129116116D01*
X116453569Y-129116119D01*
X116626491Y-129193110D01*
X116626496Y-129193112D01*
X116811653Y-129232468D01*
X116811654Y-129232468D01*
X117000943Y-129232468D01*
X117000945Y-129232468D01*
X117186102Y-129193112D01*
X117359029Y-129116119D01*
X117512170Y-129004856D01*
X117638832Y-128864184D01*
X117733478Y-128700252D01*
X117791973Y-128520224D01*
X117795886Y-128482985D01*
X117822468Y-128418371D01*
X117879764Y-128378384D01*
X117944985Y-128374654D01*
X117985538Y-128383274D01*
X117985541Y-128383274D01*
X118174828Y-128383274D01*
X118174830Y-128383274D01*
X118359987Y-128343918D01*
X118532914Y-128266925D01*
X118686055Y-128155662D01*
X118812717Y-128014990D01*
X118907363Y-127851058D01*
X118965858Y-127671030D01*
X118985644Y-127482774D01*
X118965858Y-127294518D01*
X118965768Y-127294241D01*
X129660867Y-127294241D01*
X129680653Y-127482497D01*
X129680654Y-127482500D01*
X129739145Y-127662518D01*
X129739148Y-127662525D01*
X129833794Y-127826457D01*
X129937241Y-127941346D01*
X129960456Y-127967129D01*
X130113592Y-128078389D01*
X130113597Y-128078392D01*
X130286519Y-128155383D01*
X130286524Y-128155385D01*
X130471681Y-128194741D01*
X130471682Y-128194741D01*
X130660971Y-128194741D01*
X130660973Y-128194741D01*
X130846130Y-128155385D01*
X131019057Y-128078392D01*
X131172198Y-127967129D01*
X131298860Y-127826457D01*
X131393506Y-127662525D01*
X131452001Y-127482497D01*
X131471787Y-127294241D01*
X131452001Y-127105985D01*
X131393506Y-126925957D01*
X131298860Y-126762025D01*
X131172198Y-126621353D01*
X131159179Y-126611894D01*
X131019061Y-126510092D01*
X131019056Y-126510089D01*
X130846134Y-126433098D01*
X130846129Y-126433096D01*
X130700328Y-126402106D01*
X130660973Y-126393741D01*
X130471681Y-126393741D01*
X130439224Y-126400639D01*
X130286524Y-126433096D01*
X130286519Y-126433098D01*
X130113597Y-126510089D01*
X130113592Y-126510092D01*
X129960456Y-126621352D01*
X129833793Y-126762026D01*
X129739148Y-126925956D01*
X129739145Y-126925963D01*
X129689600Y-127078448D01*
X129680653Y-127105985D01*
X129660867Y-127294241D01*
X118965768Y-127294241D01*
X118907363Y-127114490D01*
X118812717Y-126950558D01*
X118686055Y-126809886D01*
X118654766Y-126787153D01*
X118532918Y-126698625D01*
X118532913Y-126698622D01*
X118359991Y-126621631D01*
X118359986Y-126621629D01*
X118214185Y-126590639D01*
X118174830Y-126582274D01*
X117985538Y-126582274D01*
X117953081Y-126589172D01*
X117800381Y-126621629D01*
X117800376Y-126621631D01*
X117627454Y-126698622D01*
X117627449Y-126698625D01*
X117474313Y-126809885D01*
X117347650Y-126950559D01*
X117253005Y-127114489D01*
X117253002Y-127114496D01*
X117194600Y-127294241D01*
X117194510Y-127294518D01*
X117190596Y-127331760D01*
X117164010Y-127396375D01*
X117106712Y-127436358D01*
X117041494Y-127440086D01*
X117000945Y-127431468D01*
X116811653Y-127431468D01*
X116788647Y-127436358D01*
X116626496Y-127470823D01*
X116626491Y-127470825D01*
X116453569Y-127547816D01*
X116453564Y-127547819D01*
X116300428Y-127659079D01*
X116173765Y-127799753D01*
X116079120Y-127963683D01*
X116079117Y-127963690D01*
X116020626Y-128143708D01*
X116020625Y-128143712D01*
X116000839Y-128331968D01*
X114735614Y-128331968D01*
X114699186Y-128273994D01*
X114571632Y-128146440D01*
X114558574Y-128138235D01*
X114418893Y-128050467D01*
X114248624Y-127990887D01*
X114248619Y-127990886D01*
X114069374Y-127970691D01*
X114069366Y-127970691D01*
X113890120Y-127990886D01*
X113890115Y-127990887D01*
X113719846Y-128050467D01*
X113567107Y-128146440D01*
X113439554Y-128273993D01*
X113343581Y-128426732D01*
X113284001Y-128597001D01*
X113284000Y-128597006D01*
X113263805Y-128776252D01*
X104929439Y-128776252D01*
X105014806Y-128640392D01*
X105074385Y-128470125D01*
X105077633Y-128441297D01*
X105094582Y-128290873D01*
X105094582Y-128290866D01*
X105074386Y-128111620D01*
X105074385Y-128111615D01*
X105027128Y-127976563D01*
X105014806Y-127941348D01*
X104918833Y-127788608D01*
X104918832Y-127788607D01*
X104915158Y-127784000D01*
X104888749Y-127719313D01*
X104901506Y-127650618D01*
X104924427Y-127619003D01*
X104927013Y-127616418D01*
X105022986Y-127463678D01*
X105077227Y-127308665D01*
X109427534Y-127308665D01*
X109447320Y-127496921D01*
X109447321Y-127496924D01*
X109505812Y-127676942D01*
X109505815Y-127676949D01*
X109600461Y-127840881D01*
X109690922Y-127941348D01*
X109727123Y-127981553D01*
X109880259Y-128092813D01*
X109880264Y-128092816D01*
X110053186Y-128169807D01*
X110053191Y-128169809D01*
X110238348Y-128209165D01*
X110238349Y-128209165D01*
X110427638Y-128209165D01*
X110427640Y-128209165D01*
X110612797Y-128169809D01*
X110785724Y-128092816D01*
X110938865Y-127981553D01*
X111065527Y-127840881D01*
X111160173Y-127676949D01*
X111218668Y-127496921D01*
X111238454Y-127308665D01*
X111218668Y-127120409D01*
X111160173Y-126940381D01*
X111065527Y-126776449D01*
X110938865Y-126635777D01*
X110919395Y-126621631D01*
X110785728Y-126524516D01*
X110785723Y-126524513D01*
X110612801Y-126447522D01*
X110612796Y-126447520D01*
X110466995Y-126416530D01*
X110427640Y-126408165D01*
X110238348Y-126408165D01*
X110205891Y-126415063D01*
X110053191Y-126447520D01*
X110053186Y-126447522D01*
X109880264Y-126524513D01*
X109880259Y-126524516D01*
X109727123Y-126635776D01*
X109600460Y-126776450D01*
X109505815Y-126940380D01*
X109505812Y-126940387D01*
X109449243Y-127114490D01*
X109447320Y-127120409D01*
X109427534Y-127308665D01*
X105077227Y-127308665D01*
X105082565Y-127293411D01*
X105100225Y-127136672D01*
X105102762Y-127114159D01*
X105102762Y-127114152D01*
X105082566Y-126934906D01*
X105082565Y-126934901D01*
X105038820Y-126809885D01*
X105022986Y-126764634D01*
X105021347Y-126762026D01*
X104981508Y-126698622D01*
X104927013Y-126611894D01*
X104799459Y-126484340D01*
X104740862Y-126447521D01*
X104646720Y-126388367D01*
X104476451Y-126328787D01*
X104476446Y-126328786D01*
X104297201Y-126308591D01*
X104297193Y-126308591D01*
X104117947Y-126328786D01*
X104117942Y-126328787D01*
X104015546Y-126364618D01*
X103945767Y-126368179D01*
X103885140Y-126333450D01*
X103869597Y-126313548D01*
X103851589Y-126284888D01*
X103724035Y-126157334D01*
X103621884Y-126093148D01*
X103571296Y-126061361D01*
X103401027Y-126001781D01*
X103401022Y-126001780D01*
X103221777Y-125981585D01*
X103221769Y-125981585D01*
X103042523Y-126001780D01*
X103042518Y-126001781D01*
X102872249Y-126061361D01*
X102719510Y-126157334D01*
X102591957Y-126284887D01*
X102495984Y-126437626D01*
X102436404Y-126607895D01*
X102436403Y-126607900D01*
X102416208Y-126787146D01*
X91156849Y-126787146D01*
X91115877Y-126703399D01*
X91115397Y-126702405D01*
X91113590Y-126698625D01*
X91037732Y-126539899D01*
X91037131Y-126538623D01*
X91011942Y-126484340D01*
X90966865Y-126387198D01*
X90965888Y-126385037D01*
X90865686Y-126157334D01*
X90838847Y-126096345D01*
X90837494Y-126093148D01*
X90724426Y-125815364D01*
X90722964Y-125811598D01*
X90663202Y-125649879D01*
X90626248Y-125549879D01*
X90624656Y-125545296D01*
X90597422Y-125461619D01*
X90596367Y-125458379D01*
X125487867Y-125458379D01*
X125507653Y-125646635D01*
X125507654Y-125646638D01*
X125566145Y-125826656D01*
X125566148Y-125826663D01*
X125660794Y-125990595D01*
X125756012Y-126096345D01*
X125787456Y-126131267D01*
X125940592Y-126242527D01*
X125940597Y-126242530D01*
X126113519Y-126319521D01*
X126113524Y-126319523D01*
X126298681Y-126358879D01*
X126298682Y-126358879D01*
X126487971Y-126358879D01*
X126487973Y-126358879D01*
X126673130Y-126319523D01*
X126846057Y-126242530D01*
X126999198Y-126131267D01*
X127125860Y-125990595D01*
X127220506Y-125826663D01*
X127279001Y-125646635D01*
X127298787Y-125458379D01*
X127279001Y-125270123D01*
X127220506Y-125090095D01*
X127125860Y-124926163D01*
X126999198Y-124785491D01*
X126999197Y-124785490D01*
X126846061Y-124674230D01*
X126846056Y-124674227D01*
X126673134Y-124597236D01*
X126673129Y-124597234D01*
X126527328Y-124566244D01*
X126487973Y-124557879D01*
X126298681Y-124557879D01*
X126266224Y-124564777D01*
X126113524Y-124597234D01*
X126113519Y-124597236D01*
X125940597Y-124674227D01*
X125940592Y-124674230D01*
X125787456Y-124785490D01*
X125660793Y-124926164D01*
X125566148Y-125090094D01*
X125566145Y-125090101D01*
X125507654Y-125270119D01*
X125507653Y-125270123D01*
X125487867Y-125458379D01*
X90596367Y-125458379D01*
X90544280Y-125298340D01*
X90542632Y-125292843D01*
X90478353Y-125058701D01*
X90476749Y-125052163D01*
X90426752Y-124821367D01*
X90425383Y-124813964D01*
X90389291Y-124579252D01*
X90388352Y-124571548D01*
X90366398Y-124327192D01*
X90365953Y-124319654D01*
X90358521Y-124059826D01*
X90358500Y-124053609D01*
X90362609Y-123864283D01*
X114033007Y-123864283D01*
X114052793Y-124052539D01*
X114052794Y-124052542D01*
X114111285Y-124232560D01*
X114111288Y-124232567D01*
X114205934Y-124396499D01*
X114305332Y-124506891D01*
X114332596Y-124537171D01*
X114485732Y-124648431D01*
X114485737Y-124648434D01*
X114658659Y-124725425D01*
X114658664Y-124725427D01*
X114843821Y-124764783D01*
X114843822Y-124764783D01*
X115033111Y-124764783D01*
X115033113Y-124764783D01*
X115218270Y-124725427D01*
X115391197Y-124648434D01*
X115544338Y-124537171D01*
X115671000Y-124396499D01*
X115765646Y-124232567D01*
X115824141Y-124052539D01*
X115843927Y-123864283D01*
X115824141Y-123676027D01*
X115765646Y-123495999D01*
X115671000Y-123332067D01*
X115544338Y-123191395D01*
X115544337Y-123191394D01*
X115391201Y-123080134D01*
X115391196Y-123080131D01*
X115218274Y-123003140D01*
X115218269Y-123003138D01*
X115072468Y-122972148D01*
X115033113Y-122963783D01*
X114843821Y-122963783D01*
X114811364Y-122970681D01*
X114658664Y-123003138D01*
X114658659Y-123003140D01*
X114485737Y-123080131D01*
X114485732Y-123080134D01*
X114332596Y-123191394D01*
X114205933Y-123332068D01*
X114111288Y-123495998D01*
X114111285Y-123496005D01*
X114056107Y-123665827D01*
X114052793Y-123676027D01*
X114033007Y-123864283D01*
X90362609Y-123864283D01*
X90363258Y-123834354D01*
X90363464Y-123829420D01*
X90378249Y-123591366D01*
X90378600Y-123586994D01*
X90404056Y-123328232D01*
X90404365Y-123325433D01*
X90421163Y-123188587D01*
X90421359Y-123187078D01*
X90441026Y-123044226D01*
X90441262Y-123042600D01*
X90447244Y-123003138D01*
X90463749Y-122894254D01*
X90463947Y-122893003D01*
X90489299Y-122738855D01*
X90489471Y-122737842D01*
X90517641Y-122578144D01*
X90517864Y-122576926D01*
X90548713Y-122412355D01*
X90549017Y-122410796D01*
X90618975Y-122065173D01*
X90619396Y-122063178D01*
X90638829Y-121974790D01*
X90699604Y-121698357D01*
X90699933Y-121696914D01*
X90789617Y-121314996D01*
X90789950Y-121313620D01*
X90888109Y-120917358D01*
X90888353Y-120916395D01*
X90993989Y-120508403D01*
X90994194Y-120507628D01*
X91105900Y-120091842D01*
X91106199Y-120090753D01*
X91343277Y-119246761D01*
X91343660Y-119245431D01*
X91353788Y-119210944D01*
X91551394Y-118538056D01*
X100109006Y-118538056D01*
X100128792Y-118726312D01*
X100128793Y-118726315D01*
X100187284Y-118906333D01*
X100187287Y-118906340D01*
X100281933Y-119070272D01*
X100397083Y-119198159D01*
X100408595Y-119210944D01*
X100561731Y-119322204D01*
X100561736Y-119322207D01*
X100734658Y-119399198D01*
X100734663Y-119399200D01*
X100919820Y-119438556D01*
X100919821Y-119438556D01*
X101109110Y-119438556D01*
X101109112Y-119438556D01*
X101294269Y-119399200D01*
X101467196Y-119322207D01*
X101620337Y-119210944D01*
X101746999Y-119070272D01*
X101841645Y-118906340D01*
X101900140Y-118726312D01*
X101906485Y-118665945D01*
X116500109Y-118665945D01*
X116519895Y-118854201D01*
X116519896Y-118854204D01*
X116578387Y-119034222D01*
X116578390Y-119034229D01*
X116673036Y-119198161D01*
X116716796Y-119246761D01*
X116799698Y-119338833D01*
X116952834Y-119450093D01*
X116952839Y-119450096D01*
X117125761Y-119527087D01*
X117125766Y-119527089D01*
X117310923Y-119566445D01*
X117310924Y-119566445D01*
X117500213Y-119566445D01*
X117500215Y-119566445D01*
X117685372Y-119527089D01*
X117858299Y-119450096D01*
X118011440Y-119338833D01*
X118138102Y-119198161D01*
X118219901Y-119056480D01*
X122828893Y-119056480D01*
X122848679Y-119244736D01*
X122848680Y-119244739D01*
X122907171Y-119424757D01*
X122907174Y-119424764D01*
X123001820Y-119588696D01*
X123084842Y-119680901D01*
X123128482Y-119729368D01*
X123281618Y-119840628D01*
X123281623Y-119840631D01*
X123454545Y-119917622D01*
X123454550Y-119917624D01*
X123639707Y-119956980D01*
X123639708Y-119956980D01*
X123828997Y-119956980D01*
X123828999Y-119956980D01*
X124014156Y-119917624D01*
X124187083Y-119840631D01*
X124340224Y-119729368D01*
X124466886Y-119588696D01*
X124561532Y-119424764D01*
X124620027Y-119244736D01*
X124639813Y-119056480D01*
X124620027Y-118868224D01*
X124565465Y-118700303D01*
X124561534Y-118688202D01*
X124561533Y-118688201D01*
X124561532Y-118688196D01*
X124466886Y-118524264D01*
X124340224Y-118383592D01*
X124340223Y-118383591D01*
X124187087Y-118272331D01*
X124187082Y-118272328D01*
X124014160Y-118195337D01*
X124014155Y-118195335D01*
X123868354Y-118164345D01*
X123828999Y-118155980D01*
X123639707Y-118155980D01*
X123607250Y-118162878D01*
X123454550Y-118195335D01*
X123454545Y-118195337D01*
X123281623Y-118272328D01*
X123281618Y-118272331D01*
X123128482Y-118383591D01*
X123001819Y-118524265D01*
X122907174Y-118688195D01*
X122907171Y-118688202D01*
X122853235Y-118854201D01*
X122848679Y-118868224D01*
X122828893Y-119056480D01*
X118219901Y-119056480D01*
X118232748Y-119034229D01*
X118291243Y-118854201D01*
X118311029Y-118665945D01*
X118291243Y-118477689D01*
X118232748Y-118297661D01*
X118138102Y-118133729D01*
X118097677Y-118088833D01*
X124636505Y-118088833D01*
X124656291Y-118277089D01*
X124656292Y-118277092D01*
X124714783Y-118457110D01*
X124714786Y-118457117D01*
X124809432Y-118621049D01*
X124904212Y-118726312D01*
X124936094Y-118761721D01*
X125089230Y-118872981D01*
X125089235Y-118872984D01*
X125262157Y-118949975D01*
X125262162Y-118949977D01*
X125447319Y-118989333D01*
X125447320Y-118989333D01*
X125636609Y-118989333D01*
X125636611Y-118989333D01*
X125821768Y-118949977D01*
X125994695Y-118872984D01*
X126147836Y-118761721D01*
X126274498Y-118621049D01*
X126369144Y-118457117D01*
X126427639Y-118277089D01*
X126447425Y-118088833D01*
X126427639Y-117900577D01*
X126369144Y-117720549D01*
X126274498Y-117556617D01*
X126147836Y-117415945D01*
X126147835Y-117415944D01*
X125994699Y-117304684D01*
X125994694Y-117304681D01*
X125821772Y-117227690D01*
X125821767Y-117227688D01*
X125675966Y-117196698D01*
X125636611Y-117188333D01*
X125447319Y-117188333D01*
X125414862Y-117195231D01*
X125262162Y-117227688D01*
X125262157Y-117227690D01*
X125089235Y-117304681D01*
X125089230Y-117304684D01*
X124936094Y-117415944D01*
X124809431Y-117556618D01*
X124714786Y-117720548D01*
X124714783Y-117720555D01*
X124687410Y-117804802D01*
X124656291Y-117900577D01*
X124636505Y-118088833D01*
X118097677Y-118088833D01*
X118011440Y-117993057D01*
X118011439Y-117993056D01*
X117858303Y-117881796D01*
X117858298Y-117881793D01*
X117685376Y-117804802D01*
X117685371Y-117804800D01*
X117539570Y-117773810D01*
X117500215Y-117765445D01*
X117310923Y-117765445D01*
X117278466Y-117772343D01*
X117125766Y-117804800D01*
X117125761Y-117804802D01*
X116952839Y-117881793D01*
X116952834Y-117881796D01*
X116799698Y-117993056D01*
X116673035Y-118133730D01*
X116578390Y-118297660D01*
X116578387Y-118297667D01*
X116526579Y-118457117D01*
X116519895Y-118477689D01*
X116500109Y-118665945D01*
X101906485Y-118665945D01*
X101919926Y-118538056D01*
X101900140Y-118349800D01*
X101841645Y-118169772D01*
X101746999Y-118005840D01*
X101620337Y-117865168D01*
X101620336Y-117865167D01*
X101467200Y-117753907D01*
X101467195Y-117753904D01*
X101294273Y-117676913D01*
X101294268Y-117676911D01*
X101148467Y-117645921D01*
X101109112Y-117637556D01*
X100919820Y-117637556D01*
X100887363Y-117644454D01*
X100734663Y-117676911D01*
X100734658Y-117676913D01*
X100561736Y-117753904D01*
X100561731Y-117753907D01*
X100408595Y-117865167D01*
X100281932Y-118005841D01*
X100187287Y-118169771D01*
X100187284Y-118169778D01*
X100128793Y-118349796D01*
X100128792Y-118349800D01*
X100109006Y-118538056D01*
X91551394Y-118538056D01*
X91589669Y-118407722D01*
X91589786Y-118407328D01*
X91712692Y-117998577D01*
X91833649Y-117600505D01*
X91833698Y-117600519D01*
X91833706Y-117600316D01*
X91951164Y-117216017D01*
X91963058Y-117177128D01*
X92063888Y-116847430D01*
X92114140Y-116682118D01*
X92170387Y-116497084D01*
X92269470Y-116166278D01*
X92359940Y-115856198D01*
X92440712Y-115567317D01*
X92510864Y-115299403D01*
X92569618Y-115051411D01*
X92616375Y-114821372D01*
X92650745Y-114606286D01*
X92672565Y-114402110D01*
X92681869Y-114203978D01*
X92678871Y-114006587D01*
X92663921Y-113804580D01*
X92637505Y-113592927D01*
X92600174Y-113367308D01*
X92552551Y-113124331D01*
X92495312Y-112861493D01*
X92429188Y-112577092D01*
X92393036Y-112426467D01*
X92354954Y-112270120D01*
X92315044Y-112108014D01*
X92273411Y-111940150D01*
X92273392Y-111940072D01*
X92273392Y-111940071D01*
X92185411Y-111587265D01*
X92185411Y-111587259D01*
X92185410Y-111587260D01*
X92091835Y-111211957D01*
X92091787Y-111211763D01*
X91993576Y-110815152D01*
X91993494Y-110814817D01*
X91982382Y-110769399D01*
X91891544Y-110398127D01*
X91786682Y-109962510D01*
X91679916Y-109510253D01*
X91572174Y-109043578D01*
X91464458Y-108565309D01*
X91464302Y-108564607D01*
X91357567Y-108077543D01*
X91357322Y-108076397D01*
X91149903Y-107085154D01*
X91149558Y-107083449D01*
X91008867Y-106360652D01*
X90955828Y-106088164D01*
X90955597Y-106086936D01*
X90865907Y-105595083D01*
X90865756Y-105594237D01*
X90781662Y-105108997D01*
X90781515Y-105108119D01*
X90703791Y-104632565D01*
X90703587Y-104631275D01*
X90632789Y-104167451D01*
X90632594Y-104166119D01*
X90569211Y-103715792D01*
X90569024Y-103714401D01*
X90513520Y-103279375D01*
X90513334Y-103277830D01*
X90469444Y-102889241D01*
X102132363Y-102889241D01*
X102151051Y-103067046D01*
X102151052Y-103067048D01*
X102206295Y-103237070D01*
X102206298Y-103237076D01*
X102295689Y-103391906D01*
X102337360Y-103438187D01*
X102415312Y-103524762D01*
X102415315Y-103524764D01*
X102415318Y-103524767D01*
X102559955Y-103629853D01*
X102723281Y-103702570D01*
X102898157Y-103739741D01*
X102898158Y-103739741D01*
X103076937Y-103739741D01*
X103076939Y-103739741D01*
X103251815Y-103702570D01*
X103415141Y-103629853D01*
X103559778Y-103524767D01*
X103679407Y-103391906D01*
X103768798Y-103237076D01*
X103824045Y-103067044D01*
X103841474Y-102901215D01*
X116621720Y-102901215D01*
X116640408Y-103079020D01*
X116640409Y-103079022D01*
X116695652Y-103249044D01*
X116695655Y-103249050D01*
X116785046Y-103403880D01*
X116818831Y-103441402D01*
X116904669Y-103536736D01*
X116904672Y-103536738D01*
X116904675Y-103536741D01*
X117049312Y-103641827D01*
X117212638Y-103714544D01*
X117387514Y-103751715D01*
X117387515Y-103751715D01*
X117566294Y-103751715D01*
X117566296Y-103751715D01*
X117741172Y-103714544D01*
X117904498Y-103641827D01*
X118049135Y-103536741D01*
X118059917Y-103524767D01*
X118075053Y-103507956D01*
X118168764Y-103403880D01*
X118258155Y-103249050D01*
X118313402Y-103079018D01*
X118332090Y-102901215D01*
X118313402Y-102723412D01*
X118258155Y-102553380D01*
X118168764Y-102398550D01*
X118086440Y-102307120D01*
X118049140Y-102265693D01*
X118049137Y-102265691D01*
X118049136Y-102265690D01*
X118049135Y-102265689D01*
X117904498Y-102160603D01*
X117741172Y-102087886D01*
X117741170Y-102087885D01*
X117613499Y-102060748D01*
X117566296Y-102050715D01*
X117387514Y-102050715D01*
X117356859Y-102057230D01*
X117212638Y-102087885D01*
X117212633Y-102087887D01*
X117049313Y-102160602D01*
X116904673Y-102265690D01*
X116785045Y-102398551D01*
X116695655Y-102553379D01*
X116695652Y-102553385D01*
X116640409Y-102723407D01*
X116640408Y-102723409D01*
X116621720Y-102901215D01*
X103841474Y-102901215D01*
X103842733Y-102889241D01*
X103824045Y-102711438D01*
X103796421Y-102626422D01*
X103768800Y-102541411D01*
X103768797Y-102541405D01*
X103679407Y-102386576D01*
X103632551Y-102334537D01*
X103559783Y-102253719D01*
X103559780Y-102253717D01*
X103559779Y-102253716D01*
X103559778Y-102253715D01*
X103415141Y-102148629D01*
X103251815Y-102075912D01*
X103251813Y-102075911D01*
X103124142Y-102048774D01*
X103076939Y-102038741D01*
X102898157Y-102038741D01*
X102867502Y-102045256D01*
X102723281Y-102075911D01*
X102723276Y-102075913D01*
X102559956Y-102148628D01*
X102415316Y-102253716D01*
X102295688Y-102386577D01*
X102206298Y-102541405D01*
X102206295Y-102541411D01*
X102151052Y-102711433D01*
X102151051Y-102711435D01*
X102132363Y-102889241D01*
X90469444Y-102889241D01*
X90466068Y-102859347D01*
X90465882Y-102857562D01*
X90427164Y-102456793D01*
X90426972Y-102454601D01*
X90415402Y-102307120D01*
X90396940Y-102071775D01*
X90396772Y-102069322D01*
X90395687Y-102050715D01*
X90375464Y-101704009D01*
X90375338Y-101701319D01*
X90373395Y-101647797D01*
X90362684Y-101352783D01*
X90362615Y-101349926D01*
X90358945Y-101056100D01*
X97964068Y-101056100D01*
X97964068Y-101056107D01*
X97984263Y-101235353D01*
X97984264Y-101235358D01*
X98043844Y-101405627D01*
X98083382Y-101468551D01*
X98139817Y-101558366D01*
X98267371Y-101685920D01*
X98420111Y-101781893D01*
X98537411Y-101822938D01*
X98590378Y-101841472D01*
X98590383Y-101841473D01*
X98769629Y-101861669D01*
X98769633Y-101861669D01*
X98769637Y-101861669D01*
X98948881Y-101841473D01*
X98948881Y-101841472D01*
X98948888Y-101841472D01*
X99001854Y-101822937D01*
X99071629Y-101819375D01*
X99132257Y-101854103D01*
X99147800Y-101874006D01*
X99208625Y-101970808D01*
X99208627Y-101970810D01*
X99336181Y-102098364D01*
X99488921Y-102194337D01*
X99658614Y-102253715D01*
X99659188Y-102253916D01*
X99659193Y-102253917D01*
X99838439Y-102274113D01*
X99838443Y-102274113D01*
X99838447Y-102274113D01*
X100017692Y-102253917D01*
X100017695Y-102253916D01*
X100017698Y-102253916D01*
X100187965Y-102194337D01*
X100340705Y-102098364D01*
X100468259Y-101970810D01*
X100564232Y-101818070D01*
X100623811Y-101647803D01*
X100623812Y-101647797D01*
X100644008Y-101468551D01*
X100644008Y-101468544D01*
X100623812Y-101289298D01*
X100623811Y-101289293D01*
X100604938Y-101235358D01*
X100564232Y-101119026D01*
X100468259Y-100966286D01*
X100429313Y-100927340D01*
X102153956Y-100927340D01*
X102153956Y-100927347D01*
X102174151Y-101106593D01*
X102174152Y-101106598D01*
X102233732Y-101276867D01*
X102281434Y-101352783D01*
X102329705Y-101429606D01*
X102457259Y-101557160D01*
X102500683Y-101584445D01*
X102601514Y-101647802D01*
X102609999Y-101653133D01*
X102703696Y-101685919D01*
X102780266Y-101712712D01*
X102780271Y-101712713D01*
X102959517Y-101732909D01*
X102959521Y-101732909D01*
X102959525Y-101732909D01*
X103138770Y-101712713D01*
X103138773Y-101712712D01*
X103138776Y-101712712D01*
X103309043Y-101653133D01*
X103461783Y-101557160D01*
X103589337Y-101429606D01*
X103685310Y-101276866D01*
X103744889Y-101106599D01*
X103750578Y-101056107D01*
X103765086Y-100927347D01*
X103765086Y-100927340D01*
X103744890Y-100748094D01*
X103744889Y-100748089D01*
X103685309Y-100577820D01*
X103646103Y-100515424D01*
X103589337Y-100425082D01*
X103461783Y-100297528D01*
X103419144Y-100270736D01*
X103309044Y-100201555D01*
X103138775Y-100141975D01*
X103138770Y-100141974D01*
X102959525Y-100121779D01*
X102959517Y-100121779D01*
X102780271Y-100141974D01*
X102780266Y-100141975D01*
X102609997Y-100201555D01*
X102457258Y-100297528D01*
X102329705Y-100425081D01*
X102233732Y-100577820D01*
X102174152Y-100748089D01*
X102174151Y-100748094D01*
X102153956Y-100927340D01*
X100429313Y-100927340D01*
X100340705Y-100838732D01*
X100187966Y-100742759D01*
X100017697Y-100683179D01*
X100017692Y-100683178D01*
X99838447Y-100662983D01*
X99838439Y-100662983D01*
X99659193Y-100683178D01*
X99659185Y-100683180D01*
X99606221Y-100701713D01*
X99536442Y-100705274D01*
X99475815Y-100670545D01*
X99460273Y-100650643D01*
X99399449Y-100553842D01*
X99271895Y-100426288D01*
X99232719Y-100401672D01*
X99119156Y-100330315D01*
X98948887Y-100270735D01*
X98948882Y-100270734D01*
X98769637Y-100250539D01*
X98769629Y-100250539D01*
X98590383Y-100270734D01*
X98590378Y-100270735D01*
X98420109Y-100330315D01*
X98267370Y-100426288D01*
X98139817Y-100553841D01*
X98043844Y-100706580D01*
X97984264Y-100876849D01*
X97984263Y-100876854D01*
X97964068Y-101056100D01*
X90358945Y-101056100D01*
X90358451Y-101016564D01*
X90358451Y-101013575D01*
X90362232Y-100705377D01*
X90362307Y-100702380D01*
X90373477Y-100404767D01*
X90373633Y-100401672D01*
X90391929Y-100112811D01*
X90392170Y-100109661D01*
X90400142Y-100020360D01*
X90417347Y-99827627D01*
X90417653Y-99824630D01*
X90449469Y-99547763D01*
X90449844Y-99544820D01*
X90488099Y-99271535D01*
X90488537Y-99268656D01*
X90497952Y-99211295D01*
X90508626Y-99146261D01*
X98592687Y-99146261D01*
X98592687Y-99146268D01*
X98612882Y-99325514D01*
X98612883Y-99325519D01*
X98672463Y-99495788D01*
X98725918Y-99580860D01*
X98768436Y-99648527D01*
X98895990Y-99776081D01*
X99048730Y-99872054D01*
X99144325Y-99905504D01*
X99218997Y-99931633D01*
X99219002Y-99931634D01*
X99398248Y-99951830D01*
X99398252Y-99951830D01*
X99398256Y-99951830D01*
X99577501Y-99931634D01*
X99577504Y-99931633D01*
X99577507Y-99931633D01*
X99747774Y-99872054D01*
X99900514Y-99776081D01*
X100028068Y-99648527D01*
X100124041Y-99495787D01*
X100183620Y-99325520D01*
X100202715Y-99156047D01*
X100203817Y-99146268D01*
X100203817Y-99146261D01*
X100183621Y-98967015D01*
X100183620Y-98967010D01*
X100175874Y-98944873D01*
X100175873Y-98944869D01*
X100699681Y-98944869D01*
X100699681Y-98944876D01*
X100719876Y-99124122D01*
X100719877Y-99124127D01*
X100779457Y-99294396D01*
X100839872Y-99390545D01*
X100875430Y-99447135D01*
X101002984Y-99574689D01*
X101093326Y-99631455D01*
X101136059Y-99658306D01*
X101155724Y-99670662D01*
X101325991Y-99730241D01*
X101325996Y-99730242D01*
X101505242Y-99750438D01*
X101505246Y-99750438D01*
X101505250Y-99750438D01*
X101684495Y-99730242D01*
X101684498Y-99730241D01*
X101684501Y-99730241D01*
X101854768Y-99670662D01*
X102007508Y-99574689D01*
X102135062Y-99447135D01*
X102170622Y-99390541D01*
X115007895Y-99390541D01*
X115007895Y-99390548D01*
X115028090Y-99569794D01*
X115028091Y-99569799D01*
X115087671Y-99740068D01*
X115170603Y-99872053D01*
X115183644Y-99892807D01*
X115311198Y-100020361D01*
X115463938Y-100116334D01*
X115537213Y-100141974D01*
X115634205Y-100175913D01*
X115634210Y-100175914D01*
X115813456Y-100196110D01*
X115813460Y-100196110D01*
X115813464Y-100196110D01*
X115992709Y-100175914D01*
X115992712Y-100175913D01*
X115992715Y-100175913D01*
X116162982Y-100116334D01*
X116315722Y-100020361D01*
X116443276Y-99892807D01*
X116539249Y-99740067D01*
X116598828Y-99569800D01*
X116601643Y-99544820D01*
X116619025Y-99390548D01*
X116619025Y-99390541D01*
X116598829Y-99211295D01*
X116598828Y-99211290D01*
X116579498Y-99156047D01*
X116579496Y-99156040D01*
X118486977Y-99156040D01*
X118486977Y-99156047D01*
X118507172Y-99335293D01*
X118507173Y-99335298D01*
X118566753Y-99505567D01*
X118593267Y-99547763D01*
X118662726Y-99658306D01*
X118790280Y-99785860D01*
X118943020Y-99881833D01*
X119010668Y-99905504D01*
X119113287Y-99941412D01*
X119113292Y-99941413D01*
X119292538Y-99961609D01*
X119292542Y-99961609D01*
X119292546Y-99961609D01*
X119471791Y-99941413D01*
X119471794Y-99941412D01*
X119471797Y-99941412D01*
X119642064Y-99881833D01*
X119794804Y-99785860D01*
X119922358Y-99658306D01*
X120018331Y-99505566D01*
X120077910Y-99335299D01*
X120079012Y-99325519D01*
X120098107Y-99156047D01*
X120098107Y-99156040D01*
X120077911Y-98976794D01*
X120077910Y-98976789D01*
X120018330Y-98806520D01*
X119922357Y-98653781D01*
X119794804Y-98526228D01*
X119642065Y-98430255D01*
X119471796Y-98370675D01*
X119471791Y-98370674D01*
X119292546Y-98350479D01*
X119292538Y-98350479D01*
X119113292Y-98370674D01*
X119113287Y-98370675D01*
X118943018Y-98430255D01*
X118790279Y-98526228D01*
X118662726Y-98653781D01*
X118566753Y-98806520D01*
X118507173Y-98976789D01*
X118507172Y-98976794D01*
X118486977Y-99156040D01*
X116579496Y-99156040D01*
X116539249Y-99041023D01*
X116443276Y-98888283D01*
X116315722Y-98760729D01*
X116253613Y-98721703D01*
X116162983Y-98664756D01*
X115992714Y-98605176D01*
X115992709Y-98605175D01*
X115813464Y-98584980D01*
X115813456Y-98584980D01*
X115634210Y-98605175D01*
X115634205Y-98605176D01*
X115463936Y-98664756D01*
X115311197Y-98760729D01*
X115183644Y-98888282D01*
X115087671Y-99041021D01*
X115028091Y-99211290D01*
X115028090Y-99211295D01*
X115007895Y-99390541D01*
X102170622Y-99390541D01*
X102231035Y-99294395D01*
X102290614Y-99124128D01*
X102299978Y-99041021D01*
X102310811Y-98944876D01*
X102310811Y-98944869D01*
X102290615Y-98765623D01*
X102290614Y-98765618D01*
X102251481Y-98653782D01*
X102231035Y-98595351D01*
X102224518Y-98584980D01*
X102187602Y-98526228D01*
X102135062Y-98442611D01*
X102007508Y-98315057D01*
X101974235Y-98294150D01*
X101854769Y-98219084D01*
X101684500Y-98159504D01*
X101684495Y-98159503D01*
X101505250Y-98139308D01*
X101505242Y-98139308D01*
X101325996Y-98159503D01*
X101325991Y-98159504D01*
X101155722Y-98219084D01*
X101002983Y-98315057D01*
X100875430Y-98442610D01*
X100779457Y-98595349D01*
X100719877Y-98765618D01*
X100719876Y-98765623D01*
X100699681Y-98944869D01*
X100175873Y-98944869D01*
X100124041Y-98796743D01*
X100028068Y-98644003D01*
X99900514Y-98516449D01*
X99783002Y-98442611D01*
X99747775Y-98420476D01*
X99577506Y-98360896D01*
X99577501Y-98360895D01*
X99398256Y-98340700D01*
X99398248Y-98340700D01*
X99219002Y-98360895D01*
X99218997Y-98360896D01*
X99048728Y-98420476D01*
X98895989Y-98516449D01*
X98768436Y-98644002D01*
X98672463Y-98796741D01*
X98612883Y-98967010D01*
X98612882Y-98967015D01*
X98592687Y-99146261D01*
X90508626Y-99146261D01*
X90533033Y-98997555D01*
X90533493Y-98994936D01*
X90583957Y-98725318D01*
X90584691Y-98721703D01*
X90703676Y-98178143D01*
X90704419Y-98174960D01*
X90772161Y-97901259D01*
X90772639Y-97899395D01*
X90846006Y-97621923D01*
X90846421Y-97620396D01*
X90925229Y-97338646D01*
X90925580Y-97337422D01*
X91009636Y-97050948D01*
X91009980Y-97049799D01*
X91099153Y-96758052D01*
X91099491Y-96756968D01*
X91193688Y-96459377D01*
X91194018Y-96458350D01*
X91226493Y-96358774D01*
X91293249Y-96154080D01*
X91293396Y-96153636D01*
X91397513Y-95842486D01*
X91397735Y-95841830D01*
X91506667Y-95523404D01*
X91506868Y-95522824D01*
X91560047Y-95370323D01*
X91620514Y-95196923D01*
X91738983Y-94862828D01*
X91862053Y-94520753D01*
X91989689Y-94170503D01*
X92085660Y-93910129D01*
X108095056Y-93910129D01*
X108095056Y-93910136D01*
X108115251Y-94089382D01*
X108115252Y-94089387D01*
X108174832Y-94259656D01*
X108216409Y-94325825D01*
X108270805Y-94412395D01*
X108398359Y-94539949D01*
X108551099Y-94635922D01*
X108721366Y-94695501D01*
X108721371Y-94695502D01*
X108900617Y-94715698D01*
X108900621Y-94715698D01*
X108900625Y-94715698D01*
X109079870Y-94695502D01*
X109079873Y-94695501D01*
X109079876Y-94695501D01*
X109250143Y-94635922D01*
X109402883Y-94539949D01*
X109530437Y-94412395D01*
X109536779Y-94402300D01*
X109589109Y-94356009D01*
X109658162Y-94345358D01*
X109707747Y-94363277D01*
X109800881Y-94421798D01*
X109971151Y-94481378D01*
X109971156Y-94481379D01*
X110150402Y-94501575D01*
X110150406Y-94501575D01*
X110150410Y-94501575D01*
X110329655Y-94481379D01*
X110329658Y-94481378D01*
X110329661Y-94481378D01*
X110499928Y-94421799D01*
X110652668Y-94325826D01*
X110780222Y-94198272D01*
X110876195Y-94045532D01*
X110935774Y-93875265D01*
X110952042Y-93730883D01*
X110955971Y-93696013D01*
X110955971Y-93696006D01*
X110935775Y-93516760D01*
X110935774Y-93516755D01*
X110911589Y-93447639D01*
X110876195Y-93346488D01*
X110780222Y-93193748D01*
X110652668Y-93066194D01*
X110499928Y-92970221D01*
X110360483Y-92921427D01*
X110303707Y-92880705D01*
X110277960Y-92815752D01*
X110278218Y-92790501D01*
X110285686Y-92724223D01*
X110285686Y-92724217D01*
X110265490Y-92544971D01*
X110265489Y-92544966D01*
X110205909Y-92374697D01*
X110166703Y-92312301D01*
X110109937Y-92221959D01*
X109982383Y-92094405D01*
X109829644Y-91998432D01*
X109659375Y-91938852D01*
X109659370Y-91938851D01*
X109480125Y-91918656D01*
X109480117Y-91918656D01*
X109300871Y-91938851D01*
X109300866Y-91938852D01*
X109130597Y-91998432D01*
X108977858Y-92094405D01*
X108850305Y-92221958D01*
X108754332Y-92374697D01*
X108694752Y-92544966D01*
X108694751Y-92544971D01*
X108674556Y-92724217D01*
X108674556Y-92724224D01*
X108694751Y-92903470D01*
X108694754Y-92903483D01*
X108725686Y-92991880D01*
X108729248Y-93061659D01*
X108694520Y-93122286D01*
X108649600Y-93149877D01*
X108551097Y-93184344D01*
X108398358Y-93280317D01*
X108270805Y-93407870D01*
X108174832Y-93560609D01*
X108115252Y-93730878D01*
X108115251Y-93730883D01*
X108095056Y-93910129D01*
X92085660Y-93910129D01*
X92121857Y-93811925D01*
X92258530Y-93444894D01*
X92399677Y-93069314D01*
X92545280Y-92685128D01*
X92695328Y-92292283D01*
X92740934Y-92173733D01*
X93527851Y-92173733D01*
X93527851Y-92173734D01*
X93548446Y-92409137D01*
X93548448Y-92409147D01*
X93609604Y-92637389D01*
X93609606Y-92637393D01*
X93609607Y-92637397D01*
X93681001Y-92790501D01*
X93709475Y-92851564D01*
X93709477Y-92851568D01*
X93803254Y-92985494D01*
X93845015Y-93045135D01*
X94012109Y-93212229D01*
X94108894Y-93279999D01*
X94205675Y-93347766D01*
X94205677Y-93347767D01*
X94205680Y-93347769D01*
X94419847Y-93447637D01*
X94648102Y-93508797D01*
X94836428Y-93525273D01*
X94883509Y-93529393D01*
X94883510Y-93529393D01*
X94883511Y-93529393D01*
X94922744Y-93525960D01*
X95118918Y-93508797D01*
X95347173Y-93447637D01*
X95561340Y-93347769D01*
X95754911Y-93212229D01*
X95922005Y-93045135D01*
X96057545Y-92851564D01*
X96157413Y-92637397D01*
X96218573Y-92409142D01*
X96239169Y-92173734D01*
X96218573Y-91938326D01*
X96157413Y-91710071D01*
X96057545Y-91495905D01*
X96052864Y-91489220D01*
X95955727Y-91350493D01*
X95933400Y-91284287D01*
X95950410Y-91216520D01*
X96001358Y-91168707D01*
X96046490Y-91155843D01*
X96070419Y-91153750D01*
X96298674Y-91092590D01*
X96512841Y-90992722D01*
X96706412Y-90857182D01*
X96873506Y-90690088D01*
X97009046Y-90496517D01*
X97108914Y-90282350D01*
X97170074Y-90054095D01*
X97190670Y-89818687D01*
X97170074Y-89583279D01*
X97108914Y-89355024D01*
X97009046Y-89140858D01*
X96907228Y-88995446D01*
X96884901Y-88929240D01*
X96901911Y-88861473D01*
X96952859Y-88813660D01*
X96997995Y-88800796D01*
X97021919Y-88798703D01*
X97250174Y-88737543D01*
X97464341Y-88637675D01*
X97657912Y-88502135D01*
X97825006Y-88335041D01*
X97960546Y-88141470D01*
X98060414Y-87927303D01*
X98121574Y-87699048D01*
X98142170Y-87463640D01*
X98121574Y-87228232D01*
X98060414Y-86999977D01*
X98008856Y-86889412D01*
X97998365Y-86820338D01*
X98026884Y-86756554D01*
X98085361Y-86718314D01*
X98124583Y-86713055D01*
X98266080Y-86716872D01*
X98405075Y-86680100D01*
X98405079Y-86680098D01*
X98528081Y-86605660D01*
X98625136Y-86499574D01*
X98653376Y-86446767D01*
X98653377Y-86446764D01*
X98896057Y-85846107D01*
X98049596Y-85504114D01*
X98138111Y-85415600D01*
X98203937Y-85301586D01*
X98238012Y-85174419D01*
X98238012Y-85042767D01*
X98237472Y-85040754D01*
X99083360Y-85382515D01*
X99083361Y-85382514D01*
X99326039Y-84781868D01*
X99342414Y-84724249D01*
X99346291Y-84580524D01*
X99309519Y-84441529D01*
X99309517Y-84441525D01*
X99235079Y-84318523D01*
X99128993Y-84221468D01*
X99076186Y-84193228D01*
X99076182Y-84193226D01*
X98475527Y-83950545D01*
X98475526Y-83950546D01*
X98133532Y-84797007D01*
X98045019Y-84708494D01*
X97931005Y-84642668D01*
X97803838Y-84608593D01*
X97672186Y-84608593D01*
X97670172Y-84609132D01*
X98011934Y-83763243D01*
X98011933Y-83763242D01*
X97411287Y-83520565D01*
X97353668Y-83504190D01*
X97209943Y-83500313D01*
X97070948Y-83537085D01*
X97070944Y-83537087D01*
X96947942Y-83611525D01*
X96850887Y-83717611D01*
X96822647Y-83770418D01*
X96822642Y-83770429D01*
X96579964Y-84371076D01*
X96579965Y-84371077D01*
X97426427Y-84713071D01*
X97337913Y-84801586D01*
X97272087Y-84915600D01*
X97238012Y-85042767D01*
X97238012Y-85174419D01*
X97238551Y-85176431D01*
X96392662Y-84834669D01*
X96392662Y-84834670D01*
X96149983Y-85435321D01*
X96133609Y-85492936D01*
X96129732Y-85636661D01*
X96166504Y-85775656D01*
X96166506Y-85775660D01*
X96240944Y-85898662D01*
X96342299Y-85991389D01*
X96378474Y-86051165D01*
X96376590Y-86121009D01*
X96337244Y-86178747D01*
X96311003Y-86195260D01*
X96108682Y-86289604D01*
X96108680Y-86289605D01*
X95915108Y-86425145D01*
X95748016Y-86592237D01*
X95612476Y-86785809D01*
X95612475Y-86785811D01*
X95512609Y-86999975D01*
X95512605Y-86999984D01*
X95451449Y-87228226D01*
X95451447Y-87228236D01*
X95430852Y-87463639D01*
X95430852Y-87463640D01*
X95451447Y-87699043D01*
X95451449Y-87699053D01*
X95512605Y-87927295D01*
X95512607Y-87927299D01*
X95512608Y-87927303D01*
X95612476Y-88141470D01*
X95612478Y-88141474D01*
X95714292Y-88286880D01*
X95736619Y-88353086D01*
X95719609Y-88420853D01*
X95668660Y-88468666D01*
X95623525Y-88481531D01*
X95599607Y-88483623D01*
X95599597Y-88483625D01*
X95371355Y-88544781D01*
X95371346Y-88544785D01*
X95157182Y-88644651D01*
X95157180Y-88644652D01*
X94963608Y-88780192D01*
X94796516Y-88947284D01*
X94660976Y-89140856D01*
X94660975Y-89140858D01*
X94561109Y-89355022D01*
X94561105Y-89355031D01*
X94499949Y-89583273D01*
X94499947Y-89583283D01*
X94479352Y-89818686D01*
X94479352Y-89818687D01*
X94499947Y-90054090D01*
X94499949Y-90054100D01*
X94561105Y-90282342D01*
X94561107Y-90282346D01*
X94561108Y-90282350D01*
X94660976Y-90496517D01*
X94660978Y-90496521D01*
X94762792Y-90641927D01*
X94785119Y-90708133D01*
X94768109Y-90775900D01*
X94717160Y-90823713D01*
X94672025Y-90836578D01*
X94648106Y-90838670D01*
X94648096Y-90838672D01*
X94419854Y-90899828D01*
X94419845Y-90899832D01*
X94205681Y-90999698D01*
X94205679Y-90999699D01*
X94012107Y-91135239D01*
X93845015Y-91302331D01*
X93709475Y-91495903D01*
X93709474Y-91495905D01*
X93609608Y-91710069D01*
X93609604Y-91710078D01*
X93548448Y-91938320D01*
X93548446Y-91938330D01*
X93527851Y-92173733D01*
X92740934Y-92173733D01*
X92849792Y-91890759D01*
X93008682Y-91480531D01*
X93171989Y-91061604D01*
X93339710Y-90633973D01*
X97495472Y-80236331D01*
X97497282Y-80232042D01*
X97525376Y-80168821D01*
X97529498Y-80160416D01*
X97560833Y-80102215D01*
X97565553Y-80094189D01*
X97579046Y-80073098D01*
X97600853Y-80039012D01*
X97606110Y-80031433D01*
X97645180Y-79979383D01*
X97650973Y-79972235D01*
X97693577Y-79923479D01*
X97699825Y-79916839D01*
X97745785Y-79871483D01*
X97752454Y-79865369D01*
X97801492Y-79823624D01*
X97808610Y-79818002D01*
X97860509Y-79780008D01*
X97867991Y-79774940D01*
X97922564Y-79740827D01*
X97930404Y-79736318D01*
X97987371Y-79706274D01*
X97995537Y-79702344D01*
X98054699Y-79676504D01*
X98063185Y-79673165D01*
X98116147Y-79654553D01*
X98124269Y-79651700D01*
X98133061Y-79648973D01*
X98195866Y-79632018D01*
X98204878Y-79629942D01*
X98269232Y-79617638D01*
X98278424Y-79616237D01*
X98344099Y-79608740D01*
X98353410Y-79608033D01*
X98416175Y-79605652D01*
X98422561Y-79605410D01*
X98427261Y-79605321D01*
X101184093Y-79605321D01*
X101186372Y-79605342D01*
G37*
%TD.AperFunction*%
%TD*%
M02*
