%TF.GenerationSoftware,KiCad,Pcbnew,8.0.5*%
%TF.CreationDate,2024-11-06T13:54:45-05:00*%
%TF.ProjectId,BadgeKittyv2,42616467-654b-4697-9474-7976322e6b69,rev?*%
%TF.SameCoordinates,Original*%
%TF.FileFunction,Soldermask,Top*%
%TF.FilePolarity,Negative*%
%FSLAX46Y46*%
G04 Gerber Fmt 4.6, Leading zero omitted, Abs format (unit mm)*
G04 Created by KiCad (PCBNEW 8.0.5) date 2024-11-06 13:54:45*
%MOMM*%
%LPD*%
G01*
G04 APERTURE LIST*
G04 Aperture macros list*
%AMRoundRect*
0 Rectangle with rounded corners*
0 $1 Rounding radius*
0 $2 $3 $4 $5 $6 $7 $8 $9 X,Y pos of 4 corners*
0 Add a 4 corners polygon primitive as box body*
4,1,4,$2,$3,$4,$5,$6,$7,$8,$9,$2,$3,0*
0 Add four circle primitives for the rounded corners*
1,1,$1+$1,$2,$3*
1,1,$1+$1,$4,$5*
1,1,$1+$1,$6,$7*
1,1,$1+$1,$8,$9*
0 Add four rect primitives between the rounded corners*
20,1,$1+$1,$2,$3,$4,$5,0*
20,1,$1+$1,$4,$5,$6,$7,0*
20,1,$1+$1,$6,$7,$8,$9,0*
20,1,$1+$1,$8,$9,$2,$3,0*%
%AMHorizOval*
0 Thick line with rounded ends*
0 $1 width*
0 $2 $3 position (X,Y) of the first rounded end (center of the circle)*
0 $4 $5 position (X,Y) of the second rounded end (center of the circle)*
0 Add line between two ends*
20,1,$1,$2,$3,$4,$5,0*
0 Add two circle primitives to create the rounded ends*
1,1,$1,$2,$3*
1,1,$1,$4,$5*%
%AMRotRect*
0 Rectangle, with rotation*
0 The origin of the aperture is its center*
0 $1 length*
0 $2 width*
0 $3 Rotation angle, in degrees counterclockwise*
0 Add horizontal line*
21,1,$1,$2,0,0,$3*%
G04 Aperture macros list end*
%ADD10R,0.700000X0.700000*%
%ADD11R,1.000000X0.599999*%
%ADD12RoundRect,0.102000X0.700000X-0.350000X0.700000X0.350000X-0.700000X0.350000X-0.700000X-0.350000X0*%
%ADD13RoundRect,0.102000X0.700000X-0.380000X0.700000X0.380000X-0.700000X0.380000X-0.700000X-0.380000X0*%
%ADD14RoundRect,0.102000X0.700000X-0.400000X0.700000X0.400000X-0.700000X0.400000X-0.700000X-0.400000X0*%
%ADD15O,1.804000X1.204000*%
%ADD16RoundRect,0.250000X-0.475000X0.250000X-0.475000X-0.250000X0.475000X-0.250000X0.475000X0.250000X0*%
%ADD17RoundRect,0.250000X-0.262500X-0.450000X0.262500X-0.450000X0.262500X0.450000X-0.262500X0.450000X0*%
%ADD18R,0.900000X0.800000*%
%ADD19RoundRect,0.250000X-0.450000X0.262500X-0.450000X-0.262500X0.450000X-0.262500X0.450000X0.262500X0*%
%ADD20C,2.000000*%
%ADD21R,0.558800X1.460500*%
%ADD22RoundRect,0.362500X0.362500X0.362500X-0.362500X0.362500X-0.362500X-0.362500X0.362500X-0.362500X0*%
%ADD23RoundRect,0.250000X0.450000X-0.262500X0.450000X0.262500X-0.450000X0.262500X-0.450000X-0.262500X0*%
%ADD24RoundRect,0.250000X0.262500X0.450000X-0.262500X0.450000X-0.262500X-0.450000X0.262500X-0.450000X0*%
%ADD25RoundRect,0.102000X-0.700000X-0.525000X0.700000X-0.525000X0.700000X0.525000X-0.700000X0.525000X0*%
%ADD26RoundRect,0.102000X-0.550000X-0.250000X0.550000X-0.250000X0.550000X0.250000X-0.550000X0.250000X0*%
%ADD27RoundRect,0.250000X0.250000X0.475000X-0.250000X0.475000X-0.250000X-0.475000X0.250000X-0.475000X0*%
%ADD28R,0.838200X0.355600*%
%ADD29RoundRect,0.250000X0.475000X-0.250000X0.475000X0.250000X-0.475000X0.250000X-0.475000X-0.250000X0*%
%ADD30R,0.800000X0.900000*%
%ADD31R,1.500000X1.000000*%
%ADD32RotRect,1.700000X1.700000X338.000000*%
%ADD33HorizOval,1.700000X0.000000X0.000000X0.000000X0.000000X0*%
%ADD34R,1.168400X1.803400*%
G04 APERTURE END LIST*
D10*
%TO.C,D1*%
X102300493Y-100591356D03*
X102300493Y-99491356D03*
X100470493Y-99491356D03*
X100470493Y-100591356D03*
%TD*%
D11*
%TO.C,U2*%
X104283533Y-125701492D03*
X104283533Y-126651493D03*
X104283533Y-127601491D03*
X107033533Y-127601491D03*
X107033533Y-125701492D03*
%TD*%
D10*
%TO.C,D2*%
X116585300Y-100479969D03*
X116585300Y-99379969D03*
X118415300Y-99379969D03*
X118415300Y-100479969D03*
%TD*%
D12*
%TO.C,J1*%
X132244032Y-127756843D03*
D13*
X132244032Y-125736843D03*
D14*
X132244032Y-124506843D03*
D12*
X132244032Y-126756843D03*
D13*
X132244032Y-128776843D03*
D14*
X132244032Y-130006843D03*
D15*
X132534032Y-131576843D03*
X136334032Y-131576843D03*
X132534032Y-122936843D03*
X136334032Y-122936843D03*
%TD*%
D16*
%TO.C,C4*%
X97349892Y-128203005D03*
X97349892Y-130103005D03*
%TD*%
D17*
%TO.C,R4*%
X121325465Y-122400053D03*
X123150465Y-122400053D03*
%TD*%
D18*
%TO.C,D4*%
X111884985Y-129800356D03*
X111884985Y-127700356D03*
%TD*%
D19*
%TO.C,R2*%
X127254629Y-124602045D03*
X127254629Y-126427045D03*
%TD*%
D20*
%TO.C,EAR2*%
X118754060Y-82000000D03*
%TD*%
D21*
%TO.C,U1*%
X124161485Y-124922820D03*
X122891485Y-124922820D03*
X121621485Y-124922820D03*
X120351485Y-124922820D03*
X120351485Y-130371120D03*
X121621485Y-130371120D03*
X122891485Y-130371120D03*
X124161485Y-130371120D03*
%TD*%
D22*
%TO.C,LS1*%
X117862173Y-125702559D03*
X113862173Y-125702559D03*
X117862173Y-129702559D03*
%TD*%
D23*
%TO.C,R1*%
X127225324Y-130201099D03*
X127225324Y-128376099D03*
%TD*%
D24*
%TO.C,R3*%
X110657503Y-125602546D03*
X108832503Y-125602546D03*
%TD*%
D25*
%TO.C,S1*%
X107674255Y-92867968D03*
X111274255Y-92867968D03*
X107674255Y-94317968D03*
X111274255Y-94317968D03*
D26*
X109474255Y-91892968D03*
%TD*%
D27*
%TO.C,C5*%
X107387851Y-129924068D03*
X105487851Y-129924068D03*
%TD*%
D28*
%TO.C,U3*%
X115916872Y-123909763D03*
X115916872Y-123259764D03*
X115916872Y-122609765D03*
X113834072Y-122609765D03*
X113834072Y-123909763D03*
%TD*%
D29*
%TO.C,C3*%
X109409822Y-130094695D03*
X109409822Y-128194695D03*
%TD*%
D20*
%TO.C,EAR1*%
X100021614Y-82000000D03*
%TD*%
D30*
%TO.C,D3*%
X98902416Y-126654069D03*
X101002416Y-126654069D03*
%TD*%
D20*
%TO.C,TAIL1*%
X139746526Y-115642953D03*
%TD*%
D16*
%TO.C,C2*%
X95150061Y-128220882D03*
X95150061Y-130120882D03*
%TD*%
D31*
%TO.C,JP1*%
X129697499Y-124090731D03*
X129697499Y-125390731D03*
%TD*%
D32*
%TO.C,PROG1*%
X97738012Y-85108593D03*
D33*
X96786511Y-87463640D03*
X95835011Y-89818687D03*
X94883510Y-92173734D03*
%TD*%
D34*
%TO.C,L1*%
X101423113Y-129691768D03*
X99670513Y-129691768D03*
%TD*%
M02*
