%TF.GenerationSoftware,KiCad,Pcbnew,8.0.5*%
%TF.CreationDate,2024-11-06T13:54:45-05:00*%
%TF.ProjectId,BadgeKittyv2,42616467-654b-4697-9474-7976322e6b69,rev?*%
%TF.SameCoordinates,Original*%
%TF.FileFunction,Copper,L4,Bot*%
%TF.FilePolarity,Positive*%
%FSLAX46Y46*%
G04 Gerber Fmt 4.6, Leading zero omitted, Abs format (unit mm)*
G04 Created by KiCad (PCBNEW 8.0.5) date 2024-11-06 13:54:45*
%MOMM*%
%LPD*%
G01*
G04 APERTURE LIST*
G04 Aperture macros list*
%AMHorizOval*
0 Thick line with rounded ends*
0 $1 width*
0 $2 $3 position (X,Y) of the first rounded end (center of the circle)*
0 $4 $5 position (X,Y) of the second rounded end (center of the circle)*
0 Add line between two ends*
20,1,$1,$2,$3,$4,$5,0*
0 Add two circle primitives to create the rounded ends*
1,1,$1,$2,$3*
1,1,$1,$4,$5*%
%AMRotRect*
0 Rectangle, with rotation*
0 The origin of the aperture is its center*
0 $1 length*
0 $2 width*
0 $3 Rotation angle, in degrees counterclockwise*
0 Add horizontal line*
21,1,$1,$2,0,0,$3*%
%AMFreePoly0*
4,1,6,1.000000,0.000000,0.500000,-0.750000,-0.500000,-0.750000,-0.500000,0.750000,0.500000,0.750000,1.000000,0.000000,1.000000,0.000000,$1*%
%AMFreePoly1*
4,1,6,0.500000,-0.750000,-0.650000,-0.750000,-0.150000,0.000000,-0.650000,0.750000,0.500000,0.750000,0.500000,-0.750000,0.500000,-0.750000,$1*%
G04 Aperture macros list end*
%TA.AperFunction,ComponentPad*%
%ADD10O,1.600000X1.000000*%
%TD*%
%TA.AperFunction,ComponentPad*%
%ADD11RotRect,1.700000X1.700000X338.000000*%
%TD*%
%TA.AperFunction,ComponentPad*%
%ADD12HorizOval,1.700000X0.000000X0.000000X0.000000X0.000000X0*%
%TD*%
%TA.AperFunction,SMDPad,CuDef*%
%ADD13FreePoly0,180.000000*%
%TD*%
%TA.AperFunction,SMDPad,CuDef*%
%ADD14FreePoly1,180.000000*%
%TD*%
%TA.AperFunction,SMDPad,CuDef*%
%ADD15FreePoly0,225.000000*%
%TD*%
%TA.AperFunction,SMDPad,CuDef*%
%ADD16FreePoly1,225.000000*%
%TD*%
%TA.AperFunction,SMDPad,CuDef*%
%ADD17C,17.800000*%
%TD*%
%TA.AperFunction,SMDPad,CuDef*%
%ADD18R,2.500000X5.100000*%
%TD*%
%TA.AperFunction,ViaPad*%
%ADD19C,0.800000*%
%TD*%
%TA.AperFunction,ViaPad*%
%ADD20C,0.600000*%
%TD*%
%TA.AperFunction,ViaPad*%
%ADD21C,0.700000*%
%TD*%
%TA.AperFunction,ViaPad*%
%ADD22C,0.550000*%
%TD*%
%TA.AperFunction,Conductor*%
%ADD23C,0.360000*%
%TD*%
%TA.AperFunction,Conductor*%
%ADD24C,0.550000*%
%TD*%
%TA.AperFunction,Conductor*%
%ADD25C,0.800000*%
%TD*%
%TA.AperFunction,Conductor*%
%ADD26C,0.650000*%
%TD*%
%TA.AperFunction,Conductor*%
%ADD27C,1.300000*%
%TD*%
%TA.AperFunction,Conductor*%
%ADD28C,0.250000*%
%TD*%
G04 APERTURE END LIST*
D10*
%TO.P,J1,SH1,SHIELD*%
%TO.N,GND*%
X132534032Y-131576843D03*
%TO.P,J1,SH2,SHIELD__1*%
X136334032Y-131576843D03*
%TO.P,J1,SH3,SHIELD__2*%
X132534032Y-122936843D03*
%TO.P,J1,SH4,SHIELD__3*%
X136334032Y-122936843D03*
%TD*%
D11*
%TO.P,PROG1,1,Pin_1*%
%TO.N,+5V*%
X97738012Y-85108593D03*
D12*
%TO.P,PROG1,2,Pin_2*%
%TO.N,/RST{slash}UPDI*%
X96786511Y-87463640D03*
%TO.P,PROG1,3,Pin_3*%
%TO.N,GND*%
X95835011Y-89818687D03*
%TO.P,PROG1,4,Pin_4*%
%TO.N,/PIN_2*%
X94883510Y-92173734D03*
%TD*%
D13*
%TO.P,JP2,1,A*%
%TO.N,GND*%
X119456431Y-85979596D03*
D14*
%TO.P,JP2,2,B*%
%TO.N,/PIN_2*%
X118006431Y-85979596D03*
%TD*%
D15*
%TO.P,JP3,1,A*%
%TO.N,GND*%
X137520236Y-118652073D03*
D16*
%TO.P,JP3,2,B*%
%TO.N,/PIN_3*%
X136494932Y-119677377D03*
%TD*%
D17*
%TO.P,BT1,N1*%
%TO.N,GND*%
X109834289Y-112089549D03*
D18*
%TO.P,BT1,P1*%
%TO.N,+BATT*%
X121284289Y-112089549D03*
%TO.P,BT1,P2*%
X98384289Y-112089549D03*
%TD*%
D19*
%TO.N,GND*%
X134249666Y-130291576D03*
X138381108Y-117735428D03*
D20*
X96780056Y-129145675D03*
D19*
X110332994Y-127308665D03*
X121179530Y-85034291D03*
X126393327Y-125458379D03*
X117405569Y-118665945D03*
X125708589Y-130355449D03*
X134310797Y-124138607D03*
D20*
X101505246Y-98944873D03*
X108900621Y-93910133D03*
X104435973Y-129856249D03*
X103221773Y-126787150D03*
X119292542Y-99156044D03*
X94477385Y-129162728D03*
X104297197Y-127114156D03*
X103810624Y-130646736D03*
D19*
X101014466Y-118538056D03*
D21*
X117476905Y-102901215D03*
D19*
X126251544Y-129302441D03*
D20*
X104289017Y-128290870D03*
D19*
X114938467Y-123864283D03*
D20*
X103277433Y-128095176D03*
D21*
X102987548Y-102889241D03*
D20*
X110150406Y-93696010D03*
D22*
%TO.N,+5V*%
X115598787Y-100419504D03*
D20*
X107105925Y-126639541D03*
X99874627Y-100274462D03*
X107468462Y-128628264D03*
X113493906Y-130484962D03*
D19*
X126553378Y-119615194D03*
X125113941Y-119585566D03*
D20*
X106112615Y-125672956D03*
X106097414Y-127588302D03*
%TO.N,Net-(D1-DO)*%
X102959521Y-100927344D03*
X115813460Y-99390545D03*
D19*
%TO.N,+BATT*%
X99055888Y-127830474D03*
D20*
%TO.N,/PIN_6*%
X99398252Y-99146265D03*
D19*
X123734353Y-119056480D03*
%TO.N,/PIN_7*%
X125541965Y-118088833D03*
D20*
X109480121Y-92724221D03*
D19*
%TO.N,/PIN_2*%
X116906299Y-128331968D03*
D20*
%TO.N,/RST{slash}UPDI*%
X99838443Y-101468548D03*
X98769633Y-101056104D03*
D19*
X118080184Y-127482774D03*
%TO.N,VBUS*%
X134249666Y-125649879D03*
D20*
X114069370Y-128776256D03*
D19*
X134347180Y-128516810D03*
%TO.N,/PIN_3*%
X130566327Y-127294241D03*
%TD*%
D23*
%TO.N,GND*%
X102987548Y-102889241D02*
X102987548Y-102846449D01*
X109834289Y-112089549D02*
X110946884Y-112089549D01*
D24*
X101014466Y-118538056D02*
X101035781Y-118580685D01*
D23*
X109834289Y-112089549D02*
X109834289Y-112148133D01*
D25*
X109834289Y-112089549D02*
X109834289Y-109629761D01*
D24*
X121179530Y-84937336D02*
X121058337Y-85058529D01*
X117405570Y-118665945D02*
X117426884Y-118687259D01*
X121082575Y-85034291D02*
X121179530Y-85034291D01*
D25*
X109834289Y-109629761D02*
X103093769Y-102889241D01*
D24*
X137520236Y-118596300D02*
X138381108Y-117735428D01*
X117405569Y-118665945D02*
X117405570Y-118665945D01*
D26*
X103093769Y-102889241D02*
X102987548Y-102889241D01*
D25*
X109834289Y-112089549D02*
X109834289Y-110543831D01*
D24*
X117405569Y-118665944D02*
X117405569Y-118665945D01*
X120137270Y-85979596D02*
X121082575Y-85034291D01*
D25*
X109834289Y-110543831D02*
X117476905Y-102901215D01*
X110829174Y-112089549D02*
X117405569Y-118665944D01*
D24*
X121179530Y-85034291D02*
X121179530Y-84937336D01*
D25*
X109834289Y-112089549D02*
X103385782Y-118538056D01*
X103385782Y-118538056D02*
X101014466Y-118538056D01*
D23*
X109834289Y-112089549D02*
X107566305Y-112089549D01*
D24*
X137520236Y-118652073D02*
X137520236Y-118596300D01*
X138381108Y-117735428D02*
X138407122Y-117865496D01*
X119456431Y-85979596D02*
X120137270Y-85979596D01*
D23*
%TO.N,Net-(D1-DO)*%
X115813460Y-99390545D02*
X115322085Y-98899170D01*
X104987695Y-98899170D02*
X102959521Y-100927344D01*
X115322085Y-98899170D02*
X104987695Y-98899170D01*
%TO.N,+BATT*%
X121284289Y-112627556D02*
X121773293Y-113116560D01*
D27*
X101023735Y-122246652D02*
X100971421Y-122246652D01*
X121284289Y-117085615D02*
X121284289Y-112089549D01*
X100971421Y-122246652D02*
X98384289Y-119659520D01*
D25*
X99100544Y-127830474D02*
X101023735Y-125907283D01*
D27*
X101023735Y-122246652D02*
X116123252Y-122246652D01*
D23*
X98384289Y-112089549D02*
X98384289Y-110789312D01*
D27*
X98384289Y-119659520D02*
X98384289Y-112089549D01*
X116123252Y-122246652D02*
X121284289Y-117085615D01*
D25*
X101023735Y-125907283D02*
X101023735Y-122246652D01*
X99055888Y-127830474D02*
X99100544Y-127830474D01*
D23*
%TO.N,/PIN_6*%
X118700581Y-95855146D02*
X102741431Y-95855146D01*
X124859506Y-117869475D02*
X124859506Y-102014071D01*
X124859506Y-102014071D02*
X118700581Y-95855146D01*
X123734353Y-119056480D02*
X123734353Y-118994628D01*
X99398252Y-99146265D02*
X99463079Y-99146265D01*
X99398252Y-99198325D02*
X99398252Y-99146265D01*
X123734353Y-118994628D02*
X124859506Y-117869475D01*
X102741431Y-95855146D02*
X99398252Y-99198325D01*
%TO.N,/PIN_7*%
X116660218Y-92724221D02*
X109480121Y-92724221D01*
X125541965Y-101605968D02*
X116660218Y-92724221D01*
X125541965Y-118088833D02*
X125541965Y-101605968D01*
D28*
%TO.N,/PIN_2*%
X98872175Y-102228656D02*
X99294633Y-101806198D01*
X112360343Y-92156775D02*
X107167445Y-92156775D01*
X94947701Y-98695258D02*
X94947701Y-92237925D01*
X94627440Y-91917664D02*
X94883510Y-92173734D01*
X98872175Y-102228656D02*
X98481099Y-102228656D01*
X105645279Y-92156775D02*
X107167445Y-92156775D01*
X99294633Y-100467790D02*
X98483980Y-99657137D01*
X99294633Y-101806198D02*
X99294633Y-100467790D01*
X98481099Y-102228656D02*
X94947701Y-98695258D01*
X116906299Y-128331968D02*
X116931275Y-128306992D01*
X116931275Y-123855792D02*
X123040281Y-117746786D01*
X98483980Y-99318074D02*
X105645279Y-92156775D01*
X123040281Y-104054782D02*
X121214155Y-102228656D01*
X98483980Y-99657137D02*
X98483980Y-99318074D01*
X118006431Y-85979596D02*
X118006431Y-86510687D01*
X94947701Y-92237925D02*
X94883510Y-92173734D01*
X123040281Y-117746786D02*
X123040281Y-104054782D01*
X121214155Y-102228656D02*
X98872175Y-102228656D01*
X116931275Y-128306992D02*
X116931275Y-123855792D01*
X118006431Y-86510687D02*
X112360343Y-92156775D01*
D23*
%TO.N,/RST{slash}UPDI*%
X123586157Y-117931159D02*
X123586157Y-103605166D01*
X118080184Y-127482774D02*
X118080184Y-123437132D01*
X99994831Y-101624936D02*
X99838443Y-101468548D01*
X103082173Y-101624936D02*
X99994831Y-101624936D01*
X98725686Y-101056104D02*
X97232443Y-99562861D01*
X121285943Y-101304952D02*
X103402157Y-101304952D01*
X97232443Y-99562861D02*
X97232443Y-87909572D01*
X103402157Y-101304952D02*
X103082173Y-101624936D01*
X99838443Y-101468548D02*
X99729479Y-101624936D01*
X118080184Y-123437132D02*
X123586157Y-117931159D01*
X123586157Y-103605166D02*
X121285943Y-101304952D01*
X98769633Y-101056104D02*
X98725686Y-101056104D01*
D28*
X97232443Y-87909572D02*
X96786511Y-87463640D01*
D26*
%TO.N,VBUS*%
X134347180Y-125747393D02*
X134249666Y-125649879D01*
X117218965Y-131937908D02*
X129714471Y-131937908D01*
X114069370Y-128788313D02*
X117218965Y-131937908D01*
X134347180Y-128516810D02*
X134347180Y-125747393D01*
X114069370Y-128776256D02*
X114069370Y-128788313D01*
X129714471Y-131937908D02*
X134249666Y-127402713D01*
X134249666Y-127402713D02*
X134249666Y-125649879D01*
D28*
%TO.N,/PIN_3*%
X130566327Y-127294241D02*
X130566327Y-126787685D01*
X136241042Y-119677377D02*
X136494932Y-119677377D01*
X133807874Y-123546138D02*
X133807874Y-122110545D01*
X130566327Y-126787685D02*
X133807874Y-123546138D01*
X133807874Y-122110545D02*
X136241042Y-119677377D01*
%TD*%
M02*
