%TF.GenerationSoftware,KiCad,Pcbnew,8.0.5*%
%TF.CreationDate,2024-11-06T13:54:45-05:00*%
%TF.ProjectId,BadgeKittyv2,42616467-654b-4697-9474-7976322e6b69,rev?*%
%TF.SameCoordinates,Original*%
%TF.FileFunction,Paste,Top*%
%TF.FilePolarity,Positive*%
%FSLAX46Y46*%
G04 Gerber Fmt 4.6, Leading zero omitted, Abs format (unit mm)*
G04 Created by KiCad (PCBNEW 8.0.5) date 2024-11-06 13:54:45*
%MOMM*%
%LPD*%
G01*
G04 APERTURE LIST*
G04 Aperture macros list*
%AMRoundRect*
0 Rectangle with rounded corners*
0 $1 Rounding radius*
0 $2 $3 $4 $5 $6 $7 $8 $9 X,Y pos of 4 corners*
0 Add a 4 corners polygon primitive as box body*
4,1,4,$2,$3,$4,$5,$6,$7,$8,$9,$2,$3,0*
0 Add four circle primitives for the rounded corners*
1,1,$1+$1,$2,$3*
1,1,$1+$1,$4,$5*
1,1,$1+$1,$6,$7*
1,1,$1+$1,$8,$9*
0 Add four rect primitives between the rounded corners*
20,1,$1+$1,$2,$3,$4,$5,0*
20,1,$1+$1,$4,$5,$6,$7,0*
20,1,$1+$1,$6,$7,$8,$9,0*
20,1,$1+$1,$8,$9,$2,$3,0*%
G04 Aperture macros list end*
%ADD10R,0.700000X0.700000*%
%ADD11R,1.000000X0.599999*%
%ADD12R,1.400000X0.700000*%
%ADD13R,1.400000X0.760000*%
%ADD14R,1.400000X0.800000*%
%ADD15RoundRect,0.250000X-0.475000X0.250000X-0.475000X-0.250000X0.475000X-0.250000X0.475000X0.250000X0*%
%ADD16RoundRect,0.250000X-0.262500X-0.450000X0.262500X-0.450000X0.262500X0.450000X-0.262500X0.450000X0*%
%ADD17R,0.900000X0.800000*%
%ADD18RoundRect,0.250000X-0.450000X0.262500X-0.450000X-0.262500X0.450000X-0.262500X0.450000X0.262500X0*%
%ADD19R,0.558800X1.460500*%
%ADD20RoundRect,0.362500X0.362500X0.362500X-0.362500X0.362500X-0.362500X-0.362500X0.362500X-0.362500X0*%
%ADD21RoundRect,0.250000X0.450000X-0.262500X0.450000X0.262500X-0.450000X0.262500X-0.450000X-0.262500X0*%
%ADD22RoundRect,0.250000X0.262500X0.450000X-0.262500X0.450000X-0.262500X-0.450000X0.262500X-0.450000X0*%
%ADD23R,1.400000X1.050000*%
%ADD24R,1.100000X0.500000*%
%ADD25RoundRect,0.250000X0.250000X0.475000X-0.250000X0.475000X-0.250000X-0.475000X0.250000X-0.475000X0*%
%ADD26R,0.838200X0.355600*%
%ADD27RoundRect,0.250000X0.475000X-0.250000X0.475000X0.250000X-0.475000X0.250000X-0.475000X-0.250000X0*%
%ADD28R,0.800000X0.900000*%
%ADD29R,1.168400X1.803400*%
G04 APERTURE END LIST*
D10*
%TO.C,D1*%
X102300493Y-100591356D03*
X102300493Y-99491356D03*
X100470493Y-99491356D03*
X100470493Y-100591356D03*
%TD*%
D11*
%TO.C,U2*%
X104283533Y-125701492D03*
X104283533Y-126651493D03*
X104283533Y-127601491D03*
X107033533Y-127601491D03*
X107033533Y-125701492D03*
%TD*%
D10*
%TO.C,D2*%
X116585300Y-100479969D03*
X116585300Y-99379969D03*
X118415300Y-99379969D03*
X118415300Y-100479969D03*
%TD*%
D12*
%TO.C,J1*%
X132244032Y-127756843D03*
D13*
X132244032Y-125736843D03*
D14*
X132244032Y-124506843D03*
D12*
X132244032Y-126756843D03*
D13*
X132244032Y-128776843D03*
D14*
X132244032Y-130006843D03*
%TD*%
D15*
%TO.C,C4*%
X97349892Y-128203005D03*
X97349892Y-130103005D03*
%TD*%
D16*
%TO.C,R4*%
X121325465Y-122400053D03*
X123150465Y-122400053D03*
%TD*%
D17*
%TO.C,D4*%
X111884985Y-129800356D03*
X111884985Y-127700356D03*
%TD*%
D18*
%TO.C,R2*%
X127254629Y-124602045D03*
X127254629Y-126427045D03*
%TD*%
D19*
%TO.C,U1*%
X124161485Y-124922820D03*
X122891485Y-124922820D03*
X121621485Y-124922820D03*
X120351485Y-124922820D03*
X120351485Y-130371120D03*
X121621485Y-130371120D03*
X122891485Y-130371120D03*
X124161485Y-130371120D03*
%TD*%
D20*
%TO.C,LS1*%
X117862173Y-125702559D03*
X113862173Y-125702559D03*
X117862173Y-129702559D03*
%TD*%
D21*
%TO.C,R1*%
X127225324Y-130201099D03*
X127225324Y-128376099D03*
%TD*%
D22*
%TO.C,R3*%
X110657503Y-125602546D03*
X108832503Y-125602546D03*
%TD*%
D23*
%TO.C,S1*%
X107674255Y-92867968D03*
X111274255Y-92867968D03*
X107674255Y-94317968D03*
X111274255Y-94317968D03*
D24*
X109474255Y-91892968D03*
%TD*%
D25*
%TO.C,C5*%
X107387851Y-129924068D03*
X105487851Y-129924068D03*
%TD*%
D26*
%TO.C,U3*%
X115916872Y-123909763D03*
X115916872Y-123259764D03*
X115916872Y-122609765D03*
X113834072Y-122609765D03*
X113834072Y-123909763D03*
%TD*%
D27*
%TO.C,C3*%
X109409822Y-130094695D03*
X109409822Y-128194695D03*
%TD*%
D28*
%TO.C,D3*%
X98902416Y-126654069D03*
X101002416Y-126654069D03*
%TD*%
D15*
%TO.C,C2*%
X95150061Y-128220882D03*
X95150061Y-130120882D03*
%TD*%
D29*
%TO.C,L1*%
X101423113Y-129691768D03*
X99670513Y-129691768D03*
%TD*%
M02*
