%TF.GenerationSoftware,KiCad,Pcbnew,8.0.5*%
%TF.CreationDate,2024-11-06T13:54:45-05:00*%
%TF.ProjectId,BadgeKittyv2,42616467-654b-4697-9474-7976322e6b69,rev?*%
%TF.SameCoordinates,Original*%
%TF.FileFunction,Profile,NP*%
%FSLAX46Y46*%
G04 Gerber Fmt 4.6, Leading zero omitted, Abs format (unit mm)*
G04 Created by KiCad (PCBNEW 8.0.5) date 2024-11-06 13:54:45*
%MOMM*%
%LPD*%
G01*
G04 APERTURE LIST*
%TA.AperFunction,Profile*%
%ADD10C,0.100000*%
%TD*%
G04 APERTURE END LIST*
D10*
X101222220Y-79606001D02*
X101258962Y-79608031D01*
X101295426Y-79611389D01*
X101331584Y-79616057D01*
X101367406Y-79622016D01*
X101402862Y-79629247D01*
X101437922Y-79637730D01*
X101472558Y-79647447D01*
X101506740Y-79658377D01*
X101540438Y-79670502D01*
X101573623Y-79683803D01*
X101606265Y-79698260D01*
X101638335Y-79713854D01*
X101669803Y-79730566D01*
X101700639Y-79748377D01*
X101730815Y-79767267D01*
X101760301Y-79787218D01*
X101789067Y-79808209D01*
X101817084Y-79830223D01*
X101844321Y-79853239D01*
X101870751Y-79877239D01*
X101896343Y-79902203D01*
X101921067Y-79928112D01*
X101944895Y-79954947D01*
X101967796Y-79982688D01*
X101989741Y-80011317D01*
X102010701Y-80040814D01*
X102030647Y-80071160D01*
X102049548Y-80102336D01*
X102067375Y-80134322D01*
X102084099Y-80167100D01*
X102099690Y-80200650D01*
X106847366Y-90929166D01*
X106879682Y-90995492D01*
X106916410Y-91058653D01*
X106957316Y-91118495D01*
X107002163Y-91174865D01*
X107050716Y-91227608D01*
X107102737Y-91276571D01*
X107157992Y-91321600D01*
X107216243Y-91362542D01*
X107277256Y-91399243D01*
X107340793Y-91431549D01*
X107406620Y-91459306D01*
X107474500Y-91482362D01*
X107544196Y-91500561D01*
X107615473Y-91513751D01*
X107688095Y-91521778D01*
X107761826Y-91524487D01*
X110945360Y-91524487D01*
X110984007Y-91523745D01*
X111022372Y-91521533D01*
X111060420Y-91517874D01*
X111098120Y-91512791D01*
X111135437Y-91506306D01*
X111172341Y-91498441D01*
X111208797Y-91489220D01*
X111244772Y-91478665D01*
X111280234Y-91466799D01*
X111315150Y-91453643D01*
X111349488Y-91439221D01*
X111383213Y-91423555D01*
X111416293Y-91406668D01*
X111448696Y-91388583D01*
X111480388Y-91369321D01*
X111511337Y-91348906D01*
X111541509Y-91327360D01*
X111570872Y-91304706D01*
X111599393Y-91280966D01*
X111627039Y-91256163D01*
X111653777Y-91230319D01*
X111679574Y-91203457D01*
X111704398Y-91175600D01*
X111728215Y-91146771D01*
X111750992Y-91116991D01*
X111772698Y-91086283D01*
X111793297Y-91054670D01*
X111812759Y-91022175D01*
X111831050Y-90988820D01*
X111848137Y-90954627D01*
X111863986Y-90919620D01*
X111878567Y-90883820D01*
X115974747Y-80245980D01*
X116005177Y-80175175D01*
X116040555Y-80107628D01*
X116080617Y-80043521D01*
X116125099Y-79983034D01*
X116173740Y-79926348D01*
X116226275Y-79873644D01*
X116282442Y-79825101D01*
X116341977Y-79780901D01*
X116404618Y-79741225D01*
X116470101Y-79706253D01*
X116538163Y-79676165D01*
X116608542Y-79651143D01*
X116680973Y-79631367D01*
X116755194Y-79617017D01*
X116830942Y-79608275D01*
X116907953Y-79605321D01*
X120296989Y-79605321D01*
X120333979Y-79606001D01*
X120370721Y-79608030D01*
X120407185Y-79611389D01*
X120443343Y-79616057D01*
X120479165Y-79622016D01*
X120514621Y-79629247D01*
X120549682Y-79637730D01*
X120584318Y-79647446D01*
X120618500Y-79658376D01*
X120652198Y-79670501D01*
X120685383Y-79683802D01*
X120718025Y-79698259D01*
X120750095Y-79713853D01*
X120781563Y-79730565D01*
X120812400Y-79748375D01*
X120842576Y-79767266D01*
X120872062Y-79787216D01*
X120900828Y-79808208D01*
X120928844Y-79830221D01*
X120956082Y-79853238D01*
X120982512Y-79877237D01*
X121008104Y-79902201D01*
X121032828Y-79928110D01*
X121056656Y-79954945D01*
X121079558Y-79982687D01*
X121101503Y-80011316D01*
X121122464Y-80040813D01*
X121142409Y-80071159D01*
X121161310Y-80102335D01*
X121179137Y-80134322D01*
X121195861Y-80167100D01*
X121211452Y-80200650D01*
X126197840Y-91468587D01*
X126204090Y-91482427D01*
X126210549Y-91496168D01*
X126217215Y-91509808D01*
X126224087Y-91523344D01*
X126231164Y-91536776D01*
X126238445Y-91550100D01*
X126245928Y-91563314D01*
X126253613Y-91576417D01*
X126463269Y-91931519D01*
X126667196Y-92284661D01*
X126865410Y-92635808D01*
X127057926Y-92984940D01*
X127244758Y-93332021D01*
X127425927Y-93677010D01*
X127601437Y-94019868D01*
X127771297Y-94360574D01*
X127935494Y-94699101D01*
X128094005Y-95035447D01*
X128246793Y-95369622D01*
X128393792Y-95701665D01*
X128534924Y-96031628D01*
X128670074Y-96359605D01*
X128799107Y-96685719D01*
X128921842Y-97010125D01*
X129038078Y-97333035D01*
X129147564Y-97654694D01*
X129250008Y-97975396D01*
X129345079Y-98295495D01*
X129432391Y-98615403D01*
X129511513Y-98935578D01*
X129581951Y-99256570D01*
X129643163Y-99578977D01*
X129694530Y-99903485D01*
X129735376Y-100230862D01*
X129764937Y-100561971D01*
X129782412Y-100897729D01*
X129786993Y-101239076D01*
X129777955Y-101586898D01*
X129754698Y-101941962D01*
X129716831Y-102304854D01*
X129664201Y-102675946D01*
X129596884Y-103055396D01*
X129515175Y-103443185D01*
X129419550Y-103839131D01*
X129310659Y-104242923D01*
X129189290Y-104654143D01*
X129056376Y-105072265D01*
X128912970Y-105496671D01*
X128760251Y-105926661D01*
X128599503Y-106361453D01*
X128259584Y-107241948D01*
X127550549Y-109019940D01*
X127209316Y-109901950D01*
X127048458Y-110337947D01*
X126896576Y-110769433D01*
X126755487Y-111195577D01*
X126626984Y-111615596D01*
X126512836Y-112028796D01*
X126414803Y-112434604D01*
X126334654Y-112832597D01*
X126274168Y-113222531D01*
X126235100Y-113604346D01*
X126224121Y-113792224D01*
X126219100Y-113978097D01*
X126220211Y-114161982D01*
X126227607Y-114343898D01*
X126241425Y-114523856D01*
X126261767Y-114701873D01*
X126288718Y-114877953D01*
X126322329Y-115052096D01*
X126362621Y-115224295D01*
X126409594Y-115394542D01*
X126463217Y-115562812D01*
X126523432Y-115729079D01*
X126590160Y-115893311D01*
X126663293Y-116055461D01*
X126742699Y-116215484D01*
X126828226Y-116373317D01*
X126919698Y-116528891D01*
X127016915Y-116682134D01*
X127227701Y-116981272D01*
X127458643Y-117269971D01*
X127707592Y-117547373D01*
X127972254Y-117812542D01*
X128250250Y-118064484D01*
X128539196Y-118302168D01*
X128836712Y-118524543D01*
X129140467Y-118730539D01*
X129448196Y-118919092D01*
X129757728Y-119089156D01*
X130067023Y-119239708D01*
X130374249Y-119369756D01*
X130677875Y-119478346D01*
X130976786Y-119564582D01*
X131124252Y-119599043D01*
X131270346Y-119627596D01*
X131415090Y-119650145D01*
X131558517Y-119666601D01*
X131700710Y-119676877D01*
X131841763Y-119680901D01*
X131981801Y-119678608D01*
X132120942Y-119669944D01*
X132259335Y-119654876D01*
X132397126Y-119633385D01*
X132534460Y-119605461D01*
X132671479Y-119571129D01*
X132808317Y-119530416D01*
X132945098Y-119483386D01*
X133081941Y-119430114D01*
X133218955Y-119370690D01*
X133493842Y-119233871D01*
X133770393Y-119074045D01*
X134049047Y-118892583D01*
X134330038Y-118691105D01*
X134613394Y-118471447D01*
X134898962Y-118235646D01*
X135186452Y-117985903D01*
X135475430Y-117724578D01*
X135765366Y-117454146D01*
X136055645Y-117177188D01*
X136634406Y-116614407D01*
X137205442Y-116058108D01*
X137485866Y-115789319D01*
X137761649Y-115530435D01*
X138031830Y-115284154D01*
X138295464Y-115053088D01*
X138551601Y-114839768D01*
X138799342Y-114646586D01*
X138919791Y-114558265D01*
X139037823Y-114475812D01*
X139153332Y-114399491D01*
X139266228Y-114329547D01*
X139376415Y-114266213D01*
X139483809Y-114209710D01*
X139588331Y-114160251D01*
X139689902Y-114118028D01*
X139788450Y-114083222D01*
X139883908Y-114056006D01*
X139976219Y-114036532D01*
X140065326Y-114024945D01*
X140151171Y-114021382D01*
X140233711Y-114025960D01*
X140312900Y-114038789D01*
X140388702Y-114059974D01*
X140461081Y-114089604D01*
X140529999Y-114127768D01*
X140595430Y-114174535D01*
X140657352Y-114229972D01*
X140715736Y-114294139D01*
X140770563Y-114367093D01*
X140821814Y-114448872D01*
X140869478Y-114539519D01*
X140913538Y-114639071D01*
X140953988Y-114747550D01*
X140990809Y-114864985D01*
X141024007Y-114991389D01*
X141053566Y-115126782D01*
X141079482Y-115271174D01*
X141101760Y-115424573D01*
X141120390Y-115586985D01*
X141135372Y-115758410D01*
X141146707Y-115938855D01*
X141154393Y-116128320D01*
X141158432Y-116326804D01*
X141158432Y-116580068D01*
X137817516Y-122461406D01*
X137791742Y-123741737D01*
X137775029Y-131069630D01*
X137776414Y-131567644D01*
X137776414Y-131865870D01*
X137841650Y-132002556D01*
X137866502Y-132120604D01*
X137863396Y-132241758D01*
X137835437Y-132412616D01*
X137754668Y-132592794D01*
X137670792Y-132717055D01*
X137571384Y-132816463D01*
X137482873Y-132904409D01*
X137452472Y-132922987D01*
X135469391Y-132922245D01*
X134462825Y-132921813D01*
X134000420Y-132921813D01*
X133667577Y-132921813D01*
X133383880Y-132921813D01*
X133061926Y-132922652D01*
X132738299Y-132921813D01*
X97348717Y-132924981D01*
X97005547Y-132913189D01*
X96664726Y-132877974D01*
X96327442Y-132819567D01*
X95994881Y-132738204D01*
X95668236Y-132634115D01*
X95348797Y-132507591D01*
X95039162Y-132359610D01*
X94740837Y-132191005D01*
X94454845Y-132002420D01*
X94182213Y-131794510D01*
X93923977Y-131567941D01*
X93682079Y-131324353D01*
X93457817Y-131065183D01*
X93251930Y-130791392D01*
X93065155Y-130503955D01*
X92898231Y-130203829D01*
X92192543Y-128825655D01*
X91840557Y-128138237D01*
X91757805Y-127976594D01*
X91679905Y-127824326D01*
X91606613Y-127680908D01*
X91537693Y-127545824D01*
X91472916Y-127418552D01*
X91412048Y-127298580D01*
X91354847Y-127185383D01*
X91301079Y-127078448D01*
X91250511Y-126977253D01*
X91202904Y-126881280D01*
X91115650Y-126702934D01*
X91037426Y-126539259D01*
X90966358Y-126386104D01*
X90838158Y-126094780D01*
X90723663Y-125813489D01*
X90625408Y-125547605D01*
X90543392Y-125295611D01*
X90477463Y-125055457D01*
X90425957Y-124817696D01*
X90388699Y-124575401D01*
X90366062Y-124323450D01*
X90358433Y-124056717D01*
X90363312Y-123831879D01*
X90378384Y-123589197D01*
X90404194Y-123326832D01*
X90421257Y-123187824D01*
X90441135Y-123043438D01*
X90463848Y-122893606D01*
X90489388Y-122738319D01*
X90517735Y-122577616D01*
X90548859Y-122411581D01*
X90619183Y-122064148D01*
X90699757Y-121697665D01*
X90789772Y-121314340D01*
X90888241Y-120916830D01*
X90994072Y-120508085D01*
X91106064Y-120091234D01*
X91343452Y-119246140D01*
X91589726Y-118407530D01*
X91712692Y-117998577D01*
X91833649Y-117600505D01*
X91951164Y-117216017D01*
X92063858Y-116847529D01*
X92170387Y-116497084D01*
X92269470Y-116166278D01*
X92359940Y-115856198D01*
X92440712Y-115567317D01*
X92510864Y-115299403D01*
X92569618Y-115051411D01*
X92616375Y-114821372D01*
X92650745Y-114606286D01*
X92672565Y-114402110D01*
X92681869Y-114203978D01*
X92678871Y-114006587D01*
X92663921Y-113804580D01*
X92637505Y-113592927D01*
X92600174Y-113367308D01*
X92552551Y-113124331D01*
X92495312Y-112861493D01*
X92429188Y-112577092D01*
X92393036Y-112426467D01*
X92354954Y-112270120D01*
X92315044Y-112108014D01*
X92273411Y-111940150D01*
X92185410Y-111587260D01*
X92091835Y-111211957D01*
X91993576Y-110815152D01*
X91891544Y-110398127D01*
X91786682Y-109962510D01*
X91679916Y-109510253D01*
X91572174Y-109043578D01*
X91464378Y-108564954D01*
X91357452Y-108077018D01*
X91149715Y-107084256D01*
X90955719Y-106087603D01*
X90865822Y-105594613D01*
X90781593Y-105108596D01*
X90703686Y-104631923D01*
X90632687Y-104166777D01*
X90569115Y-103715110D01*
X90513420Y-103278586D01*
X90465973Y-102858500D01*
X90427059Y-102455706D01*
X90396843Y-102070535D01*
X90375389Y-101702714D01*
X90362633Y-101351355D01*
X90358433Y-101015044D01*
X90362251Y-100703881D01*
X90373535Y-100403230D01*
X90392029Y-100111245D01*
X90417480Y-99826142D01*
X90449642Y-99546266D01*
X90488300Y-99270100D01*
X90533245Y-98996266D01*
X90584301Y-98723485D01*
X90704025Y-98176553D01*
X90772385Y-97900357D01*
X90846218Y-97621125D01*
X90925396Y-97338052D01*
X91009796Y-97050404D01*
X91099312Y-96757535D01*
X91193851Y-96458863D01*
X91293316Y-96153878D01*
X91397629Y-95842141D01*
X91506714Y-95523267D01*
X91620514Y-95196923D01*
X91738983Y-94862828D01*
X91862053Y-94520753D01*
X91989689Y-94170503D01*
X92121857Y-93811925D01*
X92258530Y-93444894D01*
X92399677Y-93069314D01*
X92545280Y-92685128D01*
X92695328Y-92292283D01*
X92849792Y-91890759D01*
X93008682Y-91480531D01*
X93171989Y-91061604D01*
X93339710Y-90633973D01*
X97496330Y-80234185D01*
X97527281Y-80164535D01*
X97563037Y-80098122D01*
X97603344Y-80035119D01*
X97647944Y-79975701D01*
X97696583Y-79920039D01*
X97749003Y-79868308D01*
X97804950Y-79820681D01*
X97864166Y-79777331D01*
X97926397Y-79738432D01*
X97991386Y-79704157D01*
X98058877Y-79674680D01*
X98128614Y-79650173D01*
X98200341Y-79630810D01*
X98273802Y-79616765D01*
X98348742Y-79608211D01*
X98424904Y-79605321D01*
X101185230Y-79605321D01*
X101222220Y-79606001D01*
M02*
