M48
; DRILL file {KiCad 8.0.5} date 2024-11-06T13:54:47-0500
; FORMAT={-:-/ absolute / inch / decimal}
; #@! TF.CreationDate,2024-11-06T13:54:47-05:00
; #@! TF.GenerationSoftware,Kicad,Pcbnew,8.0.5
; #@! TF.FileFunction,Plated,1,4,PTH
FMAT,2
INCH
; #@! TA.AperFunction,Plated,PTH,ViaDrill
T1C0.0098
; #@! TA.AperFunction,Plated,PTH,ViaDrill
T2C0.0118
; #@! TA.AperFunction,Plated,PTH,ViaDrill
T3C0.0138
; #@! TA.AperFunction,Plated,PTH,ViaDrill
T4C0.0157
; #@! TA.AperFunction,Plated,PTH,ComponentDrill
T5C0.0236
; #@! TA.AperFunction,Plated,PTH,ComponentDrill
T6C0.0394
%
G90
G05
T1
X4.5511Y-3.9535
T2
X3.7196Y-5.0851
X3.8102Y-5.0845
X3.8886Y-3.9786
X3.9133Y-3.9034
X3.9306Y-3.9948
X3.9321Y-3.9478
X3.9963Y-3.8955
X4.0535Y-3.9735
X4.0638Y-4.9916
X4.066Y-5.0431
X4.087Y-5.1436
X4.1059Y-5.0508
X4.1062Y-5.0045
X4.1117Y-5.1125
X4.1771Y-5.0232
X4.1777Y-4.9478
X4.2168Y-4.9858
X4.231Y-5.0641
X4.2874Y-3.6972
X4.3102Y-3.6506
X4.3366Y-3.6888
X4.4683Y-5.1372
X4.4909Y-5.0699
X4.5596Y-3.913
X4.6966Y-3.9038
T3
X4.0546Y-4.0508
X4.6251Y-4.0512
T4
X3.8998Y-5.0327
X3.9769Y-4.6669
X4.3438Y-5.0122
X4.5251Y-4.8765
X4.6026Y-5.0524
X4.6223Y-4.6719
X4.6488Y-5.019
X4.7708Y-3.3478
X4.8714Y-4.6873
X4.9257Y-4.7081
X4.9426Y-4.6492
X4.9492Y-5.1321
X4.9705Y-5.0906
X4.9761Y-4.9393
X4.9824Y-4.7093
X5.1404Y-5.0116
X5.2854Y-4.9468
X5.2854Y-5.1296
X5.2878Y-4.8873
X5.2893Y-5.0597
X5.4481Y-4.6353
T6
X3.7356Y-3.6289
X3.773Y-3.5362
X3.8105Y-3.4435
X3.848Y-3.3507
T5
G00X5.2061Y-4.84
M15
G01X5.2297Y-4.84
M16
G05
G00X5.2061Y-5.1802
M15
G01X5.2297Y-5.1802
M16
G05
G00X5.3557Y-4.84
M15
G01X5.3793Y-4.84
M16
G05
G00X5.3557Y-5.1802
M15
G01X5.3793Y-5.1802
M16
G05
M30
