%TF.GenerationSoftware,KiCad,Pcbnew,8.0.5*%
%TF.CreationDate,2024-11-06T13:54:44-05:00*%
%TF.ProjectId,BadgeKittyv2,42616467-654b-4697-9474-7976322e6b69,rev?*%
%TF.SameCoordinates,Original*%
%TF.FileFunction,Copper,L1,Top*%
%TF.FilePolarity,Positive*%
%FSLAX46Y46*%
G04 Gerber Fmt 4.6, Leading zero omitted, Abs format (unit mm)*
G04 Created by KiCad (PCBNEW 8.0.5) date 2024-11-06 13:54:44*
%MOMM*%
%LPD*%
G01*
G04 APERTURE LIST*
G04 Aperture macros list*
%AMRoundRect*
0 Rectangle with rounded corners*
0 $1 Rounding radius*
0 $2 $3 $4 $5 $6 $7 $8 $9 X,Y pos of 4 corners*
0 Add a 4 corners polygon primitive as box body*
4,1,4,$2,$3,$4,$5,$6,$7,$8,$9,$2,$3,0*
0 Add four circle primitives for the rounded corners*
1,1,$1+$1,$2,$3*
1,1,$1+$1,$4,$5*
1,1,$1+$1,$6,$7*
1,1,$1+$1,$8,$9*
0 Add four rect primitives between the rounded corners*
20,1,$1+$1,$2,$3,$4,$5,0*
20,1,$1+$1,$4,$5,$6,$7,0*
20,1,$1+$1,$6,$7,$8,$9,0*
20,1,$1+$1,$8,$9,$2,$3,0*%
%AMHorizOval*
0 Thick line with rounded ends*
0 $1 width*
0 $2 $3 position (X,Y) of the first rounded end (center of the circle)*
0 $4 $5 position (X,Y) of the second rounded end (center of the circle)*
0 Add line between two ends*
20,1,$1,$2,$3,$4,$5,0*
0 Add two circle primitives to create the rounded ends*
1,1,$1,$2,$3*
1,1,$1,$4,$5*%
%AMRotRect*
0 Rectangle, with rotation*
0 The origin of the aperture is its center*
0 $1 length*
0 $2 width*
0 $3 Rotation angle, in degrees counterclockwise*
0 Add horizontal line*
21,1,$1,$2,0,0,$3*%
G04 Aperture macros list end*
%TA.AperFunction,EtchedComponent*%
%ADD10C,0.000000*%
%TD*%
%TA.AperFunction,SMDPad,CuDef*%
%ADD11R,0.700000X0.700000*%
%TD*%
%TA.AperFunction,SMDPad,CuDef*%
%ADD12R,1.000000X0.599999*%
%TD*%
%TA.AperFunction,SMDPad,CuDef*%
%ADD13R,1.400000X0.700000*%
%TD*%
%TA.AperFunction,SMDPad,CuDef*%
%ADD14R,1.400000X0.760000*%
%TD*%
%TA.AperFunction,SMDPad,CuDef*%
%ADD15R,1.400000X0.800000*%
%TD*%
%TA.AperFunction,ComponentPad*%
%ADD16O,1.600000X1.000000*%
%TD*%
%TA.AperFunction,SMDPad,CuDef*%
%ADD17RoundRect,0.250000X-0.475000X0.250000X-0.475000X-0.250000X0.475000X-0.250000X0.475000X0.250000X0*%
%TD*%
%TA.AperFunction,SMDPad,CuDef*%
%ADD18RoundRect,0.250000X-0.262500X-0.450000X0.262500X-0.450000X0.262500X0.450000X-0.262500X0.450000X0*%
%TD*%
%TA.AperFunction,SMDPad,CuDef*%
%ADD19R,0.900000X0.800000*%
%TD*%
%TA.AperFunction,SMDPad,CuDef*%
%ADD20RoundRect,0.250000X-0.450000X0.262500X-0.450000X-0.262500X0.450000X-0.262500X0.450000X0.262500X0*%
%TD*%
%TA.AperFunction,SMDPad,CuDef*%
%ADD21C,1.000000*%
%TD*%
%TA.AperFunction,SMDPad,CuDef*%
%ADD22R,0.558800X1.460500*%
%TD*%
%TA.AperFunction,SMDPad,CuDef*%
%ADD23RoundRect,0.362500X0.362500X0.362500X-0.362500X0.362500X-0.362500X-0.362500X0.362500X-0.362500X0*%
%TD*%
%TA.AperFunction,SMDPad,CuDef*%
%ADD24RoundRect,0.250000X0.450000X-0.262500X0.450000X0.262500X-0.450000X0.262500X-0.450000X-0.262500X0*%
%TD*%
%TA.AperFunction,SMDPad,CuDef*%
%ADD25RoundRect,0.250000X0.262500X0.450000X-0.262500X0.450000X-0.262500X-0.450000X0.262500X-0.450000X0*%
%TD*%
%TA.AperFunction,SMDPad,CuDef*%
%ADD26R,1.400000X1.050000*%
%TD*%
%TA.AperFunction,SMDPad,CuDef*%
%ADD27R,1.100000X0.500000*%
%TD*%
%TA.AperFunction,SMDPad,CuDef*%
%ADD28RoundRect,0.250000X0.250000X0.475000X-0.250000X0.475000X-0.250000X-0.475000X0.250000X-0.475000X0*%
%TD*%
%TA.AperFunction,SMDPad,CuDef*%
%ADD29R,0.838200X0.355600*%
%TD*%
%TA.AperFunction,SMDPad,CuDef*%
%ADD30RoundRect,0.250000X0.475000X-0.250000X0.475000X0.250000X-0.475000X0.250000X-0.475000X-0.250000X0*%
%TD*%
%TA.AperFunction,SMDPad,CuDef*%
%ADD31R,0.800000X0.900000*%
%TD*%
%TA.AperFunction,SMDPad,CuDef*%
%ADD32R,1.500000X1.000000*%
%TD*%
%TA.AperFunction,ComponentPad*%
%ADD33RotRect,1.700000X1.700000X338.000000*%
%TD*%
%TA.AperFunction,ComponentPad*%
%ADD34HorizOval,1.700000X0.000000X0.000000X0.000000X0.000000X0*%
%TD*%
%TA.AperFunction,SMDPad,CuDef*%
%ADD35R,1.168400X1.803400*%
%TD*%
%TA.AperFunction,ViaPad*%
%ADD36C,0.800000*%
%TD*%
%TA.AperFunction,ViaPad*%
%ADD37C,0.600000*%
%TD*%
%TA.AperFunction,ViaPad*%
%ADD38C,0.700000*%
%TD*%
%TA.AperFunction,ViaPad*%
%ADD39C,0.550000*%
%TD*%
%TA.AperFunction,Conductor*%
%ADD40C,0.550000*%
%TD*%
%TA.AperFunction,Conductor*%
%ADD41C,0.400000*%
%TD*%
%TA.AperFunction,Conductor*%
%ADD42C,0.360000*%
%TD*%
%TA.AperFunction,Conductor*%
%ADD43C,0.650000*%
%TD*%
%TA.AperFunction,Conductor*%
%ADD44C,0.250000*%
%TD*%
G04 APERTURE END LIST*
D10*
%TA.AperFunction,EtchedComponent*%
%TO.C,JP1*%
G36*
X129997499Y-124990731D02*
G01*
X129397499Y-124990731D01*
X129397499Y-124490731D01*
X129997499Y-124490731D01*
X129997499Y-124990731D01*
G37*
%TD.AperFunction*%
%TD*%
D11*
%TO.P,D1,1,DO*%
%TO.N,Net-(D1-DO)*%
X102300493Y-100591356D03*
%TO.P,D1,2,GND*%
%TO.N,GND*%
X102300493Y-99491356D03*
%TO.P,D1,3,DI*%
%TO.N,/PIN_6*%
X100470493Y-99491356D03*
%TO.P,D1,4,VDD*%
%TO.N,+5V*%
X100470493Y-100591356D03*
%TD*%
D12*
%TO.P,U2,1,SW*%
%TO.N,Net-(U2-SW)*%
X104283533Y-125701492D03*
%TO.P,U2,2,GND*%
%TO.N,GND*%
X104283533Y-126651493D03*
%TO.P,U2,3,NC*%
X104283533Y-127601491D03*
%TO.P,U2,4,VOUT*%
%TO.N,+5V*%
X107033533Y-127601491D03*
%TO.P,U2,5,NC*%
X107033533Y-125701492D03*
%TD*%
D11*
%TO.P,D2,4,VDD*%
%TO.N,+5V*%
X116585300Y-100479969D03*
%TO.P,D2,3,DI*%
%TO.N,Net-(D1-DO)*%
X116585300Y-99379969D03*
%TO.P,D2,2,GND*%
%TO.N,GND*%
X118415300Y-99379969D03*
%TO.P,D2,1,DO*%
%TO.N,unconnected-(D2-DO-Pad1)*%
X118415300Y-100479969D03*
%TD*%
D13*
%TO.P,J1,A5,CC1*%
%TO.N,Net-(J1-CC1)*%
X132244032Y-127756843D03*
D14*
%TO.P,J1,A9,VBUS*%
%TO.N,VBUS*%
X132244032Y-125736843D03*
D15*
%TO.P,J1,A12,GND*%
%TO.N,GND*%
X132244032Y-124506843D03*
D13*
%TO.P,J1,B5,CC2*%
%TO.N,Net-(J1-CC2)*%
X132244032Y-126756843D03*
D14*
%TO.P,J1,B9,VBUS__1*%
%TO.N,VBUS*%
X132244032Y-128776843D03*
D15*
%TO.P,J1,B12,GND__1*%
%TO.N,GND*%
X132244032Y-130006843D03*
D16*
%TO.P,J1,SH1,SHIELD*%
X132534032Y-131576843D03*
%TO.P,J1,SH2,SHIELD__1*%
X136334032Y-131576843D03*
%TO.P,J1,SH3,SHIELD__2*%
X132534032Y-122936843D03*
%TO.P,J1,SH4,SHIELD__3*%
X136334032Y-122936843D03*
%TD*%
D17*
%TO.P,C4,1*%
%TO.N,Net-(D3-K)*%
X97349892Y-128203005D03*
%TO.P,C4,2*%
%TO.N,GND*%
X97349892Y-130103005D03*
%TD*%
D18*
%TO.P,R4,1*%
%TO.N,/PIN_7*%
X121325465Y-122400053D03*
%TO.P,R4,2*%
%TO.N,+5V*%
X123150465Y-122400053D03*
%TD*%
D19*
%TO.P,D4,1,K*%
%TO.N,+5V*%
X111884985Y-129800356D03*
%TO.P,D4,2,A*%
%TO.N,VBUS*%
X111884985Y-127700356D03*
%TD*%
D20*
%TO.P,R2,1*%
%TO.N,GND*%
X127254629Y-124602045D03*
%TO.P,R2,2*%
%TO.N,Net-(J1-CC2)*%
X127254629Y-126427045D03*
%TD*%
D21*
%TO.P,EAR2,*%
%TO.N,*%
X118754060Y-82000000D03*
%TD*%
D22*
%TO.P,U1,1,VDD*%
%TO.N,+5V*%
X124161485Y-124922820D03*
%TO.P,U1,2,PA6*%
%TO.N,/PIN_6*%
X122891485Y-124922820D03*
%TO.P,U1,3,PA7*%
%TO.N,/PIN_7*%
X121621485Y-124922820D03*
%TO.P,U1,4,PA1*%
%TO.N,/PIN_1*%
X120351485Y-124922820D03*
%TO.P,U1,5,PA2*%
%TO.N,/PIN_2*%
X120351485Y-130371120D03*
%TO.P,U1,6,PA0/\u002ARESET/UPDI*%
%TO.N,/RST{slash}UPDI*%
X121621485Y-130371120D03*
%TO.P,U1,7,PA3/EXTCLK*%
%TO.N,/PIN_3*%
X122891485Y-130371120D03*
%TO.P,U1,8,GND*%
%TO.N,GND*%
X124161485Y-130371120D03*
%TD*%
D23*
%TO.P,LS1,1,+*%
%TO.N,Net-(JP1-A)*%
X117862173Y-125702559D03*
%TO.P,LS1,2,-*%
%TO.N,Net-(LS1--)*%
X113862173Y-125702559D03*
%TO.P,LS1,3,MP*%
%TO.N,unconnected-(LS1-MP-Pad3)*%
X117862173Y-129702559D03*
%TD*%
D24*
%TO.P,R1,1*%
%TO.N,GND*%
X127225324Y-130201099D03*
%TO.P,R1,2*%
%TO.N,Net-(J1-CC1)*%
X127225324Y-128376099D03*
%TD*%
D25*
%TO.P,R3,1*%
%TO.N,Net-(JP1-A)*%
X110657503Y-125602546D03*
%TO.P,R3,2*%
%TO.N,+5V*%
X108832503Y-125602546D03*
%TD*%
D26*
%TO.P,S1,1*%
%TO.N,/PIN_7*%
X107674255Y-92867968D03*
%TO.P,S1,2*%
X111274255Y-92867968D03*
%TO.P,S1,3*%
%TO.N,GND*%
X107674255Y-94317968D03*
%TO.P,S1,4*%
X111274255Y-94317968D03*
D27*
%TO.P,S1,5,SHIELD*%
%TO.N,unconnected-(S1-SHIELD-Pad5)*%
X109474255Y-91892968D03*
%TD*%
D28*
%TO.P,C5,1*%
%TO.N,+5V*%
X107387851Y-129924068D03*
%TO.P,C5,2*%
%TO.N,GND*%
X105487851Y-129924068D03*
%TD*%
D29*
%TO.P,U3,1,2*%
%TO.N,/PIN_1*%
X115916872Y-123909763D03*
%TO.P,U3,2,3*%
%TO.N,GND*%
X115916872Y-123259764D03*
%TO.P,U3,3,5*%
%TO.N,unconnected-(U3-5-Pad3)*%
X115916872Y-122609765D03*
%TO.P,U3,4,4*%
%TO.N,unconnected-(U3-Pad4)*%
X113834072Y-122609765D03*
%TO.P,U3,5,1*%
%TO.N,Net-(LS1--)*%
X113834072Y-123909763D03*
%TD*%
D30*
%TO.P,C3,1*%
%TO.N,+5V*%
X109409822Y-130094695D03*
%TO.P,C3,2*%
%TO.N,GND*%
X109409822Y-128194695D03*
%TD*%
D21*
%TO.P,EAR1,*%
%TO.N,*%
X100021614Y-82000000D03*
%TD*%
D31*
%TO.P,D3,1,K*%
%TO.N,Net-(D3-K)*%
X98902416Y-126654069D03*
%TO.P,D3,2,A*%
%TO.N,+BATT*%
X101002416Y-126654069D03*
%TD*%
D21*
%TO.P,TAIL1,*%
%TO.N,*%
X139746526Y-115642953D03*
%TD*%
D17*
%TO.P,C2,1*%
%TO.N,Net-(D3-K)*%
X95150061Y-128220882D03*
%TO.P,C2,2*%
%TO.N,GND*%
X95150061Y-130120882D03*
%TD*%
D32*
%TO.P,JP1,1,A*%
%TO.N,Net-(JP1-A)*%
X129697499Y-124090731D03*
%TO.P,JP1,2,B*%
%TO.N,VBUS*%
X129697499Y-125390731D03*
%TD*%
D33*
%TO.P,PROG1,1,Pin_1*%
%TO.N,+5V*%
X97738012Y-85108593D03*
D34*
%TO.P,PROG1,2,Pin_2*%
%TO.N,/RST{slash}UPDI*%
X96786511Y-87463640D03*
%TO.P,PROG1,3,Pin_3*%
%TO.N,GND*%
X95835011Y-89818687D03*
%TO.P,PROG1,4,Pin_4*%
%TO.N,/PIN_2*%
X94883510Y-92173734D03*
%TD*%
D35*
%TO.P,L1,1,1*%
%TO.N,Net-(U2-SW)*%
X101423113Y-129691768D03*
%TO.P,L1,2,2*%
%TO.N,Net-(D3-K)*%
X99670513Y-129691768D03*
%TD*%
D36*
%TO.N,GND*%
X134249666Y-130291576D03*
X138381108Y-117735428D03*
D37*
X96780056Y-129145675D03*
D36*
X110332994Y-127308665D03*
X121179530Y-85034291D03*
X126393327Y-125458379D03*
X117405569Y-118665945D03*
X125708589Y-130355449D03*
X134310797Y-124138607D03*
D37*
X101505246Y-98944873D03*
X108900621Y-93910133D03*
X104435973Y-129856249D03*
X103221773Y-126787150D03*
X119292542Y-99156044D03*
X94477385Y-129162728D03*
X104297197Y-127114156D03*
X103810624Y-130646736D03*
D36*
X101014466Y-118538056D03*
D38*
X117476905Y-102901215D03*
D36*
X126251544Y-129302441D03*
D37*
X104289017Y-128290870D03*
D36*
X114938467Y-123864283D03*
D37*
X103277433Y-128095176D03*
D38*
X102987548Y-102889241D03*
D37*
X110150406Y-93696010D03*
D39*
%TO.N,+5V*%
X115598787Y-100419504D03*
D37*
X107105925Y-126639541D03*
X99874627Y-100274462D03*
X107468462Y-128628264D03*
X113493906Y-130484962D03*
D36*
X126553378Y-119615194D03*
X125113941Y-119585566D03*
D37*
X106112615Y-125672956D03*
X106097414Y-127588302D03*
%TO.N,Net-(D1-DO)*%
X102959521Y-100927344D03*
X115813460Y-99390545D03*
D36*
%TO.N,+BATT*%
X99055888Y-127830474D03*
D37*
%TO.N,/PIN_6*%
X99398252Y-99146265D03*
D36*
X123734353Y-119056480D03*
%TO.N,/PIN_7*%
X125541965Y-118088833D03*
D37*
X109480121Y-92724221D03*
D36*
%TO.N,/PIN_2*%
X116906299Y-128331968D03*
D37*
%TO.N,/RST{slash}UPDI*%
X99838443Y-101468548D03*
X98769633Y-101056104D03*
D36*
X118080184Y-127482774D03*
%TO.N,VBUS*%
X134249666Y-125649879D03*
D37*
X114069370Y-128776256D03*
D36*
X134347180Y-128516810D03*
%TO.N,/PIN_3*%
X130566327Y-127294241D03*
%TD*%
D40*
%TO.N,GND*%
X127225324Y-129981541D02*
X126251544Y-129302441D01*
X127225324Y-130201099D02*
X127225324Y-129981541D01*
X133928886Y-130006843D02*
X134213619Y-130291576D01*
X134249666Y-130291576D02*
X134249666Y-130327623D01*
X96780056Y-129145675D02*
X96780056Y-129513300D01*
X96923935Y-130103005D02*
X97349892Y-130103005D01*
X114938467Y-123864283D02*
X114938467Y-123541268D01*
X134213619Y-130291576D02*
X134249666Y-130291576D01*
X127249661Y-124602045D02*
X127254629Y-124602045D01*
X110295852Y-127308665D02*
X109409822Y-128194695D01*
D41*
X103979547Y-126651493D02*
X104297197Y-127114156D01*
D42*
X108900621Y-93910133D02*
X108082090Y-93910133D01*
D41*
X104289017Y-128290870D02*
X104283533Y-128285386D01*
D42*
X119292542Y-99164388D02*
X119292542Y-99156044D01*
X110772364Y-94317968D02*
X111274255Y-94317968D01*
X118415300Y-99379969D02*
X119076961Y-99379969D01*
D40*
X124161485Y-130371120D02*
X125698362Y-130371120D01*
D42*
X119076961Y-99379969D02*
X119292542Y-99164388D01*
D40*
X132244032Y-124506843D02*
X133942561Y-124506843D01*
D41*
X104297197Y-127114156D02*
X104283533Y-126651493D01*
D40*
X125708589Y-130360893D02*
X125708589Y-130355449D01*
D42*
X119300886Y-99156044D02*
X119292542Y-99164388D01*
D40*
X94477385Y-129162728D02*
X95150061Y-129835404D01*
D42*
X101505246Y-98944873D02*
X101473656Y-98944873D01*
D40*
X114938467Y-123541268D02*
X115219971Y-123259764D01*
X125698362Y-130371120D02*
X125708589Y-130360893D01*
D42*
X102300493Y-99491356D02*
X102020139Y-99491356D01*
D40*
X95150061Y-129835404D02*
X95150061Y-130120882D01*
X133942561Y-124506843D02*
X134310797Y-124138607D01*
D42*
X101505246Y-98976463D02*
X101505246Y-98944873D01*
D40*
X134249666Y-130327623D02*
X134207115Y-130285072D01*
D42*
X110150406Y-93696010D02*
X110150406Y-93769243D01*
X110150406Y-93696010D02*
X110772364Y-94317968D01*
X101473656Y-98944873D02*
X101473656Y-98944873D01*
X119292542Y-99156044D02*
X119300886Y-99156044D01*
D40*
X134310797Y-124138607D02*
X134365369Y-124084035D01*
X126393327Y-125458379D02*
X127249661Y-124602045D01*
D42*
X108082090Y-93910133D02*
X107674255Y-94317968D01*
D40*
X96780056Y-129513300D02*
X97146848Y-129880092D01*
X125708589Y-130355449D02*
X125714033Y-130355449D01*
D42*
X102020139Y-99491356D02*
X101505246Y-98976463D01*
D40*
X115219971Y-123259764D02*
X115916872Y-123259764D01*
X132244032Y-130006843D02*
X133928886Y-130006843D01*
X110332994Y-127308665D02*
X110295852Y-127308665D01*
X125714033Y-130355449D02*
X125741249Y-130328233D01*
D43*
%TO.N,+5V*%
X112809300Y-129800356D02*
X111884985Y-129800356D01*
X124161485Y-124922820D02*
X124161485Y-122815067D01*
X113493906Y-130484962D02*
X112809300Y-129800356D01*
D42*
X107387851Y-129924068D02*
X107387851Y-128708875D01*
D43*
X107105925Y-126639541D02*
X107105925Y-125773884D01*
D42*
X100191521Y-100591356D02*
X100470493Y-100591356D01*
X116316560Y-100479969D02*
X116585300Y-100479969D01*
D43*
X124161485Y-122815067D02*
X126553378Y-120423174D01*
D42*
X116256095Y-100419504D02*
X116316560Y-100479969D01*
X115598787Y-100419504D02*
X116256095Y-100419504D01*
D43*
X125113941Y-119585566D02*
X125113941Y-120436577D01*
D42*
X99874627Y-100274462D02*
X100191521Y-100591356D01*
X107387851Y-128708875D02*
X107468462Y-128628264D01*
D43*
X126553378Y-120423174D02*
X126553378Y-119615194D01*
D42*
X107387851Y-129924068D02*
X107079101Y-129924068D01*
D43*
X107105925Y-125773884D02*
X107033533Y-125701492D01*
X125113941Y-120436577D02*
X123150465Y-122400053D01*
D42*
%TO.N,Net-(D1-DO)*%
X102959521Y-100935229D02*
X102935865Y-100911573D01*
X102300493Y-100591356D02*
X102615648Y-100591356D01*
X102951636Y-100927344D02*
X102959521Y-100927344D01*
X116170634Y-99379969D02*
X116585300Y-99379969D01*
X115813460Y-99390545D02*
X115754804Y-99331889D01*
X115813460Y-99390545D02*
X116160058Y-99390545D01*
X116160058Y-99390545D02*
X116170634Y-99379969D01*
X102615648Y-100591356D02*
X102951636Y-100927344D01*
X102959521Y-100927344D02*
X102959521Y-100935229D01*
D43*
%TO.N,+BATT*%
X100598466Y-126654069D02*
X101002416Y-126654069D01*
X99426011Y-127830474D02*
X100118681Y-127137804D01*
X100118681Y-127137804D02*
X100118681Y-127133854D01*
X100118681Y-127133854D02*
X100598466Y-126654069D01*
X99055888Y-127830474D02*
X99426011Y-127830474D01*
D44*
%TO.N,/PIN_1*%
X119338428Y-123909763D02*
X115916872Y-123909763D01*
X120351485Y-124922820D02*
X119338428Y-123909763D01*
%TO.N,/PIN_6*%
X122267231Y-124298566D02*
X122891485Y-124922820D01*
X123734353Y-119056480D02*
X122267231Y-120523602D01*
X122267231Y-120523602D02*
X122267231Y-124298566D01*
D42*
X99398252Y-99146265D02*
X100125402Y-99146265D01*
X100125402Y-99146265D02*
X100470493Y-99491356D01*
D40*
%TO.N,Net-(U2-SW)*%
X101423113Y-129691768D02*
X101872085Y-129242796D01*
X103809020Y-125226979D02*
X104283533Y-125701492D01*
X102336584Y-125226979D02*
X103809020Y-125226979D01*
X101872085Y-129242796D02*
X101872085Y-125691478D01*
X101872085Y-125691478D02*
X102336584Y-125226979D01*
D42*
%TO.N,/PIN_7*%
X123741040Y-118088833D02*
X121325465Y-120504408D01*
X107674255Y-92867968D02*
X107818002Y-92724221D01*
X125541965Y-118088833D02*
X123741040Y-118088833D01*
D44*
X121621485Y-122696073D02*
X121325465Y-122400053D01*
X121621485Y-124922820D02*
X121621485Y-122696073D01*
D42*
X107818002Y-92724221D02*
X111130508Y-92724221D01*
X121325465Y-120504408D02*
X121325465Y-122400053D01*
X111130508Y-92724221D02*
X111274255Y-92867968D01*
%TO.N,/PIN_2*%
X116906299Y-128331968D02*
X118312333Y-128331968D01*
D44*
X118103499Y-128331968D02*
X116906299Y-128331968D01*
D42*
X118312333Y-128331968D02*
X120351485Y-130371120D01*
D44*
%TO.N,/RST{slash}UPDI*%
X120855885Y-129415870D02*
X121621485Y-130181470D01*
D42*
X98769633Y-101056104D02*
X99425999Y-101056104D01*
D44*
X118080184Y-127482774D02*
X118258699Y-127482774D01*
X121621485Y-130181470D02*
X121621485Y-130371120D01*
X118258699Y-127482774D02*
X120191795Y-129415870D01*
X120191795Y-129415870D02*
X120855885Y-129415870D01*
D42*
X99425999Y-101056104D02*
X99838443Y-101468548D01*
D44*
%TO.N,Net-(J1-CC1)*%
X127225324Y-128376099D02*
X127447996Y-128153427D01*
X131847448Y-128153427D02*
X132244032Y-127756843D01*
X127447996Y-128153427D02*
X131847448Y-128153427D01*
%TO.N,Net-(J1-CC2)*%
X127292006Y-126464422D02*
X131951611Y-126464422D01*
X131951611Y-126464422D02*
X132244032Y-126756843D01*
X127254629Y-126427045D02*
X127292006Y-126464422D01*
D43*
%TO.N,Net-(D3-K)*%
X98838655Y-129691768D02*
X97349892Y-128203005D01*
D44*
X95123144Y-128193965D02*
X95150061Y-128220882D01*
D43*
X99670513Y-129691768D02*
X98838655Y-129691768D01*
X97353480Y-128203005D02*
X98902416Y-126654069D01*
X97349892Y-128203005D02*
X97353480Y-128203005D01*
X97349892Y-128203005D02*
X95167938Y-128203005D01*
%TO.N,VBUS*%
X112993470Y-127700356D02*
X111884985Y-127700356D01*
X132244032Y-125736843D02*
X130043611Y-125736843D01*
X114069370Y-128776256D02*
X112993470Y-127700356D01*
X134249666Y-125649879D02*
X134249666Y-125620927D01*
X134249666Y-125620927D02*
X134247303Y-125623290D01*
X134067645Y-128776843D02*
X134327678Y-128516810D01*
X132244032Y-125736843D02*
X134133750Y-125736843D01*
X134327678Y-128516810D02*
X134347180Y-128516810D01*
X132244032Y-128776843D02*
X134067645Y-128776843D01*
X134347180Y-128497308D02*
X134327678Y-128516810D01*
X134133750Y-125736843D02*
X134220714Y-125649879D01*
X134220714Y-125649879D02*
X134249666Y-125649879D01*
X130043611Y-125736843D02*
X129697499Y-125390731D01*
X134347180Y-128516810D02*
X134347180Y-128497308D01*
D41*
%TO.N,Net-(JP1-A)*%
X116620419Y-126944313D02*
X111999270Y-126944313D01*
D44*
X129697499Y-124090731D02*
X129697499Y-123960301D01*
D41*
X128465232Y-123436424D02*
X126182640Y-123436424D01*
X111999270Y-126944313D02*
X110657503Y-125602546D01*
X123722950Y-127903222D02*
X120062836Y-127903222D01*
X126182640Y-123436424D02*
X125336506Y-124282558D01*
X118281591Y-125283141D02*
X117862173Y-125702559D01*
X129697499Y-123960301D02*
X128989109Y-123960301D01*
X128989109Y-123960301D02*
X128465232Y-123436424D01*
X117862173Y-125702559D02*
X116620419Y-126944313D01*
X125336506Y-124282558D02*
X125336506Y-126289666D01*
X120062836Y-127903222D02*
X117862173Y-125702559D01*
X125336506Y-126289666D02*
X123722950Y-127903222D01*
D40*
%TO.N,Net-(LS1--)*%
X113862173Y-125702559D02*
X113862173Y-123937864D01*
X113862173Y-123937864D02*
X113834072Y-123909763D01*
D44*
%TO.N,/PIN_3*%
X125560150Y-127251605D02*
X122891485Y-129920270D01*
X122891485Y-129920270D02*
X122891485Y-130371120D01*
X125602786Y-127294241D02*
X125560150Y-127251605D01*
X130566327Y-127294241D02*
X125602786Y-127294241D01*
%TD*%
%TA.AperFunction,Conductor*%
%TO.N,GND*%
G36*
X103233648Y-126022164D02*
G01*
X103279403Y-126074968D01*
X103286720Y-126101645D01*
X103287657Y-126101424D01*
X103289440Y-126108971D01*
X103339735Y-126243820D01*
X103339739Y-126243827D01*
X103425985Y-126359036D01*
X103425988Y-126359039D01*
X103541197Y-126445285D01*
X103541204Y-126445289D01*
X103676050Y-126495583D01*
X103676049Y-126495583D01*
X103682977Y-126496327D01*
X103735660Y-126501992D01*
X104831405Y-126501991D01*
X104891016Y-126495583D01*
X104975110Y-126464217D01*
X105044799Y-126459234D01*
X105106122Y-126492718D01*
X105139607Y-126554041D01*
X105142438Y-126581271D01*
X105129823Y-128376478D01*
X105129356Y-128443001D01*
X106200293Y-128490047D01*
X106266402Y-128512655D01*
X106309795Y-128567416D01*
X106318794Y-128617632D01*
X106252274Y-130843722D01*
X106230596Y-130910143D01*
X106176448Y-130954301D01*
X106128329Y-130964018D01*
X103242319Y-130964018D01*
X103175280Y-130944333D01*
X103129525Y-130891529D01*
X103118346Y-130837415D01*
X103167415Y-128500520D01*
X103167347Y-128500519D01*
X102771572Y-128500478D01*
X102704534Y-128480786D01*
X102658785Y-128427977D01*
X102647585Y-128376478D01*
X102647585Y-126126479D01*
X102667270Y-126059440D01*
X102720074Y-126013685D01*
X102771585Y-126002479D01*
X103166609Y-126002479D01*
X103233648Y-126022164D01*
G37*
%TD.AperFunction*%
%TD*%
%TA.AperFunction,Conductor*%
%TO.N,+5V*%
G36*
X107652320Y-123852831D02*
G01*
X108858814Y-123852831D01*
X108860313Y-123852839D01*
X109607045Y-123861875D01*
X109673840Y-123882369D01*
X109718952Y-123935723D01*
X109729543Y-123985866D01*
X109729543Y-124766667D01*
X109712612Y-124826367D01*
X109713243Y-124826661D01*
X109711421Y-124830568D01*
X109711083Y-124831761D01*
X109710191Y-124833207D01*
X109710189Y-124833210D01*
X109710189Y-124833212D01*
X109655004Y-124999749D01*
X109655004Y-124999750D01*
X109655003Y-124999750D01*
X109644503Y-125102529D01*
X109644503Y-126102547D01*
X109644504Y-126102565D01*
X109655003Y-126205342D01*
X109655004Y-126205345D01*
X109709614Y-126370146D01*
X109715901Y-126410441D01*
X109714451Y-126549695D01*
X109712746Y-126555284D01*
X109713401Y-126555316D01*
X109710617Y-126612387D01*
X109687689Y-126678387D01*
X109678914Y-126689317D01*
X109600460Y-126776449D01*
X109505815Y-126940380D01*
X109485364Y-127003318D01*
X109455115Y-127052678D01*
X109349917Y-127157876D01*
X109288594Y-127191361D01*
X109262236Y-127194195D01*
X108884820Y-127194195D01*
X108884802Y-127194196D01*
X108782025Y-127204695D01*
X108782022Y-127204696D01*
X108615490Y-127259880D01*
X108615485Y-127259882D01*
X108466164Y-127351984D01*
X108342111Y-127476037D01*
X108250009Y-127625358D01*
X108250008Y-127625361D01*
X108194823Y-127791898D01*
X108194823Y-127791899D01*
X108194822Y-127791899D01*
X108184322Y-127894678D01*
X108184322Y-128494696D01*
X108184323Y-128494714D01*
X108194822Y-128597491D01*
X108194823Y-128597494D01*
X108227117Y-128694950D01*
X108250008Y-128764029D01*
X108342110Y-128913351D01*
X108466166Y-129037407D01*
X108615488Y-129129509D01*
X108782025Y-129184694D01*
X108884813Y-129195195D01*
X109934830Y-129195194D01*
X109934838Y-129195193D01*
X109934841Y-129195193D01*
X109991124Y-129189443D01*
X110037619Y-129184694D01*
X110204156Y-129129509D01*
X110353478Y-129037407D01*
X110477534Y-128913351D01*
X110569636Y-128764029D01*
X110624821Y-128597492D01*
X110635322Y-128494704D01*
X110635321Y-128240305D01*
X110655005Y-128173267D01*
X110707809Y-128127512D01*
X110708798Y-128127065D01*
X110766478Y-128101384D01*
X110835725Y-128092099D01*
X110899002Y-128121727D01*
X110936216Y-128180862D01*
X110940201Y-128201403D01*
X110940893Y-128207837D01*
X110991187Y-128342684D01*
X110991191Y-128342691D01*
X111077437Y-128457900D01*
X111077440Y-128457903D01*
X111192649Y-128544149D01*
X111192656Y-128544153D01*
X111237603Y-128560917D01*
X111327502Y-128594447D01*
X111387112Y-128600856D01*
X111638526Y-128600855D01*
X111705563Y-128620539D01*
X111711296Y-128624455D01*
X111884985Y-128750356D01*
X112961027Y-128873422D01*
X113025395Y-128900597D01*
X113034618Y-128908938D01*
X113364710Y-129239030D01*
X113398195Y-129300353D01*
X113400928Y-129331714D01*
X113312742Y-131515556D01*
X113290369Y-131581747D01*
X113235761Y-131625334D01*
X113187892Y-131634549D01*
X106727404Y-131585006D01*
X106660518Y-131564808D01*
X106615169Y-131511655D01*
X106604357Y-131461687D01*
X106603440Y-131292940D01*
X106622760Y-131225795D01*
X106636189Y-131208304D01*
X106647497Y-131196017D01*
X106711149Y-131066983D01*
X106729674Y-131010222D01*
X106732188Y-131004230D01*
X106757547Y-130858827D01*
X106757547Y-130858826D01*
X106757548Y-130858821D01*
X106824068Y-128632731D01*
X106821465Y-128597494D01*
X106816368Y-128528478D01*
X106816368Y-128528473D01*
X106816367Y-128528469D01*
X106816367Y-128528464D01*
X106807368Y-128478248D01*
X106778388Y-128377808D01*
X106778388Y-128377807D01*
X106705989Y-128253474D01*
X106705987Y-128253470D01*
X106662594Y-128198709D01*
X106625827Y-128163910D01*
X106558100Y-128099807D01*
X106429979Y-128034353D01*
X106429970Y-128034349D01*
X106363862Y-128011742D01*
X106363851Y-128011739D01*
X106222487Y-127985035D01*
X106222479Y-127985034D01*
X106222478Y-127985034D01*
X106074715Y-127978542D01*
X105757660Y-127964614D01*
X105691549Y-127942006D01*
X105648155Y-127887244D01*
X105639105Y-127839865D01*
X105647926Y-126584823D01*
X105645228Y-126528998D01*
X105642397Y-126501768D01*
X105633555Y-126446589D01*
X105583273Y-126311780D01*
X105560860Y-126270733D01*
X105550861Y-126252421D01*
X105550089Y-126250945D01*
X105549794Y-126250468D01*
X105549788Y-126250457D01*
X105549786Y-126250453D01*
X105463560Y-126135272D01*
X105463558Y-126135271D01*
X105463558Y-126135270D01*
X105462147Y-126134214D01*
X105461089Y-126132801D01*
X105457288Y-126129000D01*
X105457834Y-126128453D01*
X105420275Y-126078281D01*
X105412458Y-126034360D01*
X105422298Y-123973049D01*
X105442303Y-123906105D01*
X105495325Y-123860603D01*
X105546484Y-123849642D01*
X107652320Y-123852831D01*
G37*
%TD.AperFunction*%
%TD*%
M02*
