%TF.GenerationSoftware,KiCad,Pcbnew,8.0.5*%
%TF.CreationDate,2024-11-06T13:54:44-05:00*%
%TF.ProjectId,BadgeKittyv2,42616467-654b-4697-9474-7976322e6b69,rev?*%
%TF.SameCoordinates,Original*%
%TF.FileFunction,Copper,L2,Inr*%
%TF.FilePolarity,Positive*%
%FSLAX46Y46*%
G04 Gerber Fmt 4.6, Leading zero omitted, Abs format (unit mm)*
G04 Created by KiCad (PCBNEW 8.0.5) date 2024-11-06 13:54:44*
%MOMM*%
%LPD*%
G01*
G04 APERTURE LIST*
G04 Aperture macros list*
%AMHorizOval*
0 Thick line with rounded ends*
0 $1 width*
0 $2 $3 position (X,Y) of the first rounded end (center of the circle)*
0 $4 $5 position (X,Y) of the second rounded end (center of the circle)*
0 Add line between two ends*
20,1,$1,$2,$3,$4,$5,0*
0 Add two circle primitives to create the rounded ends*
1,1,$1,$2,$3*
1,1,$1,$4,$5*%
%AMRotRect*
0 Rectangle, with rotation*
0 The origin of the aperture is its center*
0 $1 length*
0 $2 width*
0 $3 Rotation angle, in degrees counterclockwise*
0 Add horizontal line*
21,1,$1,$2,0,0,$3*%
G04 Aperture macros list end*
%TA.AperFunction,ComponentPad*%
%ADD10O,1.600000X1.000000*%
%TD*%
%TA.AperFunction,ComponentPad*%
%ADD11RotRect,1.700000X1.700000X338.000000*%
%TD*%
%TA.AperFunction,ComponentPad*%
%ADD12HorizOval,1.700000X0.000000X0.000000X0.000000X0.000000X0*%
%TD*%
%TA.AperFunction,ViaPad*%
%ADD13C,0.800000*%
%TD*%
%TA.AperFunction,ViaPad*%
%ADD14C,0.600000*%
%TD*%
%TA.AperFunction,ViaPad*%
%ADD15C,0.700000*%
%TD*%
%TA.AperFunction,ViaPad*%
%ADD16C,0.550000*%
%TD*%
G04 APERTURE END LIST*
D10*
%TO.N,GND*%
%TO.C,J1*%
X132534032Y-131576843D03*
X136334032Y-131576843D03*
X132534032Y-122936843D03*
X136334032Y-122936843D03*
%TD*%
D11*
%TO.N,+5V*%
%TO.C,PROG1*%
X97738012Y-85108593D03*
D12*
%TO.N,/RST{slash}UPDI*%
X96786511Y-87463640D03*
%TO.N,GND*%
X95835011Y-89818687D03*
%TO.N,/PIN_2*%
X94883510Y-92173734D03*
%TD*%
D13*
%TO.N,GND*%
X134249666Y-130291576D03*
X138381108Y-117735428D03*
D14*
X96780056Y-129145675D03*
D13*
X110332994Y-127308665D03*
X121179530Y-85034291D03*
X126393327Y-125458379D03*
X117405569Y-118665945D03*
X125708589Y-130355449D03*
X134310797Y-124138607D03*
D14*
X101505246Y-98944873D03*
X108900621Y-93910133D03*
X104435973Y-129856249D03*
X103221773Y-126787150D03*
X119292542Y-99156044D03*
X94477385Y-129162728D03*
X104297197Y-127114156D03*
X103810624Y-130646736D03*
D13*
X101014466Y-118538056D03*
D15*
X117476905Y-102901215D03*
D13*
X126251544Y-129302441D03*
D14*
X104289017Y-128290870D03*
D13*
X114938467Y-123864283D03*
D14*
X103277433Y-128095176D03*
D15*
X102987548Y-102889241D03*
D14*
X110150406Y-93696010D03*
D16*
%TO.N,+5V*%
X115598787Y-100419504D03*
D14*
X107105925Y-126639541D03*
X99874627Y-100274462D03*
X107468462Y-128628264D03*
X113493906Y-130484962D03*
D13*
X126553378Y-119615194D03*
X125113941Y-119585566D03*
D14*
X106112615Y-125672956D03*
X106097414Y-127588302D03*
%TO.N,Net-(D1-DO)*%
X102959521Y-100927344D03*
X115813460Y-99390545D03*
D13*
%TO.N,+BATT*%
X99055888Y-127830474D03*
D14*
%TO.N,/PIN_6*%
X99398252Y-99146265D03*
D13*
X123734353Y-119056480D03*
%TO.N,/PIN_7*%
X125541965Y-118088833D03*
D14*
X109480121Y-92724221D03*
D13*
%TO.N,/PIN_2*%
X116906299Y-128331968D03*
D14*
%TO.N,/RST{slash}UPDI*%
X99838443Y-101468548D03*
X98769633Y-101056104D03*
D13*
X118080184Y-127482774D03*
%TO.N,VBUS*%
X134249666Y-125649879D03*
D14*
X114069370Y-128776256D03*
D13*
X134347180Y-128516810D03*
%TO.N,/PIN_3*%
X130566327Y-127294241D03*
%TD*%
%TA.AperFunction,Conductor*%
%TO.N,GND*%
G36*
X101186372Y-79605342D02*
G01*
X101219944Y-79605959D01*
X101224499Y-79606127D01*
X101228563Y-79606351D01*
X101256705Y-79607906D01*
X101261210Y-79608238D01*
X101293193Y-79611184D01*
X101297657Y-79611677D01*
X101329399Y-79615775D01*
X101333772Y-79616420D01*
X101365217Y-79621651D01*
X101369554Y-79622454D01*
X101400702Y-79628806D01*
X101405017Y-79629768D01*
X101435783Y-79637212D01*
X101440045Y-79638325D01*
X101451553Y-79641554D01*
X101470425Y-79646849D01*
X101474693Y-79648130D01*
X101488992Y-79652702D01*
X101504613Y-79657697D01*
X101504617Y-79657698D01*
X101508836Y-79659131D01*
X101538347Y-79669750D01*
X101542495Y-79671327D01*
X101571567Y-79682979D01*
X101575614Y-79684685D01*
X101604271Y-79697376D01*
X101608240Y-79699220D01*
X101620632Y-79705245D01*
X101636354Y-79712891D01*
X101640285Y-79714890D01*
X101649657Y-79719866D01*
X101667898Y-79729554D01*
X101671662Y-79731639D01*
X101698752Y-79747287D01*
X101702490Y-79749536D01*
X101728950Y-79766100D01*
X101732644Y-79768505D01*
X101758476Y-79785984D01*
X101762078Y-79788515D01*
X101787281Y-79806906D01*
X101787294Y-79806915D01*
X101790808Y-79809577D01*
X101815340Y-79828852D01*
X101818746Y-79831628D01*
X101842633Y-79851813D01*
X101845942Y-79854711D01*
X101869148Y-79875783D01*
X101872324Y-79878773D01*
X101894744Y-79900643D01*
X101894748Y-79900647D01*
X101897870Y-79903804D01*
X101919543Y-79926516D01*
X101922557Y-79929790D01*
X101943409Y-79953274D01*
X101946308Y-79956659D01*
X101966388Y-79980982D01*
X101969153Y-79984458D01*
X101988379Y-80009540D01*
X101991044Y-80013151D01*
X102009395Y-80038976D01*
X102011929Y-80042682D01*
X102015095Y-80047499D01*
X102029407Y-80069273D01*
X102031822Y-80073098D01*
X102048379Y-80100409D01*
X102050642Y-80104299D01*
X102066282Y-80132361D01*
X102068399Y-80136330D01*
X102083066Y-80165078D01*
X102085062Y-80169174D01*
X102099210Y-80199619D01*
X102100152Y-80201696D01*
X106847370Y-90929175D01*
X106879672Y-90995474D01*
X106879690Y-90995507D01*
X106916405Y-91058645D01*
X106916413Y-91058658D01*
X106957308Y-91118484D01*
X106957314Y-91118493D01*
X106957316Y-91118495D01*
X107002163Y-91174865D01*
X107050716Y-91227608D01*
X107050721Y-91227612D01*
X107050722Y-91227614D01*
X107079091Y-91254315D01*
X107102737Y-91276571D01*
X107157992Y-91321600D01*
X107216243Y-91362542D01*
X107277256Y-91399243D01*
X107277270Y-91399250D01*
X107277273Y-91399252D01*
X107291859Y-91406668D01*
X107340793Y-91431549D01*
X107406620Y-91459306D01*
X107474500Y-91482362D01*
X107544196Y-91500561D01*
X107615473Y-91513751D01*
X107688095Y-91521778D01*
X107712672Y-91522681D01*
X107761816Y-91524487D01*
X110945360Y-91524487D01*
X110945365Y-91524487D01*
X110948007Y-91524436D01*
X110984007Y-91523745D01*
X111022372Y-91521533D01*
X111022386Y-91521531D01*
X111022397Y-91521531D01*
X111060412Y-91517875D01*
X111060417Y-91517874D01*
X111060420Y-91517874D01*
X111098120Y-91512791D01*
X111135437Y-91506306D01*
X111172341Y-91498441D01*
X111208797Y-91489220D01*
X111244772Y-91478665D01*
X111280234Y-91466799D01*
X111315150Y-91453643D01*
X111323734Y-91450037D01*
X111349461Y-91439233D01*
X111349475Y-91439226D01*
X111349488Y-91439221D01*
X111383213Y-91423555D01*
X111416293Y-91406668D01*
X111448696Y-91388583D01*
X111480388Y-91369321D01*
X111511337Y-91348906D01*
X111541509Y-91327360D01*
X111570872Y-91304706D01*
X111599393Y-91280966D01*
X111627039Y-91256163D01*
X111653777Y-91230319D01*
X111679574Y-91203457D01*
X111704398Y-91175600D01*
X111728215Y-91146771D01*
X111750992Y-91116991D01*
X111772698Y-91086283D01*
X111793297Y-91054670D01*
X111812759Y-91022175D01*
X111831050Y-90988820D01*
X111848137Y-90954627D01*
X111863986Y-90919620D01*
X111878567Y-90883820D01*
X115973917Y-80248134D01*
X115975668Y-80243836D01*
X116003306Y-80179526D01*
X116007368Y-80170989D01*
X116038379Y-80111781D01*
X116043042Y-80103647D01*
X116078143Y-80047479D01*
X116083389Y-80039752D01*
X116122341Y-79986784D01*
X116128120Y-79979513D01*
X116170731Y-79929853D01*
X116177008Y-79923069D01*
X116180029Y-79920039D01*
X116223029Y-79876900D01*
X116229742Y-79870647D01*
X116278987Y-79828086D01*
X116286120Y-79822369D01*
X116338313Y-79783620D01*
X116345829Y-79778460D01*
X116400753Y-79743672D01*
X116408666Y-79739063D01*
X116466047Y-79708419D01*
X116474309Y-79704392D01*
X116533949Y-79678027D01*
X116542488Y-79674627D01*
X116604187Y-79652691D01*
X116613014Y-79649921D01*
X116676486Y-79632592D01*
X116685543Y-79630483D01*
X116750592Y-79617906D01*
X116759831Y-79616481D01*
X116826248Y-79608816D01*
X116835675Y-79608093D01*
X116892084Y-79605929D01*
X116905582Y-79605412D01*
X116910334Y-79605321D01*
X120295852Y-79605321D01*
X120298130Y-79605342D01*
X120301869Y-79605410D01*
X120331715Y-79605959D01*
X120336253Y-79606126D01*
X120368453Y-79607904D01*
X120372978Y-79608238D01*
X120378186Y-79608717D01*
X120404956Y-79611183D01*
X120409397Y-79611674D01*
X120441129Y-79615771D01*
X120445531Y-79616421D01*
X120476976Y-79621651D01*
X120481333Y-79622458D01*
X120512467Y-79628807D01*
X120516776Y-79629768D01*
X120547546Y-79637213D01*
X120551796Y-79638323D01*
X120582187Y-79646848D01*
X120586408Y-79648114D01*
X120616401Y-79657705D01*
X120620587Y-79659127D01*
X120629858Y-79662462D01*
X120650107Y-79669749D01*
X120654255Y-79671326D01*
X120683327Y-79682978D01*
X120687374Y-79684684D01*
X120716031Y-79697375D01*
X120720000Y-79699219D01*
X120730155Y-79704157D01*
X120748114Y-79712890D01*
X120752039Y-79714885D01*
X120779634Y-79729540D01*
X120783471Y-79731667D01*
X120810501Y-79747278D01*
X120814249Y-79749533D01*
X120840733Y-79766112D01*
X120844378Y-79768485D01*
X120870241Y-79785984D01*
X120873818Y-79788497D01*
X120899044Y-79806906D01*
X120902555Y-79809565D01*
X120918844Y-79822364D01*
X120927117Y-79828864D01*
X120930509Y-79831628D01*
X120954396Y-79851813D01*
X120957715Y-79854721D01*
X120980867Y-79875743D01*
X120984095Y-79878781D01*
X121006507Y-79900643D01*
X121009631Y-79903802D01*
X121031304Y-79926514D01*
X121034316Y-79929786D01*
X121055169Y-79953270D01*
X121058054Y-79956639D01*
X121070930Y-79972235D01*
X121078128Y-79980955D01*
X121080914Y-79984457D01*
X121100139Y-80009537D01*
X121102806Y-80013149D01*
X121121164Y-80038984D01*
X121123706Y-80042703D01*
X121141165Y-80069266D01*
X121143576Y-80073085D01*
X121160133Y-80100393D01*
X121162415Y-80104317D01*
X121178025Y-80132327D01*
X121180165Y-80136337D01*
X121194828Y-80165077D01*
X121196824Y-80169174D01*
X121210972Y-80199619D01*
X121211914Y-80201696D01*
X126197814Y-91468530D01*
X126197840Y-91468587D01*
X126204090Y-91482427D01*
X126204111Y-91482471D01*
X126210542Y-91496155D01*
X126217215Y-91509809D01*
X126218729Y-91512791D01*
X126221310Y-91517875D01*
X126224095Y-91523359D01*
X126231141Y-91536734D01*
X126238466Y-91550139D01*
X126245928Y-91563314D01*
X126253521Y-91576262D01*
X126332528Y-91710078D01*
X126439360Y-91891024D01*
X126462954Y-91930985D01*
X126463534Y-91931978D01*
X126467202Y-91938330D01*
X126666907Y-92284162D01*
X126667509Y-92285216D01*
X126671498Y-92292283D01*
X126865126Y-92635306D01*
X126865684Y-92636305D01*
X127057640Y-92984421D01*
X127058224Y-92985494D01*
X127187947Y-93226483D01*
X127244439Y-93331428D01*
X127245020Y-93332521D01*
X127256319Y-93354036D01*
X127425656Y-93676494D01*
X127426251Y-93677643D01*
X127601122Y-94019253D01*
X127601717Y-94020430D01*
X127770978Y-94359936D01*
X127771574Y-94361147D01*
X127935194Y-94698483D01*
X127935793Y-94699736D01*
X128093713Y-95034827D01*
X128094317Y-95036129D01*
X128246490Y-95368960D01*
X128247065Y-95370238D01*
X128314924Y-95523517D01*
X128393465Y-95700926D01*
X128394088Y-95702359D01*
X128534589Y-96030845D01*
X128535228Y-96032366D01*
X128669731Y-96358774D01*
X128670385Y-96360395D01*
X128798782Y-96684900D01*
X128799457Y-96686644D01*
X128921486Y-97009185D01*
X128922180Y-97011065D01*
X129037711Y-97332016D01*
X129038426Y-97334058D01*
X129147180Y-97653568D01*
X129147914Y-97655792D01*
X129249625Y-97974198D01*
X129250373Y-97976626D01*
X129344679Y-98294150D01*
X129345436Y-98296805D01*
X129431998Y-98613965D01*
X129432752Y-98616866D01*
X129511125Y-98934010D01*
X129511864Y-98937180D01*
X129581571Y-99254839D01*
X129582277Y-99258288D01*
X129642810Y-99577118D01*
X129643461Y-99580860D01*
X129694210Y-99901469D01*
X129694781Y-99905504D01*
X129735105Y-100228695D01*
X129735568Y-100233020D01*
X129764734Y-100559700D01*
X129765057Y-100564282D01*
X129782286Y-100895325D01*
X129782443Y-100900106D01*
X129786960Y-101236641D01*
X129786929Y-101241526D01*
X129778018Y-101584445D01*
X129777795Y-101589329D01*
X129754853Y-101939590D01*
X129754448Y-101944354D01*
X129717068Y-102302577D01*
X129716509Y-102307120D01*
X129664506Y-102673792D01*
X129663829Y-102678040D01*
X129597230Y-103053443D01*
X129596472Y-103057349D01*
X129515550Y-103441402D01*
X129514749Y-103444946D01*
X129419931Y-103837551D01*
X129419119Y-103840727D01*
X129311038Y-104241516D01*
X129310243Y-104244331D01*
X129189656Y-104652900D01*
X129188901Y-104655364D01*
X129056721Y-105071179D01*
X129056023Y-105073309D01*
X128913271Y-105495777D01*
X128912645Y-105497583D01*
X128760524Y-105925890D01*
X128759981Y-105927389D01*
X128599798Y-106360652D01*
X128599171Y-106362310D01*
X128259828Y-107241315D01*
X128259328Y-107242589D01*
X127550567Y-109019894D01*
X127209313Y-109901957D01*
X127048440Y-110337992D01*
X126896587Y-110769399D01*
X126755488Y-111195573D01*
X126626982Y-111615602D01*
X126512837Y-112028789D01*
X126414803Y-112434599D01*
X126334651Y-112832610D01*
X126274167Y-113222539D01*
X126235100Y-113604342D01*
X126224121Y-113792223D01*
X126219100Y-113978096D01*
X126220211Y-114161979D01*
X126227607Y-114343910D01*
X126241424Y-114523860D01*
X126261764Y-114701853D01*
X126287163Y-114867797D01*
X126288718Y-114877953D01*
X126322329Y-115052096D01*
X126345257Y-115150085D01*
X126362618Y-115224285D01*
X126409597Y-115394553D01*
X126418582Y-115422747D01*
X126463217Y-115562812D01*
X126523432Y-115729079D01*
X126523433Y-115729081D01*
X126590163Y-115893320D01*
X126663297Y-116055471D01*
X126742697Y-116215482D01*
X126828213Y-116373294D01*
X126828219Y-116373305D01*
X126828226Y-116373317D01*
X126919698Y-116528891D01*
X126919707Y-116528905D01*
X127016904Y-116682118D01*
X127016912Y-116682130D01*
X127133459Y-116847529D01*
X127227701Y-116981272D01*
X127415483Y-117216017D01*
X127458648Y-117269977D01*
X127565332Y-117388853D01*
X127707592Y-117547373D01*
X127972254Y-117812542D01*
X128250250Y-118064484D01*
X128539196Y-118302168D01*
X128836712Y-118524543D01*
X129140467Y-118730539D01*
X129448196Y-118919092D01*
X129448208Y-118919098D01*
X129448212Y-118919101D01*
X129757709Y-119089146D01*
X129757717Y-119089150D01*
X129757728Y-119089156D01*
X129757751Y-119089167D01*
X130067014Y-119239704D01*
X130067020Y-119239706D01*
X130067023Y-119239708D01*
X130374249Y-119369756D01*
X130374252Y-119369757D01*
X130374259Y-119369760D01*
X130677872Y-119478345D01*
X130677875Y-119478346D01*
X130817223Y-119518548D01*
X130976782Y-119564581D01*
X130976784Y-119564581D01*
X130976786Y-119564582D01*
X131124252Y-119599043D01*
X131270346Y-119627596D01*
X131415090Y-119650145D01*
X131558517Y-119666601D01*
X131700710Y-119676877D01*
X131841763Y-119680901D01*
X131956641Y-119679019D01*
X131981810Y-119678608D01*
X132065609Y-119673389D01*
X132120942Y-119669944D01*
X132120983Y-119669939D01*
X132120989Y-119669939D01*
X132142045Y-119667646D01*
X132259335Y-119654876D01*
X132397126Y-119633385D01*
X132534460Y-119605461D01*
X132671479Y-119571129D01*
X132808317Y-119530416D01*
X132945098Y-119483386D01*
X133081941Y-119430114D01*
X133218955Y-119370690D01*
X133493842Y-119233871D01*
X133770393Y-119074045D01*
X134049047Y-118892583D01*
X134207246Y-118779150D01*
X134330033Y-118691109D01*
X134456891Y-118592768D01*
X134613394Y-118471447D01*
X134898962Y-118235646D01*
X135186452Y-117985903D01*
X135475430Y-117724578D01*
X135765366Y-117454146D01*
X136055645Y-117177188D01*
X136634406Y-116614407D01*
X137205199Y-116058344D01*
X137205746Y-116057816D01*
X137485431Y-115789735D01*
X137486329Y-115788884D01*
X137517185Y-115759919D01*
X137761086Y-115530963D01*
X137762219Y-115529914D01*
X138030996Y-115284913D01*
X138032662Y-115283424D01*
X138294314Y-115054095D01*
X138296655Y-115052096D01*
X138550093Y-114841023D01*
X138553167Y-114838546D01*
X138797929Y-114647687D01*
X138800778Y-114645532D01*
X138918679Y-114559080D01*
X138920913Y-114557480D01*
X139036587Y-114476674D01*
X139039081Y-114474980D01*
X139151885Y-114400446D01*
X139154781Y-114398592D01*
X139264567Y-114330575D01*
X139267968Y-114328546D01*
X139374446Y-114267344D01*
X139378409Y-114265163D01*
X139481530Y-114210908D01*
X139486139Y-114208607D01*
X139585643Y-114161523D01*
X139591052Y-114159119D01*
X139686832Y-114119303D01*
X139693051Y-114116915D01*
X139784858Y-114084490D01*
X139792114Y-114082177D01*
X139879748Y-114057191D01*
X139888138Y-114055114D01*
X139935020Y-114045223D01*
X139971455Y-114037536D01*
X139981034Y-114035905D01*
X140059944Y-114025644D01*
X140070759Y-114024719D01*
X140145169Y-114021631D01*
X140157155Y-114021713D01*
X140227208Y-114025599D01*
X140240147Y-114027002D01*
X140306051Y-114037679D01*
X140319576Y-114040654D01*
X140381785Y-114058041D01*
X140395348Y-114062694D01*
X140454357Y-114086851D01*
X140467438Y-114093125D01*
X140523759Y-114124313D01*
X140535794Y-114131911D01*
X140589899Y-114170583D01*
X140600497Y-114179071D01*
X140652626Y-114225741D01*
X140661622Y-114234666D01*
X140711823Y-114289840D01*
X140719232Y-114298792D01*
X140767409Y-114362896D01*
X140773340Y-114371524D01*
X140819326Y-114444903D01*
X140823998Y-114453026D01*
X140867528Y-114535811D01*
X140871167Y-114543336D01*
X140912041Y-114635690D01*
X140914835Y-114642551D01*
X140952836Y-114744462D01*
X140954971Y-114750687D01*
X140989934Y-114862196D01*
X140991547Y-114867797D01*
X141023350Y-114988890D01*
X141024563Y-114993939D01*
X141053067Y-115124500D01*
X141053971Y-115129043D01*
X141079116Y-115269138D01*
X141079779Y-115273223D01*
X141101494Y-115422747D01*
X141101973Y-115426437D01*
X141120198Y-115585317D01*
X141120535Y-115588652D01*
X141135239Y-115756897D01*
X141135466Y-115759919D01*
X141146620Y-115937483D01*
X141146762Y-115940231D01*
X141154342Y-116127080D01*
X141154418Y-116129583D01*
X141158406Y-116325526D01*
X141158432Y-116328049D01*
X141158432Y-116547305D01*
X141142251Y-116608552D01*
X137817515Y-122461407D01*
X137815621Y-122555492D01*
X137794591Y-122622122D01*
X137740876Y-122666805D01*
X137671532Y-122675354D01*
X137608573Y-122645055D01*
X137577085Y-122600448D01*
X137520224Y-122463171D01*
X137520217Y-122463158D01*
X137410783Y-122299380D01*
X137410780Y-122299376D01*
X137271498Y-122160094D01*
X137271494Y-122160091D01*
X137107716Y-122050657D01*
X137107703Y-122050650D01*
X136925725Y-121975273D01*
X136925713Y-121975270D01*
X136732527Y-121936843D01*
X136584032Y-121936843D01*
X136584032Y-122636843D01*
X136084032Y-122636843D01*
X136084032Y-121936843D01*
X135935536Y-121936843D01*
X135742350Y-121975270D01*
X135742338Y-121975273D01*
X135560360Y-122050650D01*
X135560347Y-122050657D01*
X135396569Y-122160091D01*
X135396565Y-122160094D01*
X135257283Y-122299376D01*
X135257280Y-122299380D01*
X135147846Y-122463158D01*
X135147839Y-122463171D01*
X135072462Y-122645150D01*
X135072462Y-122645152D01*
X135064170Y-122686843D01*
X135867044Y-122686843D01*
X135849827Y-122696783D01*
X135793972Y-122752638D01*
X135754476Y-122821047D01*
X135734032Y-122897347D01*
X135734032Y-122976339D01*
X135754476Y-123052639D01*
X135793972Y-123121048D01*
X135849827Y-123176903D01*
X135867044Y-123186843D01*
X135064170Y-123186843D01*
X135072462Y-123228533D01*
X135072462Y-123228535D01*
X135147839Y-123410514D01*
X135147846Y-123410527D01*
X135257280Y-123574305D01*
X135257283Y-123574309D01*
X135396565Y-123713591D01*
X135396569Y-123713594D01*
X135560347Y-123823028D01*
X135560360Y-123823035D01*
X135742338Y-123898412D01*
X135742350Y-123898415D01*
X135935536Y-123936842D01*
X135935540Y-123936843D01*
X136084032Y-123936843D01*
X136084032Y-123236843D01*
X136584032Y-123236843D01*
X136584032Y-123936843D01*
X136732524Y-123936843D01*
X136732527Y-123936842D01*
X136925713Y-123898415D01*
X136925725Y-123898412D01*
X137107703Y-123823035D01*
X137107716Y-123823028D01*
X137271494Y-123713594D01*
X137271498Y-123713591D01*
X137410780Y-123574309D01*
X137410783Y-123574305D01*
X137520217Y-123410527D01*
X137520223Y-123410515D01*
X137560842Y-123312452D01*
X137604682Y-123258048D01*
X137670976Y-123235983D01*
X137738676Y-123253262D01*
X137786286Y-123304398D01*
X137799378Y-123362400D01*
X137791742Y-123741726D01*
X137775029Y-131069602D01*
X137775099Y-131094765D01*
X137755598Y-131161858D01*
X137702921Y-131207758D01*
X137633790Y-131217892D01*
X137570154Y-131189042D01*
X137536537Y-131142557D01*
X137520221Y-131103165D01*
X137520217Y-131103158D01*
X137410783Y-130939380D01*
X137410780Y-130939376D01*
X137271498Y-130800094D01*
X137271494Y-130800091D01*
X137107716Y-130690657D01*
X137107703Y-130690650D01*
X136925725Y-130615273D01*
X136925713Y-130615270D01*
X136732527Y-130576843D01*
X136584032Y-130576843D01*
X136584032Y-131276843D01*
X136084032Y-131276843D01*
X136084032Y-130576843D01*
X135935536Y-130576843D01*
X135742350Y-130615270D01*
X135742338Y-130615273D01*
X135560360Y-130690650D01*
X135560347Y-130690657D01*
X135396569Y-130800091D01*
X135396565Y-130800094D01*
X135257283Y-130939376D01*
X135257280Y-130939380D01*
X135147846Y-131103158D01*
X135147839Y-131103171D01*
X135072462Y-131285150D01*
X135072462Y-131285152D01*
X135064170Y-131326843D01*
X135867044Y-131326843D01*
X135849827Y-131336783D01*
X135793972Y-131392638D01*
X135754476Y-131461047D01*
X135734032Y-131537347D01*
X135734032Y-131616339D01*
X135754476Y-131692639D01*
X135793972Y-131761048D01*
X135849827Y-131816903D01*
X135867044Y-131826843D01*
X135064170Y-131826843D01*
X135072462Y-131868533D01*
X135072462Y-131868535D01*
X135147839Y-132050514D01*
X135147846Y-132050527D01*
X135257280Y-132214305D01*
X135257283Y-132214309D01*
X135396565Y-132353591D01*
X135396569Y-132353594D01*
X135560347Y-132463028D01*
X135560360Y-132463035D01*
X135742338Y-132538412D01*
X135742350Y-132538415D01*
X135935536Y-132576842D01*
X135935540Y-132576843D01*
X136084032Y-132576843D01*
X136084032Y-131876843D01*
X136584032Y-131876843D01*
X136584032Y-132576843D01*
X136732524Y-132576843D01*
X136732527Y-132576842D01*
X136925713Y-132538415D01*
X136925725Y-132538412D01*
X137107703Y-132463035D01*
X137107716Y-132463028D01*
X137271494Y-132353594D01*
X137271498Y-132353591D01*
X137410780Y-132214309D01*
X137410783Y-132214305D01*
X137520217Y-132050527D01*
X137520224Y-132050514D01*
X137573658Y-131921512D01*
X137617498Y-131867108D01*
X137683792Y-131845043D01*
X137751492Y-131862322D01*
X137799103Y-131913459D01*
X137800111Y-131915522D01*
X137835270Y-131989188D01*
X137844702Y-132017054D01*
X137863510Y-132106397D01*
X137866129Y-132135118D01*
X137863613Y-132233280D01*
X137862026Y-132250128D01*
X137838047Y-132396665D01*
X137828826Y-132427363D01*
X137759049Y-132583019D01*
X137748675Y-132601670D01*
X137677458Y-132707177D01*
X137662363Y-132725484D01*
X137571384Y-132816463D01*
X137500460Y-132886934D01*
X137439030Y-132920222D01*
X137413014Y-132922972D01*
X135469397Y-132922245D01*
X135469395Y-132922244D01*
X135469391Y-132922245D01*
X134462825Y-132921813D01*
X134462799Y-132921813D01*
X133384041Y-132921813D01*
X133383880Y-132921813D01*
X133152478Y-132922416D01*
X133062247Y-132922651D01*
X133061603Y-132922651D01*
X132968412Y-132922409D01*
X132738299Y-132921813D01*
X132738149Y-132921813D01*
X132738144Y-132921813D01*
X97350855Y-132924980D01*
X97346586Y-132924907D01*
X97009792Y-132913334D01*
X97001306Y-132912750D01*
X96668964Y-132878411D01*
X96660550Y-132877250D01*
X96331625Y-132820291D01*
X96323315Y-132818557D01*
X95999001Y-132739212D01*
X95990820Y-132736910D01*
X95672294Y-132635408D01*
X95664280Y-132632548D01*
X95352757Y-132509159D01*
X95344950Y-132505752D01*
X95043001Y-132361444D01*
X95035460Y-132357517D01*
X94744544Y-132193100D01*
X94737293Y-132188668D01*
X94697717Y-132162571D01*
X94458379Y-132004750D01*
X94451464Y-131999842D01*
X94185603Y-131797095D01*
X94179017Y-131791706D01*
X93927173Y-131570745D01*
X93920967Y-131564910D01*
X93685078Y-131327373D01*
X93684587Y-131326843D01*
X131264170Y-131326843D01*
X132067044Y-131326843D01*
X132049827Y-131336783D01*
X131993972Y-131392638D01*
X131954476Y-131461047D01*
X131934032Y-131537347D01*
X131934032Y-131616339D01*
X131954476Y-131692639D01*
X131993972Y-131761048D01*
X132049827Y-131816903D01*
X132067044Y-131826843D01*
X131264170Y-131826843D01*
X131272462Y-131868533D01*
X131272462Y-131868535D01*
X131347839Y-132050514D01*
X131347846Y-132050527D01*
X131457280Y-132214305D01*
X131457283Y-132214309D01*
X131596565Y-132353591D01*
X131596569Y-132353594D01*
X131760347Y-132463028D01*
X131760360Y-132463035D01*
X131942338Y-132538412D01*
X131942350Y-132538415D01*
X132135536Y-132576842D01*
X132135540Y-132576843D01*
X132284032Y-132576843D01*
X132284032Y-131876843D01*
X132784032Y-131876843D01*
X132784032Y-132576843D01*
X132932524Y-132576843D01*
X132932527Y-132576842D01*
X133125713Y-132538415D01*
X133125725Y-132538412D01*
X133307703Y-132463035D01*
X133307716Y-132463028D01*
X133471494Y-132353594D01*
X133471498Y-132353591D01*
X133610780Y-132214309D01*
X133610783Y-132214305D01*
X133720217Y-132050527D01*
X133720224Y-132050514D01*
X133795601Y-131868535D01*
X133795601Y-131868533D01*
X133803894Y-131826843D01*
X133001020Y-131826843D01*
X133018237Y-131816903D01*
X133074092Y-131761048D01*
X133113588Y-131692639D01*
X133134032Y-131616339D01*
X133134032Y-131537347D01*
X133113588Y-131461047D01*
X133074092Y-131392638D01*
X133018237Y-131336783D01*
X133001020Y-131326843D01*
X133803894Y-131326843D01*
X133795601Y-131285152D01*
X133795601Y-131285150D01*
X133720224Y-131103171D01*
X133720217Y-131103158D01*
X133610783Y-130939380D01*
X133610780Y-130939376D01*
X133471498Y-130800094D01*
X133471494Y-130800091D01*
X133307716Y-130690657D01*
X133307703Y-130690650D01*
X133125725Y-130615273D01*
X133125713Y-130615270D01*
X132932527Y-130576843D01*
X132784032Y-130576843D01*
X132784032Y-131276843D01*
X132284032Y-131276843D01*
X132284032Y-130576843D01*
X132135536Y-130576843D01*
X131942350Y-130615270D01*
X131942338Y-130615273D01*
X131760360Y-130690650D01*
X131760347Y-130690657D01*
X131596569Y-130800091D01*
X131596565Y-130800094D01*
X131457283Y-130939376D01*
X131457280Y-130939380D01*
X131347846Y-131103158D01*
X131347839Y-131103171D01*
X131272462Y-131285150D01*
X131272462Y-131285152D01*
X131264170Y-131326843D01*
X93684587Y-131326843D01*
X93679296Y-131321137D01*
X93564993Y-131189042D01*
X93460593Y-131068391D01*
X93455260Y-131061783D01*
X93258474Y-130800094D01*
X93254487Y-130794792D01*
X93249619Y-130787836D01*
X93186468Y-130690650D01*
X93067464Y-130507509D01*
X93063088Y-130500239D01*
X93054589Y-130484958D01*
X112688341Y-130484958D01*
X112688341Y-130484965D01*
X112708536Y-130664211D01*
X112708537Y-130664216D01*
X112768117Y-130834485D01*
X112864090Y-130987224D01*
X112991644Y-131114778D01*
X113035854Y-131142557D01*
X113139620Y-131207758D01*
X113144384Y-131210751D01*
X113314651Y-131270330D01*
X113314656Y-131270331D01*
X113493902Y-131290527D01*
X113493906Y-131290527D01*
X113493910Y-131290527D01*
X113673155Y-131270331D01*
X113673158Y-131270330D01*
X113673161Y-131270330D01*
X113843428Y-131210751D01*
X113996168Y-131114778D01*
X114123722Y-130987224D01*
X114219695Y-130834484D01*
X114279274Y-130664217D01*
X114299471Y-130484962D01*
X114279274Y-130305707D01*
X114219695Y-130135440D01*
X114123722Y-129982700D01*
X113996168Y-129855146D01*
X113910142Y-129801092D01*
X113863851Y-129748757D01*
X113853203Y-129679703D01*
X113881578Y-129615855D01*
X113939968Y-129577483D01*
X113989998Y-129572878D01*
X114069367Y-129581821D01*
X114069370Y-129581821D01*
X114069374Y-129581821D01*
X114248619Y-129561625D01*
X114248622Y-129561624D01*
X114248625Y-129561624D01*
X114418892Y-129502045D01*
X114571632Y-129406072D01*
X114699186Y-129278518D01*
X114795159Y-129125778D01*
X114854738Y-128955511D01*
X114865028Y-128864184D01*
X114874935Y-128776259D01*
X114874935Y-128776252D01*
X114854739Y-128597006D01*
X114854738Y-128597001D01*
X114795159Y-128426734D01*
X114735614Y-128331968D01*
X116000839Y-128331968D01*
X116020625Y-128520224D01*
X116020626Y-128520227D01*
X116079117Y-128700245D01*
X116079120Y-128700252D01*
X116173766Y-128864184D01*
X116276054Y-128977786D01*
X116300428Y-129004856D01*
X116453564Y-129116116D01*
X116453569Y-129116119D01*
X116626491Y-129193110D01*
X116626496Y-129193112D01*
X116811653Y-129232468D01*
X116811654Y-129232468D01*
X117000943Y-129232468D01*
X117000945Y-129232468D01*
X117186102Y-129193112D01*
X117359029Y-129116119D01*
X117512170Y-129004856D01*
X117638832Y-128864184D01*
X117733478Y-128700252D01*
X117791973Y-128520224D01*
X117792332Y-128516810D01*
X133441720Y-128516810D01*
X133461506Y-128705066D01*
X133461507Y-128705069D01*
X133519998Y-128885087D01*
X133520001Y-128885094D01*
X133614647Y-129049026D01*
X133675058Y-129116119D01*
X133741309Y-129189698D01*
X133894445Y-129300958D01*
X133894450Y-129300961D01*
X134067372Y-129377952D01*
X134067377Y-129377954D01*
X134252534Y-129417310D01*
X134252535Y-129417310D01*
X134441824Y-129417310D01*
X134441826Y-129417310D01*
X134626983Y-129377954D01*
X134799910Y-129300961D01*
X134953051Y-129189698D01*
X135079713Y-129049026D01*
X135174359Y-128885094D01*
X135232854Y-128705066D01*
X135252640Y-128516810D01*
X135232854Y-128328554D01*
X135174359Y-128148526D01*
X135079713Y-127984594D01*
X134953051Y-127843922D01*
X134951639Y-127842896D01*
X134799914Y-127732661D01*
X134799909Y-127732658D01*
X134626987Y-127655667D01*
X134626982Y-127655665D01*
X134481181Y-127624675D01*
X134441826Y-127616310D01*
X134252534Y-127616310D01*
X134220077Y-127623208D01*
X134067377Y-127655665D01*
X134067372Y-127655667D01*
X133894450Y-127732658D01*
X133894445Y-127732661D01*
X133741309Y-127843921D01*
X133614646Y-127984595D01*
X133520001Y-128148525D01*
X133519998Y-128148532D01*
X133466205Y-128314091D01*
X133461506Y-128328554D01*
X133441720Y-128516810D01*
X117792332Y-128516810D01*
X117795886Y-128482985D01*
X117822468Y-128418371D01*
X117879764Y-128378384D01*
X117944985Y-128374654D01*
X117985538Y-128383274D01*
X117985541Y-128383274D01*
X118174828Y-128383274D01*
X118174830Y-128383274D01*
X118359987Y-128343918D01*
X118532914Y-128266925D01*
X118686055Y-128155662D01*
X118812717Y-128014990D01*
X118907363Y-127851058D01*
X118965858Y-127671030D01*
X118985644Y-127482774D01*
X118965858Y-127294518D01*
X118965768Y-127294241D01*
X129660867Y-127294241D01*
X129680653Y-127482497D01*
X129680654Y-127482500D01*
X129739145Y-127662518D01*
X129739148Y-127662525D01*
X129833794Y-127826457D01*
X129936750Y-127940801D01*
X129960456Y-127967129D01*
X130113592Y-128078389D01*
X130113597Y-128078392D01*
X130286519Y-128155383D01*
X130286524Y-128155385D01*
X130471681Y-128194741D01*
X130471682Y-128194741D01*
X130660971Y-128194741D01*
X130660973Y-128194741D01*
X130846130Y-128155385D01*
X131019057Y-128078392D01*
X131172198Y-127967129D01*
X131298860Y-127826457D01*
X131393506Y-127662525D01*
X131452001Y-127482497D01*
X131471787Y-127294241D01*
X131452001Y-127105985D01*
X131393506Y-126925957D01*
X131298860Y-126762025D01*
X131172198Y-126621353D01*
X131142047Y-126599447D01*
X131019061Y-126510092D01*
X131019056Y-126510089D01*
X130846134Y-126433098D01*
X130846129Y-126433096D01*
X130684510Y-126398744D01*
X130660973Y-126393741D01*
X130471681Y-126393741D01*
X130448144Y-126398744D01*
X130286524Y-126433096D01*
X130286519Y-126433098D01*
X130113597Y-126510089D01*
X130113592Y-126510092D01*
X129960456Y-126621352D01*
X129833793Y-126762026D01*
X129739148Y-126925956D01*
X129739145Y-126925963D01*
X129680654Y-127105981D01*
X129680653Y-127105985D01*
X129660867Y-127294241D01*
X118965768Y-127294241D01*
X118907363Y-127114490D01*
X118812717Y-126950558D01*
X118686055Y-126809886D01*
X118686054Y-126809885D01*
X118532918Y-126698625D01*
X118532913Y-126698622D01*
X118359991Y-126621631D01*
X118359986Y-126621629D01*
X118214185Y-126590639D01*
X118174830Y-126582274D01*
X117985538Y-126582274D01*
X117953081Y-126589172D01*
X117800381Y-126621629D01*
X117800376Y-126621631D01*
X117627454Y-126698622D01*
X117627449Y-126698625D01*
X117474313Y-126809885D01*
X117347650Y-126950559D01*
X117253005Y-127114489D01*
X117253002Y-127114496D01*
X117202685Y-127269357D01*
X117194510Y-127294518D01*
X117190596Y-127331760D01*
X117164010Y-127396375D01*
X117106712Y-127436358D01*
X117041494Y-127440086D01*
X117000945Y-127431468D01*
X116811653Y-127431468D01*
X116783209Y-127437514D01*
X116626496Y-127470823D01*
X116626491Y-127470825D01*
X116453569Y-127547816D01*
X116453564Y-127547819D01*
X116300428Y-127659079D01*
X116173765Y-127799753D01*
X116079120Y-127963683D01*
X116079117Y-127963690D01*
X116020626Y-128143708D01*
X116020625Y-128143712D01*
X116000839Y-128331968D01*
X114735614Y-128331968D01*
X114699186Y-128273994D01*
X114571632Y-128146440D01*
X114539104Y-128126001D01*
X114418893Y-128050467D01*
X114248624Y-127990887D01*
X114248619Y-127990886D01*
X114069374Y-127970691D01*
X114069366Y-127970691D01*
X113890120Y-127990886D01*
X113890115Y-127990887D01*
X113719846Y-128050467D01*
X113567107Y-128146440D01*
X113439554Y-128273993D01*
X113343581Y-128426732D01*
X113284001Y-128597001D01*
X113284000Y-128597006D01*
X113263805Y-128776252D01*
X113263805Y-128776259D01*
X113284000Y-128955505D01*
X113284001Y-128955510D01*
X113343581Y-129125779D01*
X113410619Y-129232468D01*
X113439554Y-129278518D01*
X113567108Y-129406072D01*
X113611283Y-129433829D01*
X113653133Y-129460125D01*
X113699424Y-129512460D01*
X113710072Y-129581513D01*
X113681697Y-129645362D01*
X113623307Y-129683734D01*
X113573278Y-129688339D01*
X113493910Y-129679397D01*
X113493902Y-129679397D01*
X113314656Y-129699592D01*
X113314651Y-129699593D01*
X113144382Y-129759173D01*
X112991643Y-129855146D01*
X112864090Y-129982699D01*
X112768117Y-130135438D01*
X112708537Y-130305707D01*
X112708536Y-130305712D01*
X112688341Y-130484958D01*
X93054589Y-130484958D01*
X92899249Y-130205660D01*
X92897262Y-130201937D01*
X92192544Y-128825656D01*
X92192542Y-128825654D01*
X92183253Y-128807513D01*
X91840560Y-128138244D01*
X91840559Y-128138235D01*
X91840557Y-128138237D01*
X91757805Y-127976594D01*
X91757813Y-127976589D01*
X91757789Y-127976563D01*
X91749913Y-127961169D01*
X91683050Y-127830474D01*
X98150428Y-127830474D01*
X98170214Y-128018730D01*
X98170215Y-128018733D01*
X98228706Y-128198751D01*
X98228709Y-128198758D01*
X98323355Y-128362690D01*
X98401082Y-128449014D01*
X98450017Y-128503362D01*
X98603153Y-128614622D01*
X98603158Y-128614625D01*
X98776080Y-128691616D01*
X98776085Y-128691618D01*
X98961242Y-128730974D01*
X98961243Y-128730974D01*
X99150532Y-128730974D01*
X99150534Y-128730974D01*
X99335691Y-128691618D01*
X99508618Y-128614625D01*
X99661759Y-128503362D01*
X99788421Y-128362690D01*
X99883067Y-128198758D01*
X99941562Y-128018730D01*
X99961348Y-127830474D01*
X99941562Y-127642218D01*
X99924042Y-127588298D01*
X105291849Y-127588298D01*
X105291849Y-127588305D01*
X105312044Y-127767551D01*
X105312045Y-127767556D01*
X105371625Y-127937825D01*
X105442403Y-128050467D01*
X105467598Y-128090564D01*
X105595152Y-128218118D01*
X105747892Y-128314091D01*
X105798982Y-128331968D01*
X105918159Y-128373670D01*
X105918164Y-128373671D01*
X106097410Y-128393867D01*
X106097414Y-128393867D01*
X106097418Y-128393867D01*
X106276663Y-128373671D01*
X106276666Y-128373670D01*
X106276669Y-128373670D01*
X106446936Y-128314091D01*
X106510109Y-128274396D01*
X106577344Y-128255396D01*
X106644180Y-128275763D01*
X106689394Y-128329030D01*
X106698633Y-128398287D01*
X106693124Y-128420342D01*
X106683094Y-128449007D01*
X106683092Y-128449014D01*
X106662897Y-128628260D01*
X106662897Y-128628267D01*
X106683092Y-128807513D01*
X106683093Y-128807518D01*
X106742673Y-128977787D01*
X106759682Y-129004856D01*
X106838646Y-129130526D01*
X106966200Y-129258080D01*
X107118940Y-129354053D01*
X107267599Y-129406071D01*
X107289207Y-129413632D01*
X107289212Y-129413633D01*
X107468458Y-129433829D01*
X107468462Y-129433829D01*
X107468466Y-129433829D01*
X107647711Y-129413633D01*
X107647714Y-129413632D01*
X107647717Y-129413632D01*
X107817984Y-129354053D01*
X107970724Y-129258080D01*
X108098278Y-129130526D01*
X108194251Y-128977786D01*
X108253830Y-128807519D01*
X108257352Y-128776259D01*
X108274027Y-128628267D01*
X108274027Y-128628260D01*
X108253831Y-128449014D01*
X108253830Y-128449009D01*
X108217056Y-128343916D01*
X108194251Y-128278742D01*
X108098278Y-128126002D01*
X107970724Y-127998448D01*
X107915407Y-127963690D01*
X107817985Y-127902475D01*
X107647716Y-127842895D01*
X107647711Y-127842894D01*
X107468466Y-127822699D01*
X107468458Y-127822699D01*
X107289212Y-127842894D01*
X107289207Y-127842895D01*
X107118936Y-127902476D01*
X107055765Y-127942169D01*
X106988529Y-127961169D01*
X106921693Y-127940801D01*
X106876480Y-127887533D01*
X106867243Y-127818276D01*
X106872753Y-127796219D01*
X106882781Y-127767561D01*
X106882783Y-127767551D01*
X106902979Y-127588305D01*
X106902979Y-127588302D01*
X106901437Y-127574620D01*
X106913490Y-127505798D01*
X106960838Y-127454418D01*
X107028448Y-127436792D01*
X107038541Y-127437514D01*
X107105922Y-127445106D01*
X107105925Y-127445106D01*
X107105929Y-127445106D01*
X107285174Y-127424910D01*
X107285177Y-127424909D01*
X107285180Y-127424909D01*
X107455447Y-127365330D01*
X107608187Y-127269357D01*
X107735741Y-127141803D01*
X107831714Y-126989063D01*
X107891293Y-126818796D01*
X107891294Y-126818790D01*
X107911490Y-126639544D01*
X107911490Y-126639537D01*
X107891294Y-126460291D01*
X107891293Y-126460286D01*
X107882105Y-126434027D01*
X107831714Y-126290019D01*
X107735741Y-126137279D01*
X107608187Y-126009725D01*
X107455448Y-125913752D01*
X107285179Y-125854172D01*
X107285174Y-125854171D01*
X107105929Y-125833976D01*
X107105921Y-125833976D01*
X107051902Y-125840062D01*
X106983080Y-125828007D01*
X106931701Y-125780658D01*
X106914077Y-125713047D01*
X106914797Y-125702978D01*
X106918180Y-125672956D01*
X106915580Y-125649879D01*
X133344206Y-125649879D01*
X133363992Y-125838135D01*
X133363993Y-125838138D01*
X133422484Y-126018156D01*
X133422487Y-126018163D01*
X133517133Y-126182095D01*
X133625791Y-126302772D01*
X133643795Y-126322767D01*
X133796931Y-126434027D01*
X133796936Y-126434030D01*
X133969858Y-126511021D01*
X133969863Y-126511023D01*
X134155020Y-126550379D01*
X134155021Y-126550379D01*
X134344310Y-126550379D01*
X134344312Y-126550379D01*
X134529469Y-126511023D01*
X134702396Y-126434030D01*
X134855537Y-126322767D01*
X134982199Y-126182095D01*
X135076845Y-126018163D01*
X135135340Y-125838135D01*
X135155126Y-125649879D01*
X135135340Y-125461623D01*
X135076845Y-125281595D01*
X134982199Y-125117663D01*
X134855537Y-124976991D01*
X134814488Y-124947167D01*
X134702400Y-124865730D01*
X134702395Y-124865727D01*
X134529473Y-124788736D01*
X134529468Y-124788734D01*
X134383667Y-124757744D01*
X134344312Y-124749379D01*
X134155020Y-124749379D01*
X134122563Y-124756277D01*
X133969863Y-124788734D01*
X133969858Y-124788736D01*
X133796936Y-124865727D01*
X133796931Y-124865730D01*
X133643795Y-124976990D01*
X133517132Y-125117664D01*
X133422487Y-125281594D01*
X133422484Y-125281601D01*
X133363993Y-125461619D01*
X133363992Y-125461623D01*
X133344206Y-125649879D01*
X106915580Y-125649879D01*
X106903796Y-125545296D01*
X106897984Y-125493706D01*
X106897983Y-125493701D01*
X106838403Y-125323432D01*
X106742430Y-125170693D01*
X106614877Y-125043140D01*
X106462138Y-124947167D01*
X106291869Y-124887587D01*
X106291864Y-124887586D01*
X106112619Y-124867391D01*
X106112611Y-124867391D01*
X105933365Y-124887586D01*
X105933360Y-124887587D01*
X105763091Y-124947167D01*
X105610352Y-125043140D01*
X105482799Y-125170693D01*
X105386826Y-125323432D01*
X105327246Y-125493701D01*
X105327245Y-125493706D01*
X105307050Y-125672952D01*
X105307050Y-125672959D01*
X105327245Y-125852205D01*
X105327246Y-125852210D01*
X105386826Y-126022479D01*
X105458960Y-126137278D01*
X105482799Y-126175218D01*
X105610353Y-126302772D01*
X105763093Y-126398745D01*
X105863932Y-126434030D01*
X105933360Y-126458324D01*
X105933365Y-126458325D01*
X106112611Y-126478521D01*
X106112615Y-126478521D01*
X106112616Y-126478521D01*
X106123163Y-126477332D01*
X106166636Y-126472434D01*
X106235457Y-126484488D01*
X106286837Y-126531836D01*
X106304462Y-126599447D01*
X106303740Y-126609537D01*
X106300360Y-126639536D01*
X106300360Y-126639537D01*
X106300360Y-126639541D01*
X106301902Y-126653227D01*
X106289845Y-126722049D01*
X106242495Y-126773427D01*
X106174884Y-126791050D01*
X106164799Y-126790328D01*
X106097419Y-126782737D01*
X106097410Y-126782737D01*
X105918164Y-126802932D01*
X105918159Y-126802933D01*
X105747890Y-126862513D01*
X105595151Y-126958486D01*
X105467598Y-127086039D01*
X105371625Y-127238778D01*
X105312045Y-127409047D01*
X105312044Y-127409052D01*
X105291849Y-127588298D01*
X99924042Y-127588298D01*
X99883067Y-127462190D01*
X99788421Y-127298258D01*
X99661759Y-127157586D01*
X99661758Y-127157585D01*
X99508622Y-127046325D01*
X99508617Y-127046322D01*
X99335695Y-126969331D01*
X99335690Y-126969329D01*
X99189889Y-126938339D01*
X99150534Y-126929974D01*
X98961242Y-126929974D01*
X98928785Y-126936872D01*
X98776085Y-126969329D01*
X98776080Y-126969331D01*
X98603158Y-127046322D01*
X98603153Y-127046325D01*
X98450017Y-127157585D01*
X98323354Y-127298259D01*
X98228709Y-127462189D01*
X98228706Y-127462196D01*
X98178632Y-127616310D01*
X98170214Y-127642218D01*
X98150428Y-127830474D01*
X91683050Y-127830474D01*
X91679905Y-127824326D01*
X91606649Y-127680979D01*
X91606633Y-127680897D01*
X91606613Y-127680908D01*
X91537693Y-127545824D01*
X91537638Y-127545716D01*
X91472916Y-127418552D01*
X91472844Y-127418410D01*
X91412048Y-127298580D01*
X91411958Y-127298402D01*
X91397280Y-127269356D01*
X91354847Y-127185383D01*
X91301079Y-127078448D01*
X91250511Y-126977253D01*
X91203008Y-126881490D01*
X91202753Y-126880972D01*
X91167974Y-126809885D01*
X91115877Y-126703399D01*
X91115397Y-126702405D01*
X91113590Y-126698625D01*
X91037732Y-126539899D01*
X91037131Y-126538623D01*
X90988597Y-126434030D01*
X90966865Y-126387198D01*
X90965888Y-126385037D01*
X90838847Y-126096345D01*
X90837494Y-126093148D01*
X90724426Y-125815364D01*
X90722964Y-125811598D01*
X90626248Y-125549879D01*
X90624656Y-125545296D01*
X90544280Y-125298340D01*
X90542632Y-125292843D01*
X90478353Y-125058701D01*
X90476749Y-125052163D01*
X90426752Y-124821367D01*
X90425383Y-124813964D01*
X90415452Y-124749379D01*
X90389291Y-124579252D01*
X90388352Y-124571548D01*
X90366398Y-124327192D01*
X90365953Y-124319654D01*
X90358522Y-124059844D01*
X90358500Y-124053609D01*
X90361868Y-123898412D01*
X90363258Y-123834354D01*
X90363464Y-123829420D01*
X90378249Y-123591366D01*
X90378600Y-123586994D01*
X90404056Y-123328232D01*
X90404365Y-123325433D01*
X90421163Y-123188587D01*
X90421359Y-123187078D01*
X90441026Y-123044226D01*
X90441262Y-123042600D01*
X90463749Y-122894254D01*
X90463947Y-122893003D01*
X90489299Y-122738855D01*
X90489471Y-122737842D01*
X90498467Y-122686843D01*
X131264170Y-122686843D01*
X132067044Y-122686843D01*
X132049827Y-122696783D01*
X131993972Y-122752638D01*
X131954476Y-122821047D01*
X131934032Y-122897347D01*
X131934032Y-122976339D01*
X131954476Y-123052639D01*
X131993972Y-123121048D01*
X132049827Y-123176903D01*
X132067044Y-123186843D01*
X131264170Y-123186843D01*
X131272462Y-123228533D01*
X131272462Y-123228535D01*
X131347839Y-123410514D01*
X131347846Y-123410527D01*
X131457280Y-123574305D01*
X131457283Y-123574309D01*
X131596565Y-123713591D01*
X131596569Y-123713594D01*
X131760347Y-123823028D01*
X131760360Y-123823035D01*
X131942338Y-123898412D01*
X131942350Y-123898415D01*
X132135536Y-123936842D01*
X132135540Y-123936843D01*
X132284032Y-123936843D01*
X132284032Y-123236843D01*
X132784032Y-123236843D01*
X132784032Y-123936843D01*
X132932524Y-123936843D01*
X132932527Y-123936842D01*
X133125713Y-123898415D01*
X133125725Y-123898412D01*
X133307703Y-123823035D01*
X133307716Y-123823028D01*
X133471494Y-123713594D01*
X133471498Y-123713591D01*
X133610780Y-123574309D01*
X133610783Y-123574305D01*
X133720217Y-123410527D01*
X133720224Y-123410514D01*
X133795601Y-123228535D01*
X133795601Y-123228533D01*
X133803894Y-123186843D01*
X133001020Y-123186843D01*
X133018237Y-123176903D01*
X133074092Y-123121048D01*
X133113588Y-123052639D01*
X133134032Y-122976339D01*
X133134032Y-122897347D01*
X133113588Y-122821047D01*
X133074092Y-122752638D01*
X133018237Y-122696783D01*
X133001020Y-122686843D01*
X133803894Y-122686843D01*
X133795601Y-122645152D01*
X133795601Y-122645150D01*
X133720224Y-122463171D01*
X133720217Y-122463158D01*
X133610783Y-122299380D01*
X133610780Y-122299376D01*
X133471498Y-122160094D01*
X133471494Y-122160091D01*
X133307716Y-122050657D01*
X133307703Y-122050650D01*
X133125725Y-121975273D01*
X133125713Y-121975270D01*
X132932527Y-121936843D01*
X132784032Y-121936843D01*
X132784032Y-122636843D01*
X132284032Y-122636843D01*
X132284032Y-121936843D01*
X132135536Y-121936843D01*
X131942350Y-121975270D01*
X131942338Y-121975273D01*
X131760360Y-122050650D01*
X131760347Y-122050657D01*
X131596569Y-122160091D01*
X131596565Y-122160094D01*
X131457283Y-122299376D01*
X131457280Y-122299380D01*
X131347846Y-122463158D01*
X131347839Y-122463171D01*
X131272462Y-122645150D01*
X131272462Y-122645152D01*
X131264170Y-122686843D01*
X90498467Y-122686843D01*
X90517641Y-122578144D01*
X90517864Y-122576926D01*
X90539188Y-122463171D01*
X90548713Y-122412355D01*
X90549017Y-122410796D01*
X90618975Y-122065173D01*
X90619396Y-122063178D01*
X90622149Y-122050657D01*
X90699604Y-121698357D01*
X90699933Y-121696914D01*
X90789617Y-121314996D01*
X90789950Y-121313620D01*
X90888109Y-120917358D01*
X90888353Y-120916395D01*
X90993989Y-120508403D01*
X90994194Y-120507628D01*
X91105900Y-120091842D01*
X91106199Y-120090753D01*
X91343277Y-119246761D01*
X91343660Y-119245431D01*
X91399149Y-119056480D01*
X122828893Y-119056480D01*
X122848679Y-119244736D01*
X122848680Y-119244739D01*
X122907171Y-119424757D01*
X122907174Y-119424764D01*
X123001820Y-119588696D01*
X123084842Y-119680901D01*
X123128482Y-119729368D01*
X123281618Y-119840628D01*
X123281623Y-119840631D01*
X123454545Y-119917622D01*
X123454550Y-119917624D01*
X123639707Y-119956980D01*
X123639708Y-119956980D01*
X123828997Y-119956980D01*
X123828999Y-119956980D01*
X124014156Y-119917624D01*
X124116218Y-119872182D01*
X124185464Y-119862897D01*
X124248741Y-119892525D01*
X124284580Y-119947138D01*
X124286758Y-119953840D01*
X124286762Y-119953850D01*
X124381408Y-120117782D01*
X124499710Y-120249169D01*
X124508070Y-120258454D01*
X124661206Y-120369714D01*
X124661211Y-120369717D01*
X124834133Y-120446708D01*
X124834138Y-120446710D01*
X125019295Y-120486066D01*
X125019296Y-120486066D01*
X125208585Y-120486066D01*
X125208587Y-120486066D01*
X125393744Y-120446710D01*
X125566671Y-120369717D01*
X125719812Y-120258454D01*
X125728169Y-120249172D01*
X125787650Y-120212523D01*
X125857507Y-120213850D01*
X125912469Y-120249169D01*
X125947506Y-120288081D01*
X125947507Y-120288082D01*
X126100643Y-120399342D01*
X126100648Y-120399345D01*
X126273570Y-120476336D01*
X126273575Y-120476338D01*
X126458732Y-120515694D01*
X126458733Y-120515694D01*
X126648022Y-120515694D01*
X126648024Y-120515694D01*
X126833181Y-120476338D01*
X127006108Y-120399345D01*
X127159249Y-120288082D01*
X127285911Y-120147410D01*
X127380557Y-119983478D01*
X127439052Y-119803450D01*
X127458838Y-119615194D01*
X127439052Y-119426938D01*
X127380557Y-119246910D01*
X127285911Y-119082978D01*
X127159249Y-118942306D01*
X127127298Y-118919092D01*
X127006112Y-118831045D01*
X127006107Y-118831042D01*
X126833185Y-118754051D01*
X126833180Y-118754049D01*
X126651218Y-118715373D01*
X126648024Y-118714694D01*
X126458732Y-118714694D01*
X126458731Y-118714694D01*
X126452275Y-118715373D01*
X126452127Y-118713967D01*
X126389828Y-118709201D01*
X126334103Y-118667053D01*
X126310011Y-118601469D01*
X126325201Y-118533270D01*
X126326259Y-118531394D01*
X126369144Y-118457117D01*
X126427639Y-118277089D01*
X126447425Y-118088833D01*
X126427639Y-117900577D01*
X126369144Y-117720549D01*
X126274498Y-117556617D01*
X126147836Y-117415945D01*
X126110547Y-117388853D01*
X125994699Y-117304684D01*
X125994694Y-117304681D01*
X125821772Y-117227690D01*
X125821767Y-117227688D01*
X125675966Y-117196698D01*
X125636611Y-117188333D01*
X125447319Y-117188333D01*
X125414862Y-117195231D01*
X125262162Y-117227688D01*
X125262157Y-117227690D01*
X125089235Y-117304681D01*
X125089230Y-117304684D01*
X124936094Y-117415944D01*
X124809431Y-117556618D01*
X124714786Y-117720548D01*
X124714783Y-117720555D01*
X124684895Y-117812542D01*
X124656291Y-117900577D01*
X124636505Y-118088833D01*
X124656291Y-118277089D01*
X124656292Y-118277092D01*
X124714783Y-118457110D01*
X124714786Y-118457117D01*
X124793104Y-118592768D01*
X124809577Y-118660668D01*
X124786724Y-118726695D01*
X124736168Y-118768040D01*
X124732093Y-118769855D01*
X124662845Y-118779150D01*
X124599564Y-118749530D01*
X124563711Y-118694902D01*
X124561533Y-118688199D01*
X124561532Y-118688198D01*
X124561532Y-118688196D01*
X124466886Y-118524264D01*
X124340224Y-118383592D01*
X124340223Y-118383591D01*
X124187087Y-118272331D01*
X124187082Y-118272328D01*
X124014160Y-118195337D01*
X124014155Y-118195335D01*
X123868354Y-118164345D01*
X123828999Y-118155980D01*
X123639707Y-118155980D01*
X123607250Y-118162878D01*
X123454550Y-118195335D01*
X123454545Y-118195337D01*
X123281623Y-118272328D01*
X123281618Y-118272331D01*
X123128482Y-118383591D01*
X123001819Y-118524265D01*
X122907174Y-118688195D01*
X122907171Y-118688202D01*
X122848680Y-118868220D01*
X122848679Y-118868224D01*
X122828893Y-119056480D01*
X91399149Y-119056480D01*
X91439496Y-118919092D01*
X91589669Y-118407722D01*
X91589786Y-118407328D01*
X91712692Y-117998577D01*
X91833649Y-117600505D01*
X91833698Y-117600519D01*
X91833706Y-117600316D01*
X91951164Y-117216017D01*
X91963058Y-117177128D01*
X92063888Y-116847430D01*
X92114140Y-116682118D01*
X92170387Y-116497084D01*
X92269470Y-116166278D01*
X92359940Y-115856198D01*
X92440712Y-115567317D01*
X92510864Y-115299403D01*
X92569618Y-115051411D01*
X92616375Y-114821372D01*
X92650745Y-114606286D01*
X92672565Y-114402110D01*
X92681869Y-114203978D01*
X92678871Y-114006587D01*
X92663921Y-113804580D01*
X92637505Y-113592927D01*
X92600174Y-113367308D01*
X92552551Y-113124331D01*
X92495312Y-112861493D01*
X92429188Y-112577092D01*
X92393036Y-112426467D01*
X92354954Y-112270120D01*
X92315044Y-112108014D01*
X92273411Y-111940150D01*
X92273392Y-111940072D01*
X92273392Y-111940071D01*
X92185411Y-111587265D01*
X92185411Y-111587259D01*
X92185410Y-111587260D01*
X92091835Y-111211957D01*
X92091787Y-111211763D01*
X91993576Y-110815152D01*
X91993494Y-110814817D01*
X91982382Y-110769399D01*
X91891544Y-110398127D01*
X91786682Y-109962510D01*
X91679916Y-109510253D01*
X91572174Y-109043578D01*
X91464458Y-108565309D01*
X91464302Y-108564607D01*
X91357567Y-108077543D01*
X91357322Y-108076397D01*
X91149903Y-107085154D01*
X91149558Y-107083449D01*
X91008867Y-106360652D01*
X90955828Y-106088164D01*
X90955597Y-106086936D01*
X90865907Y-105595083D01*
X90865756Y-105594237D01*
X90781662Y-105108997D01*
X90781515Y-105108119D01*
X90703791Y-104632565D01*
X90703587Y-104631275D01*
X90632789Y-104167451D01*
X90632594Y-104166119D01*
X90569211Y-103715792D01*
X90569024Y-103714401D01*
X90513520Y-103279375D01*
X90513334Y-103277830D01*
X90466068Y-102859347D01*
X90465882Y-102857562D01*
X90427164Y-102456793D01*
X90426972Y-102454601D01*
X90415402Y-102307120D01*
X90396940Y-102071775D01*
X90396772Y-102069322D01*
X90389483Y-101944354D01*
X90375464Y-101704009D01*
X90375338Y-101701319D01*
X90373395Y-101647797D01*
X90362684Y-101352783D01*
X90362615Y-101349926D01*
X90358945Y-101056100D01*
X97964068Y-101056100D01*
X97964068Y-101056107D01*
X97984263Y-101235353D01*
X97984264Y-101235358D01*
X98043844Y-101405627D01*
X98083382Y-101468551D01*
X98139817Y-101558366D01*
X98267371Y-101685920D01*
X98420111Y-101781893D01*
X98537411Y-101822938D01*
X98590378Y-101841472D01*
X98590383Y-101841473D01*
X98769629Y-101861669D01*
X98769633Y-101861669D01*
X98769637Y-101861669D01*
X98948881Y-101841473D01*
X98948881Y-101841472D01*
X98948888Y-101841472D01*
X99001854Y-101822937D01*
X99071629Y-101819375D01*
X99132257Y-101854103D01*
X99147800Y-101874006D01*
X99208625Y-101970808D01*
X99208627Y-101970810D01*
X99336181Y-102098364D01*
X99488921Y-102194337D01*
X99659188Y-102253916D01*
X99659193Y-102253917D01*
X99838439Y-102274113D01*
X99838443Y-102274113D01*
X99838447Y-102274113D01*
X100017692Y-102253917D01*
X100017695Y-102253916D01*
X100017698Y-102253916D01*
X100187965Y-102194337D01*
X100340705Y-102098364D01*
X100468259Y-101970810D01*
X100564232Y-101818070D01*
X100623811Y-101647803D01*
X100623812Y-101647797D01*
X100644008Y-101468551D01*
X100644008Y-101468544D01*
X100623812Y-101289298D01*
X100623811Y-101289293D01*
X100604938Y-101235358D01*
X100564232Y-101119026D01*
X100468259Y-100966286D01*
X100468258Y-100966285D01*
X100464554Y-100960390D01*
X100465992Y-100959486D01*
X100452868Y-100927340D01*
X102153956Y-100927340D01*
X102153956Y-100927347D01*
X102174151Y-101106593D01*
X102174152Y-101106598D01*
X102233732Y-101276867D01*
X102281434Y-101352783D01*
X102329705Y-101429606D01*
X102457259Y-101557160D01*
X102500683Y-101584445D01*
X102601514Y-101647802D01*
X102609999Y-101653133D01*
X102703696Y-101685919D01*
X102780266Y-101712712D01*
X102780271Y-101712713D01*
X102959517Y-101732909D01*
X102959521Y-101732909D01*
X102959525Y-101732909D01*
X103138770Y-101712713D01*
X103138773Y-101712712D01*
X103138776Y-101712712D01*
X103309043Y-101653133D01*
X103461783Y-101557160D01*
X103589337Y-101429606D01*
X103685310Y-101276866D01*
X103744889Y-101106599D01*
X103750578Y-101056107D01*
X103765086Y-100927347D01*
X103765086Y-100927340D01*
X103744890Y-100748094D01*
X103744889Y-100748089D01*
X103701463Y-100623984D01*
X103685310Y-100577822D01*
X103670242Y-100553842D01*
X103646103Y-100515424D01*
X103589337Y-100425082D01*
X103583755Y-100419500D01*
X114818380Y-100419500D01*
X114818380Y-100419507D01*
X114837944Y-100593152D01*
X114837946Y-100593162D01*
X114877634Y-100706582D01*
X114895665Y-100758110D01*
X114988640Y-100906080D01*
X115112211Y-101029651D01*
X115260181Y-101122626D01*
X115425130Y-101180345D01*
X115425136Y-101180345D01*
X115425138Y-101180346D01*
X115598783Y-101199911D01*
X115598787Y-101199911D01*
X115598791Y-101199911D01*
X115772435Y-101180346D01*
X115772434Y-101180346D01*
X115772444Y-101180345D01*
X115937393Y-101122626D01*
X116085363Y-101029651D01*
X116208934Y-100906080D01*
X116301909Y-100758110D01*
X116359628Y-100593161D01*
X116375339Y-100453717D01*
X116379194Y-100419507D01*
X116379194Y-100419500D01*
X116359629Y-100245855D01*
X116359628Y-100245853D01*
X116359628Y-100245847D01*
X116315530Y-100119826D01*
X116311969Y-100050048D01*
X116344888Y-99991194D01*
X116443276Y-99892807D01*
X116539249Y-99740067D01*
X116598828Y-99569800D01*
X116598829Y-99569794D01*
X116619025Y-99390548D01*
X116619025Y-99390541D01*
X116598829Y-99211295D01*
X116598828Y-99211290D01*
X116539248Y-99041021D01*
X116492747Y-98967015D01*
X116443276Y-98888283D01*
X116315722Y-98760729D01*
X116253613Y-98721703D01*
X116162983Y-98664756D01*
X115992714Y-98605176D01*
X115992709Y-98605175D01*
X115813464Y-98584980D01*
X115813456Y-98584980D01*
X115634210Y-98605175D01*
X115634205Y-98605176D01*
X115463936Y-98664756D01*
X115311197Y-98760729D01*
X115183644Y-98888282D01*
X115087671Y-99041021D01*
X115028091Y-99211290D01*
X115028090Y-99211295D01*
X115007895Y-99390541D01*
X115007895Y-99390548D01*
X115028090Y-99569794D01*
X115028092Y-99569802D01*
X115086259Y-99736034D01*
X115089820Y-99805812D01*
X115056899Y-99864669D01*
X114988639Y-99932929D01*
X114895664Y-100080899D01*
X114837946Y-100245845D01*
X114837944Y-100245855D01*
X114818380Y-100419500D01*
X103583755Y-100419500D01*
X103461783Y-100297528D01*
X103309044Y-100201555D01*
X103138775Y-100141975D01*
X103138770Y-100141974D01*
X102959525Y-100121779D01*
X102959517Y-100121779D01*
X102780271Y-100141974D01*
X102780266Y-100141975D01*
X102609997Y-100201555D01*
X102457258Y-100297528D01*
X102329705Y-100425081D01*
X102233732Y-100577820D01*
X102174152Y-100748089D01*
X102174151Y-100748094D01*
X102153956Y-100927340D01*
X100452868Y-100927340D01*
X100442893Y-100902907D01*
X100455648Y-100834212D01*
X100478562Y-100802604D01*
X100504443Y-100776724D01*
X100600416Y-100623984D01*
X100659995Y-100453717D01*
X100659996Y-100453711D01*
X100680192Y-100274465D01*
X100680192Y-100274458D01*
X100659996Y-100095212D01*
X100659995Y-100095207D01*
X100600415Y-99924938D01*
X100522412Y-99800798D01*
X100504443Y-99772200D01*
X100376889Y-99644646D01*
X100224145Y-99548670D01*
X100222475Y-99547866D01*
X100221582Y-99547059D01*
X100218253Y-99544968D01*
X100218619Y-99544384D01*
X100170617Y-99501042D01*
X100152307Y-99433614D01*
X100159239Y-99395196D01*
X100183620Y-99325520D01*
X100203817Y-99146265D01*
X100191959Y-99041023D01*
X100183621Y-98967015D01*
X100183620Y-98967010D01*
X100124040Y-98796741D01*
X100028067Y-98644002D01*
X99900514Y-98516449D01*
X99747775Y-98420476D01*
X99577506Y-98360896D01*
X99577501Y-98360895D01*
X99398256Y-98340700D01*
X99398248Y-98340700D01*
X99219002Y-98360895D01*
X99218997Y-98360896D01*
X99048728Y-98420476D01*
X98895989Y-98516449D01*
X98768436Y-98644002D01*
X98672463Y-98796741D01*
X98612883Y-98967010D01*
X98612882Y-98967015D01*
X98592687Y-99146261D01*
X98592687Y-99146268D01*
X98612882Y-99325514D01*
X98612883Y-99325519D01*
X98672463Y-99495788D01*
X98725918Y-99580860D01*
X98768436Y-99648527D01*
X98895990Y-99776081D01*
X98935327Y-99800798D01*
X99048729Y-99872054D01*
X99050397Y-99872857D01*
X99051288Y-99873661D01*
X99054626Y-99875759D01*
X99054258Y-99876343D01*
X99102257Y-99919679D01*
X99120571Y-99987106D01*
X99113639Y-100025533D01*
X99089258Y-100095207D01*
X99089257Y-100095212D01*
X99081853Y-100160932D01*
X99054787Y-100225346D01*
X98997192Y-100264902D01*
X98944750Y-100270269D01*
X98769637Y-100250539D01*
X98769629Y-100250539D01*
X98590383Y-100270734D01*
X98590378Y-100270735D01*
X98420109Y-100330315D01*
X98267370Y-100426288D01*
X98139817Y-100553841D01*
X98043844Y-100706580D01*
X97984264Y-100876849D01*
X97984263Y-100876854D01*
X97964068Y-101056100D01*
X90358945Y-101056100D01*
X90358451Y-101016564D01*
X90358451Y-101013575D01*
X90362232Y-100705377D01*
X90362307Y-100702380D01*
X90373477Y-100404767D01*
X90373633Y-100401672D01*
X90391929Y-100112811D01*
X90392170Y-100109661D01*
X90393460Y-100095212D01*
X90417347Y-99827627D01*
X90417653Y-99824630D01*
X90449469Y-99547763D01*
X90449844Y-99544820D01*
X90488099Y-99271535D01*
X90488537Y-99268656D01*
X90497952Y-99211295D01*
X90533033Y-98997555D01*
X90533493Y-98994936D01*
X90583957Y-98725318D01*
X90584691Y-98721703D01*
X90703676Y-98178143D01*
X90704419Y-98174960D01*
X90772161Y-97901259D01*
X90772639Y-97899395D01*
X90846006Y-97621923D01*
X90846421Y-97620396D01*
X90925229Y-97338646D01*
X90925580Y-97337422D01*
X91009636Y-97050948D01*
X91009980Y-97049799D01*
X91099153Y-96758052D01*
X91099491Y-96756968D01*
X91193688Y-96459377D01*
X91194018Y-96458350D01*
X91226493Y-96358774D01*
X91293249Y-96154080D01*
X91293396Y-96153636D01*
X91397513Y-95842486D01*
X91397735Y-95841830D01*
X91506667Y-95523404D01*
X91506868Y-95522824D01*
X91560047Y-95370323D01*
X91620514Y-95196923D01*
X91738983Y-94862828D01*
X91862053Y-94520753D01*
X91989689Y-94170503D01*
X92121857Y-93811925D01*
X92258530Y-93444894D01*
X92399677Y-93069314D01*
X92545280Y-92685128D01*
X92695328Y-92292283D01*
X92740934Y-92173733D01*
X93527851Y-92173733D01*
X93527851Y-92173734D01*
X93548446Y-92409137D01*
X93548448Y-92409147D01*
X93609604Y-92637389D01*
X93609606Y-92637393D01*
X93609607Y-92637397D01*
X93709475Y-92851564D01*
X93709477Y-92851568D01*
X93803254Y-92985494D01*
X93845015Y-93045135D01*
X94012109Y-93212229D01*
X94032466Y-93226483D01*
X94205675Y-93347766D01*
X94205677Y-93347767D01*
X94205680Y-93347769D01*
X94419847Y-93447637D01*
X94419853Y-93447638D01*
X94419854Y-93447639D01*
X94428703Y-93450010D01*
X94648102Y-93508797D01*
X94836428Y-93525273D01*
X94883509Y-93529393D01*
X94883510Y-93529393D01*
X94883511Y-93529393D01*
X94922744Y-93525960D01*
X95118918Y-93508797D01*
X95347173Y-93447637D01*
X95561340Y-93347769D01*
X95754911Y-93212229D01*
X95922005Y-93045135D01*
X96057545Y-92851564D01*
X96116928Y-92724217D01*
X108674556Y-92724217D01*
X108674556Y-92724224D01*
X108694751Y-92903470D01*
X108694752Y-92903475D01*
X108754332Y-93073744D01*
X108841347Y-93212227D01*
X108850305Y-93226483D01*
X108977859Y-93354037D01*
X109068201Y-93410803D01*
X109126825Y-93447639D01*
X109130599Y-93450010D01*
X109298597Y-93508795D01*
X109300866Y-93509589D01*
X109300871Y-93509590D01*
X109480117Y-93529786D01*
X109480121Y-93529786D01*
X109480125Y-93529786D01*
X109659370Y-93509590D01*
X109659373Y-93509589D01*
X109659376Y-93509589D01*
X109829643Y-93450010D01*
X109982383Y-93354037D01*
X110109937Y-93226483D01*
X110205910Y-93073743D01*
X110265489Y-92903476D01*
X110285686Y-92724221D01*
X110281281Y-92685128D01*
X110265490Y-92544971D01*
X110265489Y-92544966D01*
X110205909Y-92374697D01*
X110166703Y-92312301D01*
X110109937Y-92221959D01*
X109982383Y-92094405D01*
X109829644Y-91998432D01*
X109659375Y-91938852D01*
X109659370Y-91938851D01*
X109480125Y-91918656D01*
X109480117Y-91918656D01*
X109300871Y-91938851D01*
X109300866Y-91938852D01*
X109130597Y-91998432D01*
X108977858Y-92094405D01*
X108850305Y-92221958D01*
X108754332Y-92374697D01*
X108694752Y-92544966D01*
X108694751Y-92544971D01*
X108674556Y-92724217D01*
X96116928Y-92724217D01*
X96157413Y-92637397D01*
X96218573Y-92409142D01*
X96239169Y-92173734D01*
X96218573Y-91938326D01*
X96157413Y-91710071D01*
X96057545Y-91495905D01*
X95955395Y-91350019D01*
X95933069Y-91283815D01*
X95950079Y-91216048D01*
X96001027Y-91168235D01*
X96046165Y-91155370D01*
X96070326Y-91153256D01*
X96070337Y-91153254D01*
X96298494Y-91092120D01*
X96298503Y-91092116D01*
X96512589Y-90992287D01*
X96706093Y-90856792D01*
X96873120Y-90689766D01*
X96972467Y-90547883D01*
X96146595Y-90214208D01*
X96235110Y-90125694D01*
X96300936Y-90011680D01*
X96335011Y-89884513D01*
X96335011Y-89752861D01*
X96334471Y-89750846D01*
X97161300Y-90084907D01*
X97169578Y-90054015D01*
X97169579Y-90054007D01*
X97190168Y-89818688D01*
X97190168Y-89818685D01*
X97169580Y-89583371D01*
X97169578Y-89583360D01*
X97108444Y-89355203D01*
X97108440Y-89355194D01*
X97008611Y-89141109D01*
X97008610Y-89141107D01*
X96906653Y-88995497D01*
X96884326Y-88929291D01*
X96901336Y-88861524D01*
X96952284Y-88813711D01*
X96997420Y-88800846D01*
X97021919Y-88798703D01*
X97250174Y-88737543D01*
X97464341Y-88637675D01*
X97657912Y-88502135D01*
X97825006Y-88335041D01*
X97960546Y-88141470D01*
X98060414Y-87927303D01*
X98121574Y-87699048D01*
X98142170Y-87463640D01*
X98121574Y-87228232D01*
X98060414Y-86999977D01*
X98009092Y-86889918D01*
X97998601Y-86820844D01*
X98027120Y-86757060D01*
X98085597Y-86718820D01*
X98124819Y-86713561D01*
X98148324Y-86714195D01*
X98266139Y-86717374D01*
X98405274Y-86680565D01*
X98528404Y-86606049D01*
X98528408Y-86606045D01*
X98625549Y-86499865D01*
X98625549Y-86499863D01*
X98625552Y-86499861D01*
X98653825Y-86446993D01*
X99326522Y-84782006D01*
X99342911Y-84724336D01*
X99346793Y-84580466D01*
X99309984Y-84441331D01*
X99235468Y-84318201D01*
X99235466Y-84318199D01*
X99235464Y-84318196D01*
X99129284Y-84221055D01*
X99120948Y-84216597D01*
X99076412Y-84192780D01*
X99076405Y-84192777D01*
X97411429Y-83520084D01*
X97353754Y-83503693D01*
X97209885Y-83499812D01*
X97070751Y-83536620D01*
X96947621Y-83611136D01*
X96947615Y-83611140D01*
X96850474Y-83717320D01*
X96822196Y-83770199D01*
X96149503Y-85435175D01*
X96133112Y-85492850D01*
X96129231Y-85636719D01*
X96166039Y-85775853D01*
X96240555Y-85898983D01*
X96240556Y-85898985D01*
X96341808Y-85991618D01*
X96377983Y-86051394D01*
X96376099Y-86121238D01*
X96336753Y-86178976D01*
X96310512Y-86195489D01*
X96108682Y-86289604D01*
X96108680Y-86289605D01*
X95915108Y-86425145D01*
X95748016Y-86592237D01*
X95612476Y-86785809D01*
X95612475Y-86785811D01*
X95512609Y-86999975D01*
X95512605Y-86999984D01*
X95451449Y-87228226D01*
X95451447Y-87228236D01*
X95430852Y-87463639D01*
X95430852Y-87463640D01*
X95451447Y-87699043D01*
X95451449Y-87699053D01*
X95512605Y-87927295D01*
X95512607Y-87927299D01*
X95512608Y-87927303D01*
X95612476Y-88141470D01*
X95612478Y-88141474D01*
X95714623Y-88287352D01*
X95736950Y-88353558D01*
X95719940Y-88421325D01*
X95668992Y-88469138D01*
X95623859Y-88482003D01*
X95599693Y-88484117D01*
X95599684Y-88484119D01*
X95371527Y-88545253D01*
X95371518Y-88545257D01*
X95157433Y-88645086D01*
X95157431Y-88645087D01*
X94963937Y-88780573D01*
X94963931Y-88780578D01*
X94796904Y-88947605D01*
X94796895Y-88947615D01*
X94697553Y-89089489D01*
X95523427Y-89423164D01*
X95434912Y-89511680D01*
X95369086Y-89625694D01*
X95335011Y-89752861D01*
X95335011Y-89884513D01*
X95335550Y-89886525D01*
X94508721Y-89552464D01*
X94500442Y-89583364D01*
X94479854Y-89818686D01*
X94479854Y-89818688D01*
X94500441Y-90054002D01*
X94500443Y-90054013D01*
X94561577Y-90282170D01*
X94561581Y-90282179D01*
X94661410Y-90496265D01*
X94763369Y-90641875D01*
X94785696Y-90708081D01*
X94768686Y-90775848D01*
X94717738Y-90823662D01*
X94672604Y-90836527D01*
X94648105Y-90838670D01*
X94648096Y-90838672D01*
X94419854Y-90899828D01*
X94419845Y-90899832D01*
X94205681Y-90999698D01*
X94205679Y-90999699D01*
X94012107Y-91135239D01*
X93845015Y-91302331D01*
X93709475Y-91495903D01*
X93709474Y-91495905D01*
X93609608Y-91710069D01*
X93609604Y-91710078D01*
X93548448Y-91938320D01*
X93548446Y-91938330D01*
X93527851Y-92173733D01*
X92740934Y-92173733D01*
X92849792Y-91890759D01*
X93008682Y-91480531D01*
X93171989Y-91061604D01*
X93339710Y-90633973D01*
X97495472Y-80236331D01*
X97497282Y-80232042D01*
X97525376Y-80168821D01*
X97529498Y-80160416D01*
X97560833Y-80102215D01*
X97565553Y-80094189D01*
X97579046Y-80073098D01*
X97600853Y-80039012D01*
X97606110Y-80031433D01*
X97645180Y-79979383D01*
X97650973Y-79972235D01*
X97693577Y-79923479D01*
X97699825Y-79916839D01*
X97745785Y-79871483D01*
X97752454Y-79865369D01*
X97801492Y-79823624D01*
X97808610Y-79818002D01*
X97860509Y-79780008D01*
X97867991Y-79774940D01*
X97922564Y-79740827D01*
X97930404Y-79736318D01*
X97987371Y-79706274D01*
X97995537Y-79702344D01*
X98054699Y-79676504D01*
X98063185Y-79673165D01*
X98116147Y-79654553D01*
X98124269Y-79651700D01*
X98133061Y-79648973D01*
X98195866Y-79632018D01*
X98204878Y-79629942D01*
X98269232Y-79617638D01*
X98278424Y-79616237D01*
X98344099Y-79608740D01*
X98353410Y-79608033D01*
X98416175Y-79605652D01*
X98422561Y-79605410D01*
X98427261Y-79605321D01*
X101184093Y-79605321D01*
X101186372Y-79605342D01*
G37*
%TD.AperFunction*%
%TD*%
M02*
